M48
;DRILL file {KiCad (5.0.2)-1} date 2022/01/15 23:06:12
;FORMAT={-:-/ absolute / metric / decimal}
FMAT,2
METRIC,TZ
T1C0.400
T2C0.798
T3C0.800
T4C0.900
T5C1.000
T6C1.100
T7C2.000
T8C3.200
%
G90
G05
T1
X76.2Y-55.88
X76.2Y-60.96
X76.2Y-66.04
X76.2Y-71.12
X76.2Y-76.2
X76.2Y-91.44
X76.2Y-96.52
X76.2Y-101.6
X76.2Y-106.68
X76.2Y-111.76
X78.74Y-85.09
X78.74Y-87.63
X78.74Y-90.17
X81.28Y-60.96
X81.28Y-73.66
X81.28Y-76.2
X81.28Y-79.375
X81.28Y-81.915
X81.28Y-85.09
X81.28Y-87.63
X81.28Y-90.17
X82.55Y-81.915
X82.55Y-116.84
X83.82Y-71.12
X83.82Y-73.66
X83.82Y-76.2
X83.82Y-79.375
X83.82Y-81.915
X83.82Y-85.09
X83.82Y-87.63
X83.82Y-90.17
X85.09Y-74.93
X85.09Y-81.915
X86.36Y-60.96
X86.36Y-66.04
X86.36Y-71.12
X86.36Y-73.66
X86.36Y-76.2
X86.36Y-79.375
X86.36Y-81.915
X86.36Y-85.09
X86.36Y-87.63
X86.36Y-90.17
X87.63Y-116.84
X88.9Y-71.12
X88.9Y-73.66
X88.9Y-76.2
X91.44Y-76.2
X92.71Y-50.8
X92.71Y-55.88
X92.71Y-59.69
X92.71Y-116.84
X93.98Y-67.31
X93.98Y-71.12
X93.98Y-73.66
X93.98Y-76.2
X95.25Y-86.36
X95.25Y-92.71
X95.885Y-69.215
X96.52Y-55.88
X96.52Y-59.69
X96.52Y-73.66
X96.52Y-76.2
X97.79Y-50.8
X97.79Y-96.52
X97.79Y-101.6
X97.79Y-106.68
X97.79Y-111.76
X97.79Y-116.84
X99.695Y-50.165
X99.695Y-52.705
X99.695Y-55.245
X99.695Y-57.785
X99.695Y-60.325
X99.695Y-61.595
X99.695Y-62.865
X99.695Y-67.945
X99.695Y-74.295
X99.695Y-76.2
X100.33Y-71.12
X102.235Y-50.165
X102.235Y-55.245
X102.235Y-57.785
X102.235Y-60.325
X102.235Y-62.865
X102.235Y-65.405
X102.235Y-67.945
X102.235Y-70.485
X102.235Y-73.66
X102.87Y-81.28
X102.87Y-86.36
X102.87Y-92.71
X102.87Y-116.84
X104.775Y-50.165
X104.775Y-52.705
X104.775Y-55.245
X104.775Y-57.785
X104.775Y-60.325
X104.775Y-61.595
X104.775Y-62.865
X104.775Y-65.405
X104.775Y-67.945
X104.775Y-70.485
X107.315Y-50.165
X107.315Y-52.705
X107.315Y-55.245
X107.95Y-116.84
X108.585Y-59.69
X108.585Y-64.135
X108.585Y-72.39
X108.585Y-74.93
X108.585Y-77.47
X109.855Y-50.165
X109.855Y-52.705
X110.49Y-86.36
X110.49Y-92.71
X111.76Y-72.39
X111.76Y-74.93
X111.76Y-77.47
X112.395Y-50.165
X112.395Y-52.705
X113.03Y-59.69
X113.03Y-64.135
X113.03Y-92.075
X113.03Y-116.84
X114.3Y-93.345
X114.3Y-97.79
X114.935Y-50.165
X114.935Y-68.58
X114.935Y-71.12
X114.935Y-72.39
X114.935Y-74.93
X114.935Y-77.47
X116.205Y-61.595
X117.221Y-68.326
X117.475Y-50.165
X117.475Y-52.705
X117.65Y-66.929
X117.65Y-73.152
X118.11Y-116.84
X118.364Y-68.834
X119.38Y-67.818
X120.65Y-97.79
X120.65Y-101.6
X120.65Y-106.68
X120.65Y-111.76
X120.904Y-84.328
X120.904Y-88.265
X121.412Y-67.818
X121.412Y-69.596
X121.92Y-83.185
X123.063Y-67.818
X123.063Y-69.596
X123.19Y-50.8
X123.19Y-116.84
X124.968Y-63.5
X124.968Y-65.024
X124.968Y-66.802
X124.968Y-67.818
X124.968Y-68.834
X124.968Y-69.85
X125.222Y-59.944
X125.73Y-72.39
X125.73Y-74.93
X125.73Y-77.47
X126.492Y-84.328
X127.Y-65.024
X127.Y-67.818
X127.Y-69.85
X127.Y-97.79
X128.27Y-49.53
X128.27Y-84.455
X128.27Y-85.725
X128.27Y-86.995
X128.27Y-88.265
X128.27Y-116.84
X128.905Y-72.39
X128.905Y-74.93
X128.905Y-77.47
X129.032Y-59.944
X129.032Y-65.024
X129.032Y-67.818
X129.032Y-69.85
X131.064Y-65.024
X131.064Y-67.818
X131.064Y-69.85
X132.08Y-72.39
X132.08Y-74.93
X132.08Y-77.47
X132.08Y-79.248
X132.588Y-57.912
X132.588Y-59.944
X132.715Y-88.265
X132.715Y-90.805
X132.715Y-92.075
X132.715Y-93.345
X133.096Y-62.23
X133.096Y-63.5
X133.096Y-65.024
X133.096Y-66.802
X133.096Y-67.818
X133.096Y-68.834
X133.096Y-69.85
X133.35Y-49.53
X133.35Y-116.84
X138.43Y-50.8
X138.43Y-116.84
X138.684Y-62.23
X138.684Y-63.5
X138.684Y-65.024
X138.684Y-66.802
X138.684Y-67.818
X138.684Y-68.834
X138.684Y-69.85
X138.684Y-71.882
X138.684Y-73.914
X138.684Y-75.946
X138.684Y-77.978
X138.684Y-80.01
X138.684Y-82.042
X139.065Y-84.455
X139.065Y-92.075
X139.065Y-93.345
X139.065Y-94.615
X140.335Y-83.185
X140.462Y-65.024
X140.716Y-67.818
X140.716Y-69.85
X140.716Y-71.882
X140.716Y-73.914
X140.716Y-75.946
X140.716Y-77.978
X140.716Y-80.01
X140.716Y-82.042
X141.605Y-85.725
X142.748Y-65.024
X142.748Y-68.072
X142.748Y-69.85
X142.748Y-71.882
X142.748Y-73.914
X142.748Y-77.978
X142.748Y-80.01
X142.748Y-82.042
X142.875Y-86.995
X143.51Y-50.8
X143.51Y-59.69
X143.51Y-96.52
X143.51Y-101.6
X143.51Y-106.68
X143.51Y-111.76
X143.51Y-116.84
X145.034Y-65.024
X145.034Y-68.072
X145.034Y-71.882
X147.955Y-95.25
X148.59Y-50.8
X148.59Y-59.69
X148.59Y-68.58
X148.59Y-74.93
X148.59Y-81.28
X148.59Y-87.63
X148.59Y-116.84
X152.4Y-87.63
X152.4Y-87.63
X152.4Y-95.25
X153.67Y-50.8
X153.67Y-59.69
X153.67Y-68.58
X153.67Y-74.93
X153.67Y-81.28
X153.67Y-116.84
X157.48Y-88.9
X157.48Y-95.25
X158.75Y-50.8
X158.75Y-59.69
X158.75Y-68.58
X158.75Y-116.84
X165.1Y-55.88
X165.1Y-60.96
X165.1Y-66.04
X165.1Y-71.12
X165.1Y-76.2
X165.1Y-81.28
X165.1Y-86.36
X165.1Y-91.44
X165.1Y-96.52
X165.1Y-101.6
X165.1Y-106.68
X165.1Y-111.76
T2
X81.305Y-65.58
X81.305Y-67.582
X81.305Y-69.578
X81.305Y-71.58
T3
X91.44Y-64.77
X91.44Y-72.39
X144.78Y-55.88
X152.4Y-55.88
X99.06Y-64.77
X99.06Y-72.39
X95.25Y-81.32
X95.25Y-83.82
X111.76Y-67.35
X111.76Y-69.85
X144.78Y-63.5
X152.4Y-63.5
T4
X157.48Y-55.88
X160.02Y-55.88
X157.48Y-63.5
X160.02Y-63.5
T5
X150.94Y-112.41
X152.94Y-112.41
X154.94Y-112.41
X156.94Y-112.41
X158.94Y-112.41
X157.48Y-73.66
X157.48Y-76.2
X157.48Y-78.74
X157.48Y-81.28
X157.48Y-83.82
X157.48Y-86.36
X144.78Y-73.66
X144.78Y-76.2
X144.78Y-78.74
X144.78Y-81.28
X144.78Y-83.82
X144.78Y-86.36
X128.08Y-112.41
X130.08Y-112.41
X132.08Y-112.41
X134.08Y-112.41
X136.08Y-112.41
X82.36Y-112.41
X84.36Y-112.41
X86.36Y-112.41
X88.36Y-112.41
X90.36Y-112.41
X105.22Y-112.41
X107.22Y-112.41
X109.22Y-112.41
X111.22Y-112.41
X113.22Y-112.41
X109.22Y-81.28
X111.76Y-81.28
X114.3Y-81.28
X116.84Y-81.28
X119.38Y-81.28
X121.92Y-81.28
X124.46Y-81.28
X127.Y-81.28
X129.54Y-81.28
X132.08Y-81.28
X77.47Y-81.28
X77.47Y-83.82
X77.47Y-86.36
X77.47Y-88.9
X109.22Y-55.88
X111.76Y-55.88
X114.3Y-55.88
X116.84Y-55.88
X119.38Y-55.88
X121.92Y-55.88
X124.46Y-55.88
X127.Y-55.88
X129.54Y-55.88
X132.08Y-55.88
T6
X83.185Y-52.07
X83.185Y-56.57
X89.685Y-52.07
X89.685Y-56.57
X152.44Y-97.91
X154.94Y-97.91
X157.44Y-97.91
X129.58Y-97.91
X132.08Y-97.91
X134.58Y-97.91
X83.86Y-97.91
X86.36Y-97.91
X88.86Y-97.91
X106.72Y-97.91
X109.22Y-97.91
X111.72Y-97.91
T7
X149.44Y-105.41
X160.44Y-105.41
X126.58Y-105.41
X137.58Y-105.41
X80.86Y-105.41
X91.86Y-105.41
X103.72Y-105.41
X114.72Y-105.41
T8
X76.2Y-116.84
X76.2Y-50.8
X165.1Y-50.8
X165.1Y-116.84
T0
M30
