G04 #@! TF.GenerationSoftware,KiCad,Pcbnew,(5.0.2)-1*
G04 #@! TF.CreationDate,2022-01-15T23:06:10+09:00*
G04 #@! TF.ProjectId,Valve,56616c76-652e-46b6-9963-61645f706362,rev?*
G04 #@! TF.SameCoordinates,Original*
G04 #@! TF.FileFunction,Legend,Top*
G04 #@! TF.FilePolarity,Positive*
%FSLAX46Y46*%
G04 Gerber Fmt 4.6, Leading zero omitted, Abs format (unit mm)*
G04 Created by KiCad (PCBNEW (5.0.2)-1) date 2022/01/15 23:06:10*
%MOMM*%
%LPD*%
G01*
G04 APERTURE LIST*
%ADD10C,0.200000*%
%ADD11C,0.150000*%
%ADD12C,0.120000*%
%ADD13C,0.127000*%
G04 APERTURE END LIST*
D10*
X130742380Y-50095476D02*
X130325714Y-49500238D01*
X130028095Y-50095476D02*
X130028095Y-48845476D01*
X130504285Y-48845476D01*
X130623333Y-48905000D01*
X130682857Y-48964523D01*
X130742380Y-49083571D01*
X130742380Y-49262142D01*
X130682857Y-49381190D01*
X130623333Y-49440714D01*
X130504285Y-49500238D01*
X130028095Y-49500238D01*
X131456666Y-50095476D02*
X131337619Y-50035952D01*
X131278095Y-49976428D01*
X131218571Y-49857380D01*
X131218571Y-49500238D01*
X131278095Y-49381190D01*
X131337619Y-49321666D01*
X131456666Y-49262142D01*
X131635238Y-49262142D01*
X131754285Y-49321666D01*
X131813809Y-49381190D01*
X131873333Y-49500238D01*
X131873333Y-49857380D01*
X131813809Y-49976428D01*
X131754285Y-50035952D01*
X131635238Y-50095476D01*
X131456666Y-50095476D01*
X132230476Y-49262142D02*
X132706666Y-49262142D01*
X132409047Y-48845476D02*
X132409047Y-49916904D01*
X132468571Y-50035952D01*
X132587619Y-50095476D01*
X132706666Y-50095476D01*
X133659047Y-50095476D02*
X133659047Y-49440714D01*
X133599523Y-49321666D01*
X133480476Y-49262142D01*
X133242380Y-49262142D01*
X133123333Y-49321666D01*
X133659047Y-50035952D02*
X133539999Y-50095476D01*
X133242380Y-50095476D01*
X133123333Y-50035952D01*
X133063809Y-49916904D01*
X133063809Y-49797857D01*
X133123333Y-49678809D01*
X133242380Y-49619285D01*
X133539999Y-49619285D01*
X133659047Y-49559761D01*
X134254285Y-50095476D02*
X134254285Y-49262142D01*
X134254285Y-49500238D02*
X134313809Y-49381190D01*
X134373333Y-49321666D01*
X134492380Y-49262142D01*
X134611428Y-49262142D01*
X134909047Y-49262142D02*
X135206666Y-50095476D01*
X135504285Y-49262142D02*
X135206666Y-50095476D01*
X135087619Y-50393095D01*
X135028095Y-50452619D01*
X134909047Y-50512142D01*
X136932857Y-49440714D02*
X137349523Y-49440714D01*
X137528095Y-50095476D02*
X136932857Y-50095476D01*
X136932857Y-48845476D01*
X137528095Y-48845476D01*
X138063809Y-49262142D02*
X138063809Y-50095476D01*
X138063809Y-49381190D02*
X138123333Y-49321666D01*
X138242380Y-49262142D01*
X138420952Y-49262142D01*
X138540000Y-49321666D01*
X138599523Y-49440714D01*
X138599523Y-50095476D01*
X139730476Y-50035952D02*
X139611428Y-50095476D01*
X139373333Y-50095476D01*
X139254285Y-50035952D01*
X139194761Y-49976428D01*
X139135238Y-49857380D01*
X139135238Y-49500238D01*
X139194761Y-49381190D01*
X139254285Y-49321666D01*
X139373333Y-49262142D01*
X139611428Y-49262142D01*
X139730476Y-49321666D01*
X140444761Y-50095476D02*
X140325714Y-50035952D01*
X140266190Y-49976428D01*
X140206666Y-49857380D01*
X140206666Y-49500238D01*
X140266190Y-49381190D01*
X140325714Y-49321666D01*
X140444761Y-49262142D01*
X140623333Y-49262142D01*
X140742380Y-49321666D01*
X140801904Y-49381190D01*
X140861428Y-49500238D01*
X140861428Y-49857380D01*
X140801904Y-49976428D01*
X140742380Y-50035952D01*
X140623333Y-50095476D01*
X140444761Y-50095476D01*
X141932857Y-50095476D02*
X141932857Y-48845476D01*
X141932857Y-50035952D02*
X141813809Y-50095476D01*
X141575714Y-50095476D01*
X141456666Y-50035952D01*
X141397142Y-49976428D01*
X141337619Y-49857380D01*
X141337619Y-49500238D01*
X141397142Y-49381190D01*
X141456666Y-49321666D01*
X141575714Y-49262142D01*
X141813809Y-49262142D01*
X141932857Y-49321666D01*
X143004285Y-50035952D02*
X142885238Y-50095476D01*
X142647142Y-50095476D01*
X142528095Y-50035952D01*
X142468571Y-49916904D01*
X142468571Y-49440714D01*
X142528095Y-49321666D01*
X142647142Y-49262142D01*
X142885238Y-49262142D01*
X143004285Y-49321666D01*
X143063809Y-49440714D01*
X143063809Y-49559761D01*
X142468571Y-49678809D01*
X143599523Y-50095476D02*
X143599523Y-49262142D01*
X143599523Y-49500238D02*
X143659047Y-49381190D01*
X143718571Y-49321666D01*
X143837619Y-49262142D01*
X143956666Y-49262142D01*
X145325714Y-49440714D02*
X145742380Y-49440714D01*
X145920952Y-50095476D02*
X145325714Y-50095476D01*
X145325714Y-48845476D01*
X145920952Y-48845476D01*
X146337619Y-49262142D02*
X146635238Y-50095476D01*
X146932857Y-49262142D01*
X147944761Y-50095476D02*
X147944761Y-49440714D01*
X147885238Y-49321666D01*
X147766190Y-49262142D01*
X147528095Y-49262142D01*
X147409047Y-49321666D01*
X147944761Y-50035952D02*
X147825714Y-50095476D01*
X147528095Y-50095476D01*
X147409047Y-50035952D01*
X147349523Y-49916904D01*
X147349523Y-49797857D01*
X147409047Y-49678809D01*
X147528095Y-49619285D01*
X147825714Y-49619285D01*
X147944761Y-49559761D01*
X148718571Y-50095476D02*
X148599523Y-50035952D01*
X148540000Y-49916904D01*
X148540000Y-48845476D01*
X149730476Y-49262142D02*
X149730476Y-50095476D01*
X149194761Y-49262142D02*
X149194761Y-49916904D01*
X149254285Y-50035952D01*
X149373333Y-50095476D01*
X149551904Y-50095476D01*
X149670952Y-50035952D01*
X149730476Y-49976428D01*
X150861428Y-50095476D02*
X150861428Y-49440714D01*
X150801904Y-49321666D01*
X150682857Y-49262142D01*
X150444761Y-49262142D01*
X150325714Y-49321666D01*
X150861428Y-50035952D02*
X150742380Y-50095476D01*
X150444761Y-50095476D01*
X150325714Y-50035952D01*
X150266190Y-49916904D01*
X150266190Y-49797857D01*
X150325714Y-49678809D01*
X150444761Y-49619285D01*
X150742380Y-49619285D01*
X150861428Y-49559761D01*
X151278095Y-49262142D02*
X151754285Y-49262142D01*
X151456666Y-48845476D02*
X151456666Y-49916904D01*
X151516190Y-50035952D01*
X151635238Y-50095476D01*
X151754285Y-50095476D01*
X152170952Y-50095476D02*
X152170952Y-49262142D01*
X152170952Y-48845476D02*
X152111428Y-48905000D01*
X152170952Y-48964523D01*
X152230476Y-48905000D01*
X152170952Y-48845476D01*
X152170952Y-48964523D01*
X152944761Y-50095476D02*
X152825714Y-50035952D01*
X152766190Y-49976428D01*
X152706666Y-49857380D01*
X152706666Y-49500238D01*
X152766190Y-49381190D01*
X152825714Y-49321666D01*
X152944761Y-49262142D01*
X153123333Y-49262142D01*
X153242380Y-49321666D01*
X153301904Y-49381190D01*
X153361428Y-49500238D01*
X153361428Y-49857380D01*
X153301904Y-49976428D01*
X153242380Y-50035952D01*
X153123333Y-50095476D01*
X152944761Y-50095476D01*
X153897142Y-49262142D02*
X153897142Y-50095476D01*
X153897142Y-49381190D02*
X153956666Y-49321666D01*
X154075714Y-49262142D01*
X154254285Y-49262142D01*
X154373333Y-49321666D01*
X154432857Y-49440714D01*
X154432857Y-50095476D01*
X156397142Y-49440714D02*
X156575714Y-49500238D01*
X156635238Y-49559761D01*
X156694761Y-49678809D01*
X156694761Y-49857380D01*
X156635238Y-49976428D01*
X156575714Y-50035952D01*
X156456666Y-50095476D01*
X155980476Y-50095476D01*
X155980476Y-48845476D01*
X156397142Y-48845476D01*
X156516190Y-48905000D01*
X156575714Y-48964523D01*
X156635238Y-49083571D01*
X156635238Y-49202619D01*
X156575714Y-49321666D01*
X156516190Y-49381190D01*
X156397142Y-49440714D01*
X155980476Y-49440714D01*
X157409047Y-50095476D02*
X157289999Y-50035952D01*
X157230476Y-49976428D01*
X157170952Y-49857380D01*
X157170952Y-49500238D01*
X157230476Y-49381190D01*
X157289999Y-49321666D01*
X157409047Y-49262142D01*
X157587619Y-49262142D01*
X157706666Y-49321666D01*
X157766190Y-49381190D01*
X157825714Y-49500238D01*
X157825714Y-49857380D01*
X157766190Y-49976428D01*
X157706666Y-50035952D01*
X157587619Y-50095476D01*
X157409047Y-50095476D01*
X158897142Y-50095476D02*
X158897142Y-49440714D01*
X158837619Y-49321666D01*
X158718571Y-49262142D01*
X158480476Y-49262142D01*
X158361428Y-49321666D01*
X158897142Y-50035952D02*
X158778095Y-50095476D01*
X158480476Y-50095476D01*
X158361428Y-50035952D01*
X158301904Y-49916904D01*
X158301904Y-49797857D01*
X158361428Y-49678809D01*
X158480476Y-49619285D01*
X158778095Y-49619285D01*
X158897142Y-49559761D01*
X159492380Y-50095476D02*
X159492380Y-49262142D01*
X159492380Y-49500238D02*
X159551904Y-49381190D01*
X159611428Y-49321666D01*
X159730476Y-49262142D01*
X159849523Y-49262142D01*
X160801904Y-50095476D02*
X160801904Y-48845476D01*
X160801904Y-50035952D02*
X160682857Y-50095476D01*
X160444761Y-50095476D01*
X160325714Y-50035952D01*
X160266190Y-49976428D01*
X160206666Y-49857380D01*
X160206666Y-49500238D01*
X160266190Y-49381190D01*
X160325714Y-49321666D01*
X160444761Y-49262142D01*
X160682857Y-49262142D01*
X160801904Y-49321666D01*
D11*
X99512380Y-69865714D02*
X98512380Y-69865714D01*
X98512380Y-69627619D01*
X98560000Y-69484761D01*
X98655238Y-69389523D01*
X98750476Y-69341904D01*
X98940952Y-69294285D01*
X99083809Y-69294285D01*
X99274285Y-69341904D01*
X99369523Y-69389523D01*
X99464761Y-69484761D01*
X99512380Y-69627619D01*
X99512380Y-69865714D01*
X99512380Y-68865714D02*
X98512380Y-68865714D01*
X99512380Y-68294285D01*
X98512380Y-68294285D01*
X99512380Y-67818095D02*
X98512380Y-67818095D01*
X98512380Y-67437142D01*
X98560000Y-67341904D01*
X98607619Y-67294285D01*
X98702857Y-67246666D01*
X98845714Y-67246666D01*
X98940952Y-67294285D01*
X98988571Y-67341904D01*
X99036190Y-67437142D01*
X99036190Y-67818095D01*
X91892380Y-69865714D02*
X90892380Y-69865714D01*
X90892380Y-69627619D01*
X90940000Y-69484761D01*
X91035238Y-69389523D01*
X91130476Y-69341904D01*
X91320952Y-69294285D01*
X91463809Y-69294285D01*
X91654285Y-69341904D01*
X91749523Y-69389523D01*
X91844761Y-69484761D01*
X91892380Y-69627619D01*
X91892380Y-69865714D01*
X91892380Y-68865714D02*
X90892380Y-68865714D01*
X91892380Y-68294285D01*
X90892380Y-68294285D01*
X91892380Y-67818095D02*
X90892380Y-67818095D01*
X90892380Y-67437142D01*
X90940000Y-67341904D01*
X90987619Y-67294285D01*
X91082857Y-67246666D01*
X91225714Y-67246666D01*
X91320952Y-67294285D01*
X91368571Y-67341904D01*
X91416190Y-67437142D01*
X91416190Y-67818095D01*
D10*
X153957857Y-115302142D02*
X154850714Y-115302142D01*
X154315000Y-114766428D02*
X153957857Y-116373571D01*
X154731666Y-115837857D02*
X153838809Y-115837857D01*
X154374523Y-116373571D02*
X154731666Y-114766428D01*
X155803095Y-115302142D02*
X155803095Y-116135476D01*
X155505476Y-114825952D02*
X155207857Y-115718809D01*
X155981666Y-115718809D01*
X131097857Y-115302142D02*
X131990714Y-115302142D01*
X131455000Y-114766428D02*
X131097857Y-116373571D01*
X131871666Y-115837857D02*
X130978809Y-115837857D01*
X131514523Y-116373571D02*
X131871666Y-114766428D01*
X132288333Y-114885476D02*
X133062142Y-114885476D01*
X132645476Y-115361666D01*
X132824047Y-115361666D01*
X132943095Y-115421190D01*
X133002619Y-115480714D01*
X133062142Y-115599761D01*
X133062142Y-115897380D01*
X133002619Y-116016428D01*
X132943095Y-116075952D01*
X132824047Y-116135476D01*
X132466904Y-116135476D01*
X132347857Y-116075952D01*
X132288333Y-116016428D01*
X108237857Y-115302142D02*
X109130714Y-115302142D01*
X108595000Y-114766428D02*
X108237857Y-116373571D01*
X109011666Y-115837857D02*
X108118809Y-115837857D01*
X108654523Y-116373571D02*
X109011666Y-114766428D01*
X109487857Y-115004523D02*
X109547380Y-114945000D01*
X109666428Y-114885476D01*
X109964047Y-114885476D01*
X110083095Y-114945000D01*
X110142619Y-115004523D01*
X110202142Y-115123571D01*
X110202142Y-115242619D01*
X110142619Y-115421190D01*
X109428333Y-116135476D01*
X110202142Y-116135476D01*
X85377857Y-115302142D02*
X86270714Y-115302142D01*
X85735000Y-114766428D02*
X85377857Y-116373571D01*
X86151666Y-115837857D02*
X85258809Y-115837857D01*
X85794523Y-116373571D02*
X86151666Y-114766428D01*
X87342142Y-116135476D02*
X86627857Y-116135476D01*
X86985000Y-116135476D02*
X86985000Y-114885476D01*
X86865952Y-115064047D01*
X86746904Y-115183095D01*
X86627857Y-115242619D01*
X80378095Y-89405952D02*
X80556666Y-89465476D01*
X80854285Y-89465476D01*
X80973333Y-89405952D01*
X81032857Y-89346428D01*
X81092380Y-89227380D01*
X81092380Y-89108333D01*
X81032857Y-88989285D01*
X80973333Y-88929761D01*
X80854285Y-88870238D01*
X80616190Y-88810714D01*
X80497142Y-88751190D01*
X80437619Y-88691666D01*
X80378095Y-88572619D01*
X80378095Y-88453571D01*
X80437619Y-88334523D01*
X80497142Y-88275000D01*
X80616190Y-88215476D01*
X80913809Y-88215476D01*
X81092380Y-88275000D01*
X81628095Y-89465476D02*
X81628095Y-88215476D01*
X81925714Y-88215476D01*
X82104285Y-88275000D01*
X82223333Y-88394047D01*
X82282857Y-88513095D01*
X82342380Y-88751190D01*
X82342380Y-88929761D01*
X82282857Y-89167857D01*
X82223333Y-89286904D01*
X82104285Y-89405952D01*
X81925714Y-89465476D01*
X81628095Y-89465476D01*
X82818571Y-89108333D02*
X83413809Y-89108333D01*
X82699523Y-89465476D02*
X83116190Y-88215476D01*
X83532857Y-89465476D01*
X80378095Y-86865952D02*
X80556666Y-86925476D01*
X80854285Y-86925476D01*
X80973333Y-86865952D01*
X81032857Y-86806428D01*
X81092380Y-86687380D01*
X81092380Y-86568333D01*
X81032857Y-86449285D01*
X80973333Y-86389761D01*
X80854285Y-86330238D01*
X80616190Y-86270714D01*
X80497142Y-86211190D01*
X80437619Y-86151666D01*
X80378095Y-86032619D01*
X80378095Y-85913571D01*
X80437619Y-85794523D01*
X80497142Y-85735000D01*
X80616190Y-85675476D01*
X80913809Y-85675476D01*
X81092380Y-85735000D01*
X82342380Y-86806428D02*
X82282857Y-86865952D01*
X82104285Y-86925476D01*
X81985238Y-86925476D01*
X81806666Y-86865952D01*
X81687619Y-86746904D01*
X81628095Y-86627857D01*
X81568571Y-86389761D01*
X81568571Y-86211190D01*
X81628095Y-85973095D01*
X81687619Y-85854047D01*
X81806666Y-85735000D01*
X81985238Y-85675476D01*
X82104285Y-85675476D01*
X82282857Y-85735000D01*
X82342380Y-85794523D01*
X83473333Y-86925476D02*
X82878095Y-86925476D01*
X82878095Y-85675476D01*
X80259047Y-83135476D02*
X80675714Y-84385476D01*
X81092380Y-83135476D01*
X81509047Y-84385476D02*
X81509047Y-83135476D01*
X81806666Y-83135476D01*
X81985238Y-83195000D01*
X82104285Y-83314047D01*
X82163809Y-83433095D01*
X82223333Y-83671190D01*
X82223333Y-83849761D01*
X82163809Y-84087857D01*
X82104285Y-84206904D01*
X81985238Y-84325952D01*
X81806666Y-84385476D01*
X81509047Y-84385476D01*
X82759047Y-84385476D02*
X82759047Y-83135476D01*
X83056666Y-83135476D01*
X83235238Y-83195000D01*
X83354285Y-83314047D01*
X83413809Y-83433095D01*
X83473333Y-83671190D01*
X83473333Y-83849761D01*
X83413809Y-84087857D01*
X83354285Y-84206904D01*
X83235238Y-84325952D01*
X83056666Y-84385476D01*
X82759047Y-84385476D01*
X81092380Y-80655000D02*
X80973333Y-80595476D01*
X80794761Y-80595476D01*
X80616190Y-80655000D01*
X80497142Y-80774047D01*
X80437619Y-80893095D01*
X80378095Y-81131190D01*
X80378095Y-81309761D01*
X80437619Y-81547857D01*
X80497142Y-81666904D01*
X80616190Y-81785952D01*
X80794761Y-81845476D01*
X80913809Y-81845476D01*
X81092380Y-81785952D01*
X81151904Y-81726428D01*
X81151904Y-81309761D01*
X80913809Y-81309761D01*
X81687619Y-81845476D02*
X81687619Y-80595476D01*
X82401904Y-81845476D01*
X82401904Y-80595476D01*
X82997142Y-81845476D02*
X82997142Y-80595476D01*
X83294761Y-80595476D01*
X83473333Y-80655000D01*
X83592380Y-80774047D01*
X83651904Y-80893095D01*
X83711428Y-81131190D01*
X83711428Y-81309761D01*
X83651904Y-81547857D01*
X83592380Y-81666904D01*
X83473333Y-81785952D01*
X83294761Y-81845476D01*
X82997142Y-81845476D01*
X84544523Y-60255476D02*
X84127857Y-59660238D01*
X83830238Y-60255476D02*
X83830238Y-59005476D01*
X84306428Y-59005476D01*
X84425476Y-59065000D01*
X84485000Y-59124523D01*
X84544523Y-59243571D01*
X84544523Y-59422142D01*
X84485000Y-59541190D01*
X84425476Y-59600714D01*
X84306428Y-59660238D01*
X83830238Y-59660238D01*
X85080238Y-59600714D02*
X85496904Y-59600714D01*
X85675476Y-60255476D02*
X85080238Y-60255476D01*
X85080238Y-59005476D01*
X85675476Y-59005476D01*
X86151666Y-60195952D02*
X86330238Y-60255476D01*
X86627857Y-60255476D01*
X86746904Y-60195952D01*
X86806428Y-60136428D01*
X86865952Y-60017380D01*
X86865952Y-59898333D01*
X86806428Y-59779285D01*
X86746904Y-59719761D01*
X86627857Y-59660238D01*
X86389761Y-59600714D01*
X86270714Y-59541190D01*
X86211190Y-59481666D01*
X86151666Y-59362619D01*
X86151666Y-59243571D01*
X86211190Y-59124523D01*
X86270714Y-59065000D01*
X86389761Y-59005476D01*
X86687380Y-59005476D01*
X86865952Y-59065000D01*
X87401666Y-59600714D02*
X87818333Y-59600714D01*
X87996904Y-60255476D02*
X87401666Y-60255476D01*
X87401666Y-59005476D01*
X87996904Y-59005476D01*
X88354047Y-59005476D02*
X89068333Y-59005476D01*
X88711190Y-60255476D02*
X88711190Y-59005476D01*
X156002619Y-89485476D02*
X156002619Y-90497380D01*
X156062142Y-90616428D01*
X156121666Y-90675952D01*
X156240714Y-90735476D01*
X156478809Y-90735476D01*
X156597857Y-90675952D01*
X156657380Y-90616428D01*
X156716904Y-90497380D01*
X156716904Y-89485476D01*
X157252619Y-90675952D02*
X157431190Y-90735476D01*
X157728809Y-90735476D01*
X157847857Y-90675952D01*
X157907380Y-90616428D01*
X157966904Y-90497380D01*
X157966904Y-90378333D01*
X157907380Y-90259285D01*
X157847857Y-90199761D01*
X157728809Y-90140238D01*
X157490714Y-90080714D01*
X157371666Y-90021190D01*
X157312142Y-89961666D01*
X157252619Y-89842619D01*
X157252619Y-89723571D01*
X157312142Y-89604523D01*
X157371666Y-89545000D01*
X157490714Y-89485476D01*
X157788333Y-89485476D01*
X157966904Y-89545000D01*
X158919285Y-90080714D02*
X159097857Y-90140238D01*
X159157380Y-90199761D01*
X159216904Y-90318809D01*
X159216904Y-90497380D01*
X159157380Y-90616428D01*
X159097857Y-90675952D01*
X158978809Y-90735476D01*
X158502619Y-90735476D01*
X158502619Y-89485476D01*
X158919285Y-89485476D01*
X159038333Y-89545000D01*
X159097857Y-89604523D01*
X159157380Y-89723571D01*
X159157380Y-89842619D01*
X159097857Y-89961666D01*
X159038333Y-90021190D01*
X158919285Y-90080714D01*
X158502619Y-90080714D01*
X159752619Y-90259285D02*
X160705000Y-90259285D01*
X161300238Y-89485476D02*
X161300238Y-90497380D01*
X161359761Y-90616428D01*
X161419285Y-90675952D01*
X161538333Y-90735476D01*
X161776428Y-90735476D01*
X161895476Y-90675952D01*
X161955000Y-90616428D01*
X162014523Y-90497380D01*
X162014523Y-89485476D01*
X162550238Y-90378333D02*
X163145476Y-90378333D01*
X162431190Y-90735476D02*
X162847857Y-89485476D01*
X163264523Y-90735476D01*
X164395476Y-90735476D02*
X163978809Y-90140238D01*
X163681190Y-90735476D02*
X163681190Y-89485476D01*
X164157380Y-89485476D01*
X164276428Y-89545000D01*
X164335952Y-89604523D01*
X164395476Y-89723571D01*
X164395476Y-89902142D01*
X164335952Y-90021190D01*
X164276428Y-90080714D01*
X164157380Y-90140238D01*
X163681190Y-90140238D01*
X164752619Y-89485476D02*
X165466904Y-89485476D01*
X165109761Y-90735476D02*
X165109761Y-89485476D01*
X143243095Y-90675952D02*
X143421666Y-90735476D01*
X143719285Y-90735476D01*
X143838333Y-90675952D01*
X143897857Y-90616428D01*
X143957380Y-90497380D01*
X143957380Y-90378333D01*
X143897857Y-90259285D01*
X143838333Y-90199761D01*
X143719285Y-90140238D01*
X143481190Y-90080714D01*
X143362142Y-90021190D01*
X143302619Y-89961666D01*
X143243095Y-89842619D01*
X143243095Y-89723571D01*
X143302619Y-89604523D01*
X143362142Y-89545000D01*
X143481190Y-89485476D01*
X143778809Y-89485476D01*
X143957380Y-89545000D01*
X144314523Y-89485476D02*
X145028809Y-89485476D01*
X144671666Y-90735476D02*
X144671666Y-89485476D01*
X145445476Y-90259285D02*
X146397857Y-90259285D01*
X147588333Y-90735476D02*
X146993095Y-90735476D01*
X146993095Y-89485476D01*
X148005000Y-90735476D02*
X148005000Y-89485476D01*
X148600238Y-90735476D02*
X148600238Y-89485476D01*
X149314523Y-90735476D01*
X149314523Y-89485476D01*
X149909761Y-90735476D02*
X149909761Y-89485476D01*
X150624047Y-90735476D02*
X150088333Y-90021190D01*
X150624047Y-89485476D02*
X149909761Y-90199761D01*
X160447619Y-76289285D02*
X161400000Y-76289285D01*
X160447619Y-78829285D02*
X161400000Y-78829285D01*
X160447619Y-86449285D02*
X161400000Y-86449285D01*
X147747619Y-86449285D02*
X148700000Y-86449285D01*
X161161904Y-84385476D02*
X160745238Y-83790238D01*
X160447619Y-84385476D02*
X160447619Y-83135476D01*
X160923809Y-83135476D01*
X161042857Y-83195000D01*
X161102380Y-83254523D01*
X161161904Y-83373571D01*
X161161904Y-83552142D01*
X161102380Y-83671190D01*
X161042857Y-83730714D01*
X160923809Y-83790238D01*
X160447619Y-83790238D01*
X161578571Y-83135476D02*
X162411904Y-84385476D01*
X162411904Y-83135476D02*
X161578571Y-84385476D01*
X162888095Y-84385476D02*
X162888095Y-83135476D01*
X163185714Y-83135476D01*
X163364285Y-83195000D01*
X163483333Y-83314047D01*
X163542857Y-83433095D01*
X163602380Y-83671190D01*
X163602380Y-83849761D01*
X163542857Y-84087857D01*
X163483333Y-84206904D01*
X163364285Y-84325952D01*
X163185714Y-84385476D01*
X162888095Y-84385476D01*
X160269047Y-80595476D02*
X160983333Y-80595476D01*
X160626190Y-81845476D02*
X160626190Y-80595476D01*
X161280952Y-80595476D02*
X162114285Y-81845476D01*
X162114285Y-80595476D02*
X161280952Y-81845476D01*
X162590476Y-81845476D02*
X162590476Y-80595476D01*
X162888095Y-80595476D01*
X163066666Y-80655000D01*
X163185714Y-80774047D01*
X163245238Y-80893095D01*
X163304761Y-81131190D01*
X163304761Y-81309761D01*
X163245238Y-81547857D01*
X163185714Y-81666904D01*
X163066666Y-81785952D01*
X162888095Y-81845476D01*
X162590476Y-81845476D01*
X161102380Y-73035000D02*
X160983333Y-72975476D01*
X160804761Y-72975476D01*
X160626190Y-73035000D01*
X160507142Y-73154047D01*
X160447619Y-73273095D01*
X160388095Y-73511190D01*
X160388095Y-73689761D01*
X160447619Y-73927857D01*
X160507142Y-74046904D01*
X160626190Y-74165952D01*
X160804761Y-74225476D01*
X160923809Y-74225476D01*
X161102380Y-74165952D01*
X161161904Y-74106428D01*
X161161904Y-73689761D01*
X160923809Y-73689761D01*
X161697619Y-74225476D02*
X161697619Y-72975476D01*
X162411904Y-74225476D01*
X162411904Y-72975476D01*
X163007142Y-74225476D02*
X163007142Y-72975476D01*
X163304761Y-72975476D01*
X163483333Y-73035000D01*
X163602380Y-73154047D01*
X163661904Y-73273095D01*
X163721428Y-73511190D01*
X163721428Y-73689761D01*
X163661904Y-73927857D01*
X163602380Y-74046904D01*
X163483333Y-74165952D01*
X163304761Y-74225476D01*
X163007142Y-74225476D01*
X147747619Y-84385476D02*
X147747619Y-83135476D01*
X148461904Y-84385476D01*
X148461904Y-83135476D01*
X149771428Y-84385476D02*
X149354761Y-83790238D01*
X149057142Y-84385476D02*
X149057142Y-83135476D01*
X149533333Y-83135476D01*
X149652380Y-83195000D01*
X149711904Y-83254523D01*
X149771428Y-83373571D01*
X149771428Y-83552142D01*
X149711904Y-83671190D01*
X149652380Y-83730714D01*
X149533333Y-83790238D01*
X149057142Y-83790238D01*
X150247619Y-84325952D02*
X150426190Y-84385476D01*
X150723809Y-84385476D01*
X150842857Y-84325952D01*
X150902380Y-84266428D01*
X150961904Y-84147380D01*
X150961904Y-84028333D01*
X150902380Y-83909285D01*
X150842857Y-83849761D01*
X150723809Y-83790238D01*
X150485714Y-83730714D01*
X150366666Y-83671190D01*
X150307142Y-83611666D01*
X150247619Y-83492619D01*
X150247619Y-83373571D01*
X150307142Y-83254523D01*
X150366666Y-83195000D01*
X150485714Y-83135476D01*
X150783333Y-83135476D01*
X150961904Y-83195000D01*
X151319047Y-83135476D02*
X152033333Y-83135476D01*
X151676190Y-84385476D02*
X151676190Y-83135476D01*
X147688095Y-81785952D02*
X147866666Y-81845476D01*
X148164285Y-81845476D01*
X148283333Y-81785952D01*
X148342857Y-81726428D01*
X148402380Y-81607380D01*
X148402380Y-81488333D01*
X148342857Y-81369285D01*
X148283333Y-81309761D01*
X148164285Y-81250238D01*
X147926190Y-81190714D01*
X147807142Y-81131190D01*
X147747619Y-81071666D01*
X147688095Y-80952619D01*
X147688095Y-80833571D01*
X147747619Y-80714523D01*
X147807142Y-80655000D01*
X147926190Y-80595476D01*
X148223809Y-80595476D01*
X148402380Y-80655000D01*
X148819047Y-80595476D02*
X149116666Y-81845476D01*
X149354761Y-80952619D01*
X149592857Y-81845476D01*
X149890476Y-80595476D01*
X150366666Y-81845476D02*
X150366666Y-80595476D01*
X150664285Y-80595476D01*
X150842857Y-80655000D01*
X150961904Y-80774047D01*
X151021428Y-80893095D01*
X151080952Y-81131190D01*
X151080952Y-81309761D01*
X151021428Y-81547857D01*
X150961904Y-81666904D01*
X150842857Y-81785952D01*
X150664285Y-81845476D01*
X150366666Y-81845476D01*
X151616666Y-81845476D02*
X151616666Y-80595476D01*
X152450000Y-80595476D02*
X152688095Y-80595476D01*
X152807142Y-80655000D01*
X152926190Y-80774047D01*
X152985714Y-81012142D01*
X152985714Y-81428809D01*
X152926190Y-81666904D01*
X152807142Y-81785952D01*
X152688095Y-81845476D01*
X152450000Y-81845476D01*
X152330952Y-81785952D01*
X152211904Y-81666904D01*
X152152380Y-81428809D01*
X152152380Y-81012142D01*
X152211904Y-80774047D01*
X152330952Y-80655000D01*
X152450000Y-80595476D01*
X147628571Y-72975476D02*
X148402380Y-72975476D01*
X147985714Y-73451666D01*
X148164285Y-73451666D01*
X148283333Y-73511190D01*
X148342857Y-73570714D01*
X148402380Y-73689761D01*
X148402380Y-73987380D01*
X148342857Y-74106428D01*
X148283333Y-74165952D01*
X148164285Y-74225476D01*
X147807142Y-74225476D01*
X147688095Y-74165952D01*
X147628571Y-74106428D01*
X148759523Y-72975476D02*
X149176190Y-74225476D01*
X149592857Y-72975476D01*
X149890476Y-72975476D02*
X150664285Y-72975476D01*
X150247619Y-73451666D01*
X150426190Y-73451666D01*
X150545238Y-73511190D01*
X150604761Y-73570714D01*
X150664285Y-73689761D01*
X150664285Y-73987380D01*
X150604761Y-74106428D01*
X150545238Y-74165952D01*
X150426190Y-74225476D01*
X150069047Y-74225476D01*
X149950000Y-74165952D01*
X149890476Y-74106428D01*
X147688095Y-76705952D02*
X147866666Y-76765476D01*
X148164285Y-76765476D01*
X148283333Y-76705952D01*
X148342857Y-76646428D01*
X148402380Y-76527380D01*
X148402380Y-76408333D01*
X148342857Y-76289285D01*
X148283333Y-76229761D01*
X148164285Y-76170238D01*
X147926190Y-76110714D01*
X147807142Y-76051190D01*
X147747619Y-75991666D01*
X147688095Y-75872619D01*
X147688095Y-75753571D01*
X147747619Y-75634523D01*
X147807142Y-75575000D01*
X147926190Y-75515476D01*
X148223809Y-75515476D01*
X148402380Y-75575000D01*
X148819047Y-75515476D02*
X149116666Y-76765476D01*
X149354761Y-75872619D01*
X149592857Y-76765476D01*
X149890476Y-75515476D01*
X151080952Y-76646428D02*
X151021428Y-76705952D01*
X150842857Y-76765476D01*
X150723809Y-76765476D01*
X150545238Y-76705952D01*
X150426190Y-76586904D01*
X150366666Y-76467857D01*
X150307142Y-76229761D01*
X150307142Y-76051190D01*
X150366666Y-75813095D01*
X150426190Y-75694047D01*
X150545238Y-75575000D01*
X150723809Y-75515476D01*
X150842857Y-75515476D01*
X151021428Y-75575000D01*
X151080952Y-75634523D01*
X152211904Y-76765476D02*
X151616666Y-76765476D01*
X151616666Y-75515476D01*
X152628571Y-76765476D02*
X152628571Y-75515476D01*
X153342857Y-76765476D02*
X152807142Y-76051190D01*
X153342857Y-75515476D02*
X152628571Y-76229761D01*
X148402380Y-78115000D02*
X148283333Y-78055476D01*
X148104761Y-78055476D01*
X147926190Y-78115000D01*
X147807142Y-78234047D01*
X147747619Y-78353095D01*
X147688095Y-78591190D01*
X147688095Y-78769761D01*
X147747619Y-79007857D01*
X147807142Y-79126904D01*
X147926190Y-79245952D01*
X148104761Y-79305476D01*
X148223809Y-79305476D01*
X148402380Y-79245952D01*
X148461904Y-79186428D01*
X148461904Y-78769761D01*
X148223809Y-78769761D01*
X148997619Y-79305476D02*
X148997619Y-78055476D01*
X149711904Y-79305476D01*
X149711904Y-78055476D01*
X150307142Y-79305476D02*
X150307142Y-78055476D01*
X150604761Y-78055476D01*
X150783333Y-78115000D01*
X150902380Y-78234047D01*
X150961904Y-78353095D01*
X151021428Y-78591190D01*
X151021428Y-78769761D01*
X150961904Y-79007857D01*
X150902380Y-79126904D01*
X150783333Y-79245952D01*
X150604761Y-79305476D01*
X150307142Y-79305476D01*
X108654523Y-53606904D02*
X108595000Y-53547380D01*
X108535476Y-53428333D01*
X108535476Y-53130714D01*
X108595000Y-53011666D01*
X108654523Y-52952142D01*
X108773571Y-52892619D01*
X108892619Y-52892619D01*
X109071190Y-52952142D01*
X109785476Y-53666428D01*
X109785476Y-52892619D01*
X108535476Y-52118809D02*
X108535476Y-51999761D01*
X108595000Y-51880714D01*
X108654523Y-51821190D01*
X108773571Y-51761666D01*
X109011666Y-51702142D01*
X109309285Y-51702142D01*
X109547380Y-51761666D01*
X109666428Y-51821190D01*
X109725952Y-51880714D01*
X109785476Y-51999761D01*
X109785476Y-52118809D01*
X109725952Y-52237857D01*
X109666428Y-52297380D01*
X109547380Y-52356904D01*
X109309285Y-52416428D01*
X109011666Y-52416428D01*
X108773571Y-52356904D01*
X108654523Y-52297380D01*
X108595000Y-52237857D01*
X108535476Y-52118809D01*
X132645476Y-52892619D02*
X132645476Y-53606904D01*
X132645476Y-53249761D02*
X131395476Y-53249761D01*
X131574047Y-53368809D01*
X131693095Y-53487857D01*
X131752619Y-53606904D01*
X132645476Y-51702142D02*
X132645476Y-52416428D01*
X132645476Y-52059285D02*
X131395476Y-52059285D01*
X131574047Y-52178333D01*
X131693095Y-52297380D01*
X131752619Y-52416428D01*
X132645476Y-84743571D02*
X132645476Y-85457857D01*
X132645476Y-85100714D02*
X131395476Y-85100714D01*
X131574047Y-85219761D01*
X131693095Y-85338809D01*
X131752619Y-85457857D01*
X131395476Y-83969761D02*
X131395476Y-83850714D01*
X131455000Y-83731666D01*
X131514523Y-83672142D01*
X131633571Y-83612619D01*
X131871666Y-83553095D01*
X132169285Y-83553095D01*
X132407380Y-83612619D01*
X132526428Y-83672142D01*
X132585952Y-83731666D01*
X132645476Y-83850714D01*
X132645476Y-83969761D01*
X132585952Y-84088809D01*
X132526428Y-84148333D01*
X132407380Y-84207857D01*
X132169285Y-84267380D01*
X131871666Y-84267380D01*
X131633571Y-84207857D01*
X131514523Y-84148333D01*
X131455000Y-84088809D01*
X131395476Y-83969761D01*
X109785476Y-83553095D02*
X109785476Y-84267380D01*
X109785476Y-83910238D02*
X108535476Y-83910238D01*
X108714047Y-84029285D01*
X108833095Y-84148333D01*
X108892619Y-84267380D01*
D12*
G04 #@! TO.C,C1*
X110390000Y-71220000D02*
X110390000Y-65980000D01*
X113130000Y-71220000D02*
X113130000Y-65980000D01*
X110390000Y-71220000D02*
X113130000Y-71220000D01*
X110390000Y-65980000D02*
X113130000Y-65980000D01*
D13*
G04 #@! TO.C,CN1*
X80606900Y-73578720D02*
X82603340Y-73578720D01*
X73205000Y-73580000D02*
X83005000Y-73580000D01*
X73205000Y-63580000D02*
X83005000Y-63580000D01*
X83005000Y-63580000D02*
X83005000Y-73580000D01*
X73205000Y-65780920D02*
X73205000Y-63580000D01*
X74206100Y-65780920D02*
X73205000Y-65780920D01*
X74205000Y-71379080D02*
X74205000Y-65780920D01*
X73205000Y-71380000D02*
X74206100Y-71380000D01*
X73205000Y-73580920D02*
X73205000Y-71380000D01*
D11*
G04 #@! TO.C,RE1*
X91860000Y-106910000D02*
X91860000Y-112410000D01*
X91860000Y-112410000D02*
X91360000Y-112410000D01*
X89860000Y-97910000D02*
X91860000Y-97910000D01*
X91860000Y-97910000D02*
X91860000Y-103910000D01*
X80860000Y-103910000D02*
X80860000Y-97910000D01*
X80860000Y-97910000D02*
X82860000Y-97910000D01*
X81360000Y-112410000D02*
X80860000Y-112410000D01*
X80860000Y-112410000D02*
X80860000Y-106910000D01*
G04 #@! TO.C,RE2*
X103720000Y-112410000D02*
X103720000Y-106910000D01*
X104220000Y-112410000D02*
X103720000Y-112410000D01*
X103720000Y-97910000D02*
X105720000Y-97910000D01*
X103720000Y-103910000D02*
X103720000Y-97910000D01*
X114720000Y-97910000D02*
X114720000Y-103910000D01*
X112720000Y-97910000D02*
X114720000Y-97910000D01*
X114720000Y-112410000D02*
X114220000Y-112410000D01*
X114720000Y-106910000D02*
X114720000Y-112410000D01*
G04 #@! TO.C,RE3*
X137580000Y-106910000D02*
X137580000Y-112410000D01*
X137580000Y-112410000D02*
X137080000Y-112410000D01*
X135580000Y-97910000D02*
X137580000Y-97910000D01*
X137580000Y-97910000D02*
X137580000Y-103910000D01*
X126580000Y-103910000D02*
X126580000Y-97910000D01*
X126580000Y-97910000D02*
X128580000Y-97910000D01*
X127080000Y-112410000D02*
X126580000Y-112410000D01*
X126580000Y-112410000D02*
X126580000Y-106910000D01*
G04 #@! TO.C,RE4*
X149440000Y-112410000D02*
X149440000Y-106910000D01*
X149940000Y-112410000D02*
X149440000Y-112410000D01*
X149440000Y-97910000D02*
X151440000Y-97910000D01*
X149440000Y-103910000D02*
X149440000Y-97910000D01*
X160440000Y-97910000D02*
X160440000Y-103910000D01*
X158440000Y-97910000D02*
X160440000Y-97910000D01*
X160440000Y-112410000D02*
X159940000Y-112410000D01*
X160440000Y-106910000D02*
X160440000Y-112410000D01*
D12*
G04 #@! TO.C,SW1*
X84185000Y-57570000D02*
X88685000Y-57570000D01*
X82935000Y-53570000D02*
X82935000Y-55070000D01*
X88685000Y-51070000D02*
X84185000Y-51070000D01*
X89935000Y-55070000D02*
X89935000Y-53570000D01*
G04 #@! TO.C,TP1*
X133410000Y-82610000D02*
X133410000Y-79950000D01*
X110490000Y-82610000D02*
X133410000Y-82610000D01*
X110490000Y-79950000D02*
X133410000Y-79950000D01*
X110490000Y-82610000D02*
X110490000Y-79950000D01*
X109220000Y-82610000D02*
X107890000Y-82610000D01*
X107890000Y-82610000D02*
X107890000Y-81280000D01*
G04 #@! TO.C,TP2*
X133410000Y-57210000D02*
X133410000Y-54550000D01*
X110490000Y-57210000D02*
X133410000Y-57210000D01*
X110490000Y-54550000D02*
X133410000Y-54550000D01*
X110490000Y-57210000D02*
X110490000Y-54550000D01*
X109220000Y-57210000D02*
X107890000Y-57210000D01*
X107890000Y-57210000D02*
X107890000Y-55880000D01*
D11*
G04 #@! TO.C,U1*
X117200000Y-72330000D02*
X117200000Y-66355000D01*
X124100000Y-70805000D02*
X124100000Y-66355000D01*
D12*
G04 #@! TO.C,LED1*
X157077665Y-56958608D02*
G75*
G03X160310000Y-57115516I1672335J1078608D01*
G01*
X157077665Y-54801392D02*
G75*
G02X160310000Y-54644484I1672335J-1078608D01*
G01*
X157708870Y-56959837D02*
G75*
G03X159790961Y-56960000I1041130J1079837D01*
G01*
X157708870Y-54800163D02*
G75*
G02X159790961Y-54800000I1041130J-1079837D01*
G01*
X160310000Y-57116000D02*
X160310000Y-56960000D01*
X160310000Y-54800000D02*
X160310000Y-54644000D01*
G04 #@! TO.C,LED2*
X160310000Y-62420000D02*
X160310000Y-62264000D01*
X160310000Y-64736000D02*
X160310000Y-64580000D01*
X157708870Y-62420163D02*
G75*
G02X159790961Y-62420000I1041130J-1079837D01*
G01*
X157708870Y-64579837D02*
G75*
G03X159790961Y-64580000I1041130J1079837D01*
G01*
X157077665Y-62421392D02*
G75*
G02X160310000Y-62264484I1672335J-1078608D01*
G01*
X157077665Y-64578608D02*
G75*
G03X160310000Y-64735516I1672335J1078608D01*
G01*
G04 #@! TO.C,R1*
X145320000Y-54510000D02*
X145320000Y-54840000D01*
X151860000Y-54510000D02*
X145320000Y-54510000D01*
X151860000Y-54840000D02*
X151860000Y-54510000D01*
X145320000Y-57250000D02*
X145320000Y-56920000D01*
X151860000Y-57250000D02*
X145320000Y-57250000D01*
X151860000Y-56920000D02*
X151860000Y-57250000D01*
G04 #@! TO.C,R2*
X151860000Y-64540000D02*
X151860000Y-64870000D01*
X151860000Y-64870000D02*
X145320000Y-64870000D01*
X145320000Y-64870000D02*
X145320000Y-64540000D01*
X151860000Y-62460000D02*
X151860000Y-62130000D01*
X151860000Y-62130000D02*
X145320000Y-62130000D01*
X145320000Y-62130000D02*
X145320000Y-62460000D01*
G04 #@! TO.C,CN4*
X156150000Y-87690000D02*
X158810000Y-87690000D01*
X156150000Y-74930000D02*
X156150000Y-87690000D01*
X158810000Y-74930000D02*
X158810000Y-87690000D01*
X156150000Y-74930000D02*
X158810000Y-74930000D01*
X156150000Y-73660000D02*
X156150000Y-72330000D01*
X156150000Y-72330000D02*
X157480000Y-72330000D01*
G04 #@! TO.C,R3*
X92810000Y-65310000D02*
X92480000Y-65310000D01*
X92810000Y-71850000D02*
X92810000Y-65310000D01*
X92480000Y-71850000D02*
X92810000Y-71850000D01*
X90070000Y-65310000D02*
X90400000Y-65310000D01*
X90070000Y-71850000D02*
X90070000Y-65310000D01*
X90400000Y-71850000D02*
X90070000Y-71850000D01*
G04 #@! TO.C,R4*
X98020000Y-71850000D02*
X97690000Y-71850000D01*
X97690000Y-71850000D02*
X97690000Y-65310000D01*
X97690000Y-65310000D02*
X98020000Y-65310000D01*
X100100000Y-71850000D02*
X100430000Y-71850000D01*
X100430000Y-71850000D02*
X100430000Y-65310000D01*
X100430000Y-65310000D02*
X100100000Y-65310000D01*
G04 #@! TO.C,CN2*
X76140000Y-79950000D02*
X77470000Y-79950000D01*
X76140000Y-81280000D02*
X76140000Y-79950000D01*
X76140000Y-82550000D02*
X78800000Y-82550000D01*
X78800000Y-82550000D02*
X78800000Y-90230000D01*
X76140000Y-82550000D02*
X76140000Y-90230000D01*
X76140000Y-90230000D02*
X78800000Y-90230000D01*
G04 #@! TO.C,CN3*
X143450000Y-87690000D02*
X146110000Y-87690000D01*
X143450000Y-74930000D02*
X143450000Y-87690000D01*
X146110000Y-74930000D02*
X146110000Y-87690000D01*
X143450000Y-74930000D02*
X146110000Y-74930000D01*
X143450000Y-73660000D02*
X143450000Y-72330000D01*
X143450000Y-72330000D02*
X144780000Y-72330000D01*
G04 #@! TO.C,C2*
X98520000Y-82570000D02*
G75*
G03X98520000Y-82570000I-3270000J0D01*
G01*
X92020000Y-82570000D02*
X98480000Y-82570000D01*
X92020000Y-82530000D02*
X98480000Y-82530000D01*
X92020000Y-82490000D02*
X98480000Y-82490000D01*
X92022000Y-82450000D02*
X98478000Y-82450000D01*
X92023000Y-82410000D02*
X98477000Y-82410000D01*
X92026000Y-82370000D02*
X98474000Y-82370000D01*
X92028000Y-82330000D02*
X94210000Y-82330000D01*
X96290000Y-82330000D02*
X98472000Y-82330000D01*
X92032000Y-82290000D02*
X94210000Y-82290000D01*
X96290000Y-82290000D02*
X98468000Y-82290000D01*
X92035000Y-82250000D02*
X94210000Y-82250000D01*
X96290000Y-82250000D02*
X98465000Y-82250000D01*
X92039000Y-82210000D02*
X94210000Y-82210000D01*
X96290000Y-82210000D02*
X98461000Y-82210000D01*
X92044000Y-82170000D02*
X94210000Y-82170000D01*
X96290000Y-82170000D02*
X98456000Y-82170000D01*
X92049000Y-82130000D02*
X94210000Y-82130000D01*
X96290000Y-82130000D02*
X98451000Y-82130000D01*
X92055000Y-82090000D02*
X94210000Y-82090000D01*
X96290000Y-82090000D02*
X98445000Y-82090000D01*
X92061000Y-82050000D02*
X94210000Y-82050000D01*
X96290000Y-82050000D02*
X98439000Y-82050000D01*
X92068000Y-82010000D02*
X94210000Y-82010000D01*
X96290000Y-82010000D02*
X98432000Y-82010000D01*
X92075000Y-81970000D02*
X94210000Y-81970000D01*
X96290000Y-81970000D02*
X98425000Y-81970000D01*
X92083000Y-81930000D02*
X94210000Y-81930000D01*
X96290000Y-81930000D02*
X98417000Y-81930000D01*
X92091000Y-81890000D02*
X94210000Y-81890000D01*
X96290000Y-81890000D02*
X98409000Y-81890000D01*
X92100000Y-81849000D02*
X94210000Y-81849000D01*
X96290000Y-81849000D02*
X98400000Y-81849000D01*
X92109000Y-81809000D02*
X94210000Y-81809000D01*
X96290000Y-81809000D02*
X98391000Y-81809000D01*
X92119000Y-81769000D02*
X94210000Y-81769000D01*
X96290000Y-81769000D02*
X98381000Y-81769000D01*
X92129000Y-81729000D02*
X94210000Y-81729000D01*
X96290000Y-81729000D02*
X98371000Y-81729000D01*
X92140000Y-81689000D02*
X94210000Y-81689000D01*
X96290000Y-81689000D02*
X98360000Y-81689000D01*
X92152000Y-81649000D02*
X94210000Y-81649000D01*
X96290000Y-81649000D02*
X98348000Y-81649000D01*
X92164000Y-81609000D02*
X94210000Y-81609000D01*
X96290000Y-81609000D02*
X98336000Y-81609000D01*
X92176000Y-81569000D02*
X94210000Y-81569000D01*
X96290000Y-81569000D02*
X98324000Y-81569000D01*
X92189000Y-81529000D02*
X94210000Y-81529000D01*
X96290000Y-81529000D02*
X98311000Y-81529000D01*
X92203000Y-81489000D02*
X94210000Y-81489000D01*
X96290000Y-81489000D02*
X98297000Y-81489000D01*
X92217000Y-81449000D02*
X94210000Y-81449000D01*
X96290000Y-81449000D02*
X98283000Y-81449000D01*
X92232000Y-81409000D02*
X94210000Y-81409000D01*
X96290000Y-81409000D02*
X98268000Y-81409000D01*
X92248000Y-81369000D02*
X94210000Y-81369000D01*
X96290000Y-81369000D02*
X98252000Y-81369000D01*
X92264000Y-81329000D02*
X94210000Y-81329000D01*
X96290000Y-81329000D02*
X98236000Y-81329000D01*
X92280000Y-81289000D02*
X94210000Y-81289000D01*
X96290000Y-81289000D02*
X98220000Y-81289000D01*
X92298000Y-81249000D02*
X94210000Y-81249000D01*
X96290000Y-81249000D02*
X98202000Y-81249000D01*
X92316000Y-81209000D02*
X94210000Y-81209000D01*
X96290000Y-81209000D02*
X98184000Y-81209000D01*
X92334000Y-81169000D02*
X94210000Y-81169000D01*
X96290000Y-81169000D02*
X98166000Y-81169000D01*
X92354000Y-81129000D02*
X94210000Y-81129000D01*
X96290000Y-81129000D02*
X98146000Y-81129000D01*
X92374000Y-81089000D02*
X94210000Y-81089000D01*
X96290000Y-81089000D02*
X98126000Y-81089000D01*
X92394000Y-81049000D02*
X94210000Y-81049000D01*
X96290000Y-81049000D02*
X98106000Y-81049000D01*
X92416000Y-81009000D02*
X94210000Y-81009000D01*
X96290000Y-81009000D02*
X98084000Y-81009000D01*
X92438000Y-80969000D02*
X94210000Y-80969000D01*
X96290000Y-80969000D02*
X98062000Y-80969000D01*
X92460000Y-80929000D02*
X94210000Y-80929000D01*
X96290000Y-80929000D02*
X98040000Y-80929000D01*
X92484000Y-80889000D02*
X94210000Y-80889000D01*
X96290000Y-80889000D02*
X98016000Y-80889000D01*
X92508000Y-80849000D02*
X94210000Y-80849000D01*
X96290000Y-80849000D02*
X97992000Y-80849000D01*
X92534000Y-80809000D02*
X94210000Y-80809000D01*
X96290000Y-80809000D02*
X97966000Y-80809000D01*
X92560000Y-80769000D02*
X94210000Y-80769000D01*
X96290000Y-80769000D02*
X97940000Y-80769000D01*
X92586000Y-80729000D02*
X94210000Y-80729000D01*
X96290000Y-80729000D02*
X97914000Y-80729000D01*
X92614000Y-80689000D02*
X94210000Y-80689000D01*
X96290000Y-80689000D02*
X97886000Y-80689000D01*
X92643000Y-80649000D02*
X94210000Y-80649000D01*
X96290000Y-80649000D02*
X97857000Y-80649000D01*
X92672000Y-80609000D02*
X94210000Y-80609000D01*
X96290000Y-80609000D02*
X97828000Y-80609000D01*
X92702000Y-80569000D02*
X94210000Y-80569000D01*
X96290000Y-80569000D02*
X97798000Y-80569000D01*
X92734000Y-80529000D02*
X94210000Y-80529000D01*
X96290000Y-80529000D02*
X97766000Y-80529000D01*
X92766000Y-80489000D02*
X94210000Y-80489000D01*
X96290000Y-80489000D02*
X97734000Y-80489000D01*
X92800000Y-80449000D02*
X94210000Y-80449000D01*
X96290000Y-80449000D02*
X97700000Y-80449000D01*
X92834000Y-80409000D02*
X94210000Y-80409000D01*
X96290000Y-80409000D02*
X97666000Y-80409000D01*
X92870000Y-80369000D02*
X94210000Y-80369000D01*
X96290000Y-80369000D02*
X97630000Y-80369000D01*
X92907000Y-80329000D02*
X94210000Y-80329000D01*
X96290000Y-80329000D02*
X97593000Y-80329000D01*
X92945000Y-80289000D02*
X94210000Y-80289000D01*
X96290000Y-80289000D02*
X97555000Y-80289000D01*
X92985000Y-80249000D02*
X97515000Y-80249000D01*
X93026000Y-80209000D02*
X97474000Y-80209000D01*
X93068000Y-80169000D02*
X97432000Y-80169000D01*
X93113000Y-80129000D02*
X97387000Y-80129000D01*
X93158000Y-80089000D02*
X97342000Y-80089000D01*
X93206000Y-80049000D02*
X97294000Y-80049000D01*
X93255000Y-80009000D02*
X97245000Y-80009000D01*
X93306000Y-79969000D02*
X97194000Y-79969000D01*
X93360000Y-79929000D02*
X97140000Y-79929000D01*
X93416000Y-79889000D02*
X97084000Y-79889000D01*
X93474000Y-79849000D02*
X97026000Y-79849000D01*
X93536000Y-79809000D02*
X96964000Y-79809000D01*
X93600000Y-79769000D02*
X96900000Y-79769000D01*
X93669000Y-79729000D02*
X96831000Y-79729000D01*
X93741000Y-79689000D02*
X96759000Y-79689000D01*
X93818000Y-79649000D02*
X96682000Y-79649000D01*
X93900000Y-79609000D02*
X96600000Y-79609000D01*
X93988000Y-79569000D02*
X96512000Y-79569000D01*
X94085000Y-79529000D02*
X96415000Y-79529000D01*
X94191000Y-79489000D02*
X96309000Y-79489000D01*
X94310000Y-79449000D02*
X96190000Y-79449000D01*
X94448000Y-79409000D02*
X96052000Y-79409000D01*
X94617000Y-79369000D02*
X95883000Y-79369000D01*
X94848000Y-79329000D02*
X95652000Y-79329000D01*
X93411000Y-86070241D02*
X93411000Y-85440241D01*
X93096000Y-85755241D02*
X93726000Y-85755241D01*
G04 #@! TO.C,C1*
D11*
X109617142Y-68766666D02*
X109664761Y-68814285D01*
X109712380Y-68957142D01*
X109712380Y-69052380D01*
X109664761Y-69195238D01*
X109569523Y-69290476D01*
X109474285Y-69338095D01*
X109283809Y-69385714D01*
X109140952Y-69385714D01*
X108950476Y-69338095D01*
X108855238Y-69290476D01*
X108760000Y-69195238D01*
X108712380Y-69052380D01*
X108712380Y-68957142D01*
X108760000Y-68814285D01*
X108807619Y-68766666D01*
X109712380Y-67814285D02*
X109712380Y-68385714D01*
X109712380Y-68100000D02*
X108712380Y-68100000D01*
X108855238Y-68195238D01*
X108950476Y-68290476D01*
X108998095Y-68385714D01*
G04 #@! TO.C,CN1*
X77414523Y-62587142D02*
X77366904Y-62634761D01*
X77224047Y-62682380D01*
X77128809Y-62682380D01*
X76985952Y-62634761D01*
X76890714Y-62539523D01*
X76843095Y-62444285D01*
X76795476Y-62253809D01*
X76795476Y-62110952D01*
X76843095Y-61920476D01*
X76890714Y-61825238D01*
X76985952Y-61730000D01*
X77128809Y-61682380D01*
X77224047Y-61682380D01*
X77366904Y-61730000D01*
X77414523Y-61777619D01*
X77843095Y-62682380D02*
X77843095Y-61682380D01*
X78414523Y-62682380D01*
X78414523Y-61682380D01*
X79414523Y-62682380D02*
X78843095Y-62682380D01*
X79128809Y-62682380D02*
X79128809Y-61682380D01*
X79033571Y-61825238D01*
X78938333Y-61920476D01*
X78843095Y-61968095D01*
G04 #@! TO.C,RE1*
X85740952Y-95702380D02*
X85407619Y-95226190D01*
X85169523Y-95702380D02*
X85169523Y-94702380D01*
X85550476Y-94702380D01*
X85645714Y-94750000D01*
X85693333Y-94797619D01*
X85740952Y-94892857D01*
X85740952Y-95035714D01*
X85693333Y-95130952D01*
X85645714Y-95178571D01*
X85550476Y-95226190D01*
X85169523Y-95226190D01*
X86169523Y-95178571D02*
X86502857Y-95178571D01*
X86645714Y-95702380D02*
X86169523Y-95702380D01*
X86169523Y-94702380D01*
X86645714Y-94702380D01*
X87598095Y-95702380D02*
X87026666Y-95702380D01*
X87312380Y-95702380D02*
X87312380Y-94702380D01*
X87217142Y-94845238D01*
X87121904Y-94940476D01*
X87026666Y-94988095D01*
G04 #@! TO.C,RE2*
X108600952Y-95702380D02*
X108267619Y-95226190D01*
X108029523Y-95702380D02*
X108029523Y-94702380D01*
X108410476Y-94702380D01*
X108505714Y-94750000D01*
X108553333Y-94797619D01*
X108600952Y-94892857D01*
X108600952Y-95035714D01*
X108553333Y-95130952D01*
X108505714Y-95178571D01*
X108410476Y-95226190D01*
X108029523Y-95226190D01*
X109029523Y-95178571D02*
X109362857Y-95178571D01*
X109505714Y-95702380D02*
X109029523Y-95702380D01*
X109029523Y-94702380D01*
X109505714Y-94702380D01*
X109886666Y-94797619D02*
X109934285Y-94750000D01*
X110029523Y-94702380D01*
X110267619Y-94702380D01*
X110362857Y-94750000D01*
X110410476Y-94797619D01*
X110458095Y-94892857D01*
X110458095Y-94988095D01*
X110410476Y-95130952D01*
X109839047Y-95702380D01*
X110458095Y-95702380D01*
G04 #@! TO.C,RE3*
X131460952Y-95702380D02*
X131127619Y-95226190D01*
X130889523Y-95702380D02*
X130889523Y-94702380D01*
X131270476Y-94702380D01*
X131365714Y-94750000D01*
X131413333Y-94797619D01*
X131460952Y-94892857D01*
X131460952Y-95035714D01*
X131413333Y-95130952D01*
X131365714Y-95178571D01*
X131270476Y-95226190D01*
X130889523Y-95226190D01*
X131889523Y-95178571D02*
X132222857Y-95178571D01*
X132365714Y-95702380D02*
X131889523Y-95702380D01*
X131889523Y-94702380D01*
X132365714Y-94702380D01*
X132699047Y-94702380D02*
X133318095Y-94702380D01*
X132984761Y-95083333D01*
X133127619Y-95083333D01*
X133222857Y-95130952D01*
X133270476Y-95178571D01*
X133318095Y-95273809D01*
X133318095Y-95511904D01*
X133270476Y-95607142D01*
X133222857Y-95654761D01*
X133127619Y-95702380D01*
X132841904Y-95702380D01*
X132746666Y-95654761D01*
X132699047Y-95607142D01*
G04 #@! TO.C,RE4*
X154320952Y-95702380D02*
X153987619Y-95226190D01*
X153749523Y-95702380D02*
X153749523Y-94702380D01*
X154130476Y-94702380D01*
X154225714Y-94750000D01*
X154273333Y-94797619D01*
X154320952Y-94892857D01*
X154320952Y-95035714D01*
X154273333Y-95130952D01*
X154225714Y-95178571D01*
X154130476Y-95226190D01*
X153749523Y-95226190D01*
X154749523Y-95178571D02*
X155082857Y-95178571D01*
X155225714Y-95702380D02*
X154749523Y-95702380D01*
X154749523Y-94702380D01*
X155225714Y-94702380D01*
X156082857Y-95035714D02*
X156082857Y-95702380D01*
X155844761Y-94654761D02*
X155606666Y-95369047D01*
X156225714Y-95369047D01*
G04 #@! TO.C,SW1*
X85101666Y-50474761D02*
X85244523Y-50522380D01*
X85482619Y-50522380D01*
X85577857Y-50474761D01*
X85625476Y-50427142D01*
X85673095Y-50331904D01*
X85673095Y-50236666D01*
X85625476Y-50141428D01*
X85577857Y-50093809D01*
X85482619Y-50046190D01*
X85292142Y-49998571D01*
X85196904Y-49950952D01*
X85149285Y-49903333D01*
X85101666Y-49808095D01*
X85101666Y-49712857D01*
X85149285Y-49617619D01*
X85196904Y-49570000D01*
X85292142Y-49522380D01*
X85530238Y-49522380D01*
X85673095Y-49570000D01*
X86006428Y-49522380D02*
X86244523Y-50522380D01*
X86435000Y-49808095D01*
X86625476Y-50522380D01*
X86863571Y-49522380D01*
X87768333Y-50522380D02*
X87196904Y-50522380D01*
X87482619Y-50522380D02*
X87482619Y-49522380D01*
X87387380Y-49665238D01*
X87292142Y-49760476D01*
X87196904Y-49808095D01*
G04 #@! TO.C,TP1*
X106132380Y-82541904D02*
X106132380Y-81970476D01*
X107132380Y-82256190D02*
X106132380Y-82256190D01*
X107132380Y-81637142D02*
X106132380Y-81637142D01*
X106132380Y-81256190D01*
X106180000Y-81160952D01*
X106227619Y-81113333D01*
X106322857Y-81065714D01*
X106465714Y-81065714D01*
X106560952Y-81113333D01*
X106608571Y-81160952D01*
X106656190Y-81256190D01*
X106656190Y-81637142D01*
X107132380Y-80113333D02*
X107132380Y-80684761D01*
X107132380Y-80399047D02*
X106132380Y-80399047D01*
X106275238Y-80494285D01*
X106370476Y-80589523D01*
X106418095Y-80684761D01*
G04 #@! TO.C,TP2*
X106132380Y-57141904D02*
X106132380Y-56570476D01*
X107132380Y-56856190D02*
X106132380Y-56856190D01*
X107132380Y-56237142D02*
X106132380Y-56237142D01*
X106132380Y-55856190D01*
X106180000Y-55760952D01*
X106227619Y-55713333D01*
X106322857Y-55665714D01*
X106465714Y-55665714D01*
X106560952Y-55713333D01*
X106608571Y-55760952D01*
X106656190Y-55856190D01*
X106656190Y-56237142D01*
X106227619Y-55284761D02*
X106180000Y-55237142D01*
X106132380Y-55141904D01*
X106132380Y-54903809D01*
X106180000Y-54808571D01*
X106227619Y-54760952D01*
X106322857Y-54713333D01*
X106418095Y-54713333D01*
X106560952Y-54760952D01*
X107132380Y-55332380D01*
X107132380Y-54713333D01*
G04 #@! TO.C,U1*
X115802380Y-69341904D02*
X116611904Y-69341904D01*
X116707142Y-69294285D01*
X116754761Y-69246666D01*
X116802380Y-69151428D01*
X116802380Y-68960952D01*
X116754761Y-68865714D01*
X116707142Y-68818095D01*
X116611904Y-68770476D01*
X115802380Y-68770476D01*
X116802380Y-67770476D02*
X116802380Y-68341904D01*
X116802380Y-68056190D02*
X115802380Y-68056190D01*
X115945238Y-68151428D01*
X116040476Y-68246666D01*
X116088095Y-68341904D01*
G04 #@! TO.C,LED1*
X157630952Y-53284380D02*
X157154761Y-53284380D01*
X157154761Y-52284380D01*
X157964285Y-52760571D02*
X158297619Y-52760571D01*
X158440476Y-53284380D02*
X157964285Y-53284380D01*
X157964285Y-52284380D01*
X158440476Y-52284380D01*
X158869047Y-53284380D02*
X158869047Y-52284380D01*
X159107142Y-52284380D01*
X159250000Y-52332000D01*
X159345238Y-52427238D01*
X159392857Y-52522476D01*
X159440476Y-52712952D01*
X159440476Y-52855809D01*
X159392857Y-53046285D01*
X159345238Y-53141523D01*
X159250000Y-53236761D01*
X159107142Y-53284380D01*
X158869047Y-53284380D01*
X160392857Y-53284380D02*
X159821428Y-53284380D01*
X160107142Y-53284380D02*
X160107142Y-52284380D01*
X160011904Y-52427238D01*
X159916666Y-52522476D01*
X159821428Y-52570095D01*
G04 #@! TO.C,LED2*
X157630952Y-60904380D02*
X157154761Y-60904380D01*
X157154761Y-59904380D01*
X157964285Y-60380571D02*
X158297619Y-60380571D01*
X158440476Y-60904380D02*
X157964285Y-60904380D01*
X157964285Y-59904380D01*
X158440476Y-59904380D01*
X158869047Y-60904380D02*
X158869047Y-59904380D01*
X159107142Y-59904380D01*
X159250000Y-59952000D01*
X159345238Y-60047238D01*
X159392857Y-60142476D01*
X159440476Y-60332952D01*
X159440476Y-60475809D01*
X159392857Y-60666285D01*
X159345238Y-60761523D01*
X159250000Y-60856761D01*
X159107142Y-60904380D01*
X158869047Y-60904380D01*
X159821428Y-59999619D02*
X159869047Y-59952000D01*
X159964285Y-59904380D01*
X160202380Y-59904380D01*
X160297619Y-59952000D01*
X160345238Y-59999619D01*
X160392857Y-60094857D01*
X160392857Y-60190095D01*
X160345238Y-60332952D01*
X159773809Y-60904380D01*
X160392857Y-60904380D01*
G04 #@! TO.C,R1*
X148423333Y-53792380D02*
X148090000Y-53316190D01*
X147851904Y-53792380D02*
X147851904Y-52792380D01*
X148232857Y-52792380D01*
X148328095Y-52840000D01*
X148375714Y-52887619D01*
X148423333Y-52982857D01*
X148423333Y-53125714D01*
X148375714Y-53220952D01*
X148328095Y-53268571D01*
X148232857Y-53316190D01*
X147851904Y-53316190D01*
X149375714Y-53792380D02*
X148804285Y-53792380D01*
X149090000Y-53792380D02*
X149090000Y-52792380D01*
X148994761Y-52935238D01*
X148899523Y-53030476D01*
X148804285Y-53078095D01*
G04 #@! TO.C,R2*
X148423333Y-61412380D02*
X148090000Y-60936190D01*
X147851904Y-61412380D02*
X147851904Y-60412380D01*
X148232857Y-60412380D01*
X148328095Y-60460000D01*
X148375714Y-60507619D01*
X148423333Y-60602857D01*
X148423333Y-60745714D01*
X148375714Y-60840952D01*
X148328095Y-60888571D01*
X148232857Y-60936190D01*
X147851904Y-60936190D01*
X148804285Y-60507619D02*
X148851904Y-60460000D01*
X148947142Y-60412380D01*
X149185238Y-60412380D01*
X149280476Y-60460000D01*
X149328095Y-60507619D01*
X149375714Y-60602857D01*
X149375714Y-60698095D01*
X149328095Y-60840952D01*
X148756666Y-61412380D01*
X149375714Y-61412380D01*
G04 #@! TO.C,CN4*
X156789523Y-71687142D02*
X156741904Y-71734761D01*
X156599047Y-71782380D01*
X156503809Y-71782380D01*
X156360952Y-71734761D01*
X156265714Y-71639523D01*
X156218095Y-71544285D01*
X156170476Y-71353809D01*
X156170476Y-71210952D01*
X156218095Y-71020476D01*
X156265714Y-70925238D01*
X156360952Y-70830000D01*
X156503809Y-70782380D01*
X156599047Y-70782380D01*
X156741904Y-70830000D01*
X156789523Y-70877619D01*
X157218095Y-71782380D02*
X157218095Y-70782380D01*
X157789523Y-71782380D01*
X157789523Y-70782380D01*
X158694285Y-71115714D02*
X158694285Y-71782380D01*
X158456190Y-70734761D02*
X158218095Y-71449047D01*
X158837142Y-71449047D01*
G04 #@! TO.C,R3*
X89522380Y-68746666D02*
X89046190Y-69080000D01*
X89522380Y-69318095D02*
X88522380Y-69318095D01*
X88522380Y-68937142D01*
X88570000Y-68841904D01*
X88617619Y-68794285D01*
X88712857Y-68746666D01*
X88855714Y-68746666D01*
X88950952Y-68794285D01*
X88998571Y-68841904D01*
X89046190Y-68937142D01*
X89046190Y-69318095D01*
X88522380Y-68413333D02*
X88522380Y-67794285D01*
X88903333Y-68127619D01*
X88903333Y-67984761D01*
X88950952Y-67889523D01*
X88998571Y-67841904D01*
X89093809Y-67794285D01*
X89331904Y-67794285D01*
X89427142Y-67841904D01*
X89474761Y-67889523D01*
X89522380Y-67984761D01*
X89522380Y-68270476D01*
X89474761Y-68365714D01*
X89427142Y-68413333D01*
G04 #@! TO.C,R4*
X97142380Y-68746666D02*
X96666190Y-69080000D01*
X97142380Y-69318095D02*
X96142380Y-69318095D01*
X96142380Y-68937142D01*
X96190000Y-68841904D01*
X96237619Y-68794285D01*
X96332857Y-68746666D01*
X96475714Y-68746666D01*
X96570952Y-68794285D01*
X96618571Y-68841904D01*
X96666190Y-68937142D01*
X96666190Y-69318095D01*
X96475714Y-67889523D02*
X97142380Y-67889523D01*
X96094761Y-68127619D02*
X96809047Y-68365714D01*
X96809047Y-67746666D01*
G04 #@! TO.C,CN2*
X76779523Y-79307142D02*
X76731904Y-79354761D01*
X76589047Y-79402380D01*
X76493809Y-79402380D01*
X76350952Y-79354761D01*
X76255714Y-79259523D01*
X76208095Y-79164285D01*
X76160476Y-78973809D01*
X76160476Y-78830952D01*
X76208095Y-78640476D01*
X76255714Y-78545238D01*
X76350952Y-78450000D01*
X76493809Y-78402380D01*
X76589047Y-78402380D01*
X76731904Y-78450000D01*
X76779523Y-78497619D01*
X77208095Y-79402380D02*
X77208095Y-78402380D01*
X77779523Y-79402380D01*
X77779523Y-78402380D01*
X78208095Y-78497619D02*
X78255714Y-78450000D01*
X78350952Y-78402380D01*
X78589047Y-78402380D01*
X78684285Y-78450000D01*
X78731904Y-78497619D01*
X78779523Y-78592857D01*
X78779523Y-78688095D01*
X78731904Y-78830952D01*
X78160476Y-79402380D01*
X78779523Y-79402380D01*
G04 #@! TO.C,CN3*
X144089523Y-71687142D02*
X144041904Y-71734761D01*
X143899047Y-71782380D01*
X143803809Y-71782380D01*
X143660952Y-71734761D01*
X143565714Y-71639523D01*
X143518095Y-71544285D01*
X143470476Y-71353809D01*
X143470476Y-71210952D01*
X143518095Y-71020476D01*
X143565714Y-70925238D01*
X143660952Y-70830000D01*
X143803809Y-70782380D01*
X143899047Y-70782380D01*
X144041904Y-70830000D01*
X144089523Y-70877619D01*
X144518095Y-71782380D02*
X144518095Y-70782380D01*
X145089523Y-71782380D01*
X145089523Y-70782380D01*
X145470476Y-70782380D02*
X146089523Y-70782380D01*
X145756190Y-71163333D01*
X145899047Y-71163333D01*
X145994285Y-71210952D01*
X146041904Y-71258571D01*
X146089523Y-71353809D01*
X146089523Y-71591904D01*
X146041904Y-71687142D01*
X145994285Y-71734761D01*
X145899047Y-71782380D01*
X145613333Y-71782380D01*
X145518095Y-71734761D01*
X145470476Y-71687142D01*
G04 #@! TO.C,C2*
X91207142Y-82736666D02*
X91254761Y-82784285D01*
X91302380Y-82927142D01*
X91302380Y-83022380D01*
X91254761Y-83165238D01*
X91159523Y-83260476D01*
X91064285Y-83308095D01*
X90873809Y-83355714D01*
X90730952Y-83355714D01*
X90540476Y-83308095D01*
X90445238Y-83260476D01*
X90350000Y-83165238D01*
X90302380Y-83022380D01*
X90302380Y-82927142D01*
X90350000Y-82784285D01*
X90397619Y-82736666D01*
X90397619Y-82355714D02*
X90350000Y-82308095D01*
X90302380Y-82212857D01*
X90302380Y-81974761D01*
X90350000Y-81879523D01*
X90397619Y-81831904D01*
X90492857Y-81784285D01*
X90588095Y-81784285D01*
X90730952Y-81831904D01*
X91302380Y-82403333D01*
X91302380Y-81784285D01*
G04 #@! TD*
M02*
