G04 #@! TF.GenerationSoftware,KiCad,Pcbnew,(5.0.2)-1*
G04 #@! TF.CreationDate,2022-01-15T23:06:10+09:00*
G04 #@! TF.ProjectId,Valve,56616c76-652e-46b6-9963-61645f706362,rev?*
G04 #@! TF.SameCoordinates,Original*
G04 #@! TF.FileFunction,Soldermask,Bot*
G04 #@! TF.FilePolarity,Negative*
%FSLAX46Y46*%
G04 Gerber Fmt 4.6, Leading zero omitted, Abs format (unit mm)*
G04 Created by KiCad (PCBNEW (5.0.2)-1) date 2022/01/15 23:06:10*
%MOMM*%
%LPD*%
G01*
G04 APERTURE LIST*
%ADD10C,0.100000*%
G04 APERTURE END LIST*
D10*
G36*
X165475256Y-115231298D02*
X165581579Y-115252447D01*
X165882042Y-115376903D01*
X166148852Y-115555180D01*
X166152454Y-115557587D01*
X166382413Y-115787546D01*
X166563098Y-116057960D01*
X166687553Y-116358422D01*
X166751000Y-116677389D01*
X166751000Y-117002611D01*
X166687553Y-117321578D01*
X166563098Y-117622040D01*
X166382413Y-117892454D01*
X166152454Y-118122413D01*
X166152451Y-118122415D01*
X165882042Y-118303097D01*
X165581579Y-118427553D01*
X165475256Y-118448702D01*
X165262611Y-118491000D01*
X164937389Y-118491000D01*
X164724744Y-118448702D01*
X164618421Y-118427553D01*
X164317958Y-118303097D01*
X164047549Y-118122415D01*
X164047546Y-118122413D01*
X163817587Y-117892454D01*
X163636902Y-117622040D01*
X163512447Y-117321578D01*
X163449000Y-117002611D01*
X163449000Y-116677389D01*
X163512447Y-116358422D01*
X163636902Y-116057960D01*
X163817587Y-115787546D01*
X164047546Y-115557587D01*
X164051148Y-115555180D01*
X164317958Y-115376903D01*
X164618421Y-115252447D01*
X164724744Y-115231298D01*
X164937389Y-115189000D01*
X165262611Y-115189000D01*
X165475256Y-115231298D01*
X165475256Y-115231298D01*
G37*
G36*
X76575256Y-115231298D02*
X76681579Y-115252447D01*
X76982042Y-115376903D01*
X77248852Y-115555180D01*
X77252454Y-115557587D01*
X77482413Y-115787546D01*
X77663098Y-116057960D01*
X77787553Y-116358422D01*
X77851000Y-116677389D01*
X77851000Y-117002611D01*
X77787553Y-117321578D01*
X77663098Y-117622040D01*
X77482413Y-117892454D01*
X77252454Y-118122413D01*
X77252451Y-118122415D01*
X76982042Y-118303097D01*
X76681579Y-118427553D01*
X76575256Y-118448702D01*
X76362611Y-118491000D01*
X76037389Y-118491000D01*
X75824744Y-118448702D01*
X75718421Y-118427553D01*
X75417958Y-118303097D01*
X75147549Y-118122415D01*
X75147546Y-118122413D01*
X74917587Y-117892454D01*
X74736902Y-117622040D01*
X74612447Y-117321578D01*
X74549000Y-117002611D01*
X74549000Y-116677389D01*
X74612447Y-116358422D01*
X74736902Y-116057960D01*
X74917587Y-115787546D01*
X75147546Y-115557587D01*
X75151148Y-115555180D01*
X75417958Y-115376903D01*
X75718421Y-115252447D01*
X75824744Y-115231298D01*
X76037389Y-115189000D01*
X76362611Y-115189000D01*
X76575256Y-115231298D01*
X76575256Y-115231298D01*
G37*
G36*
X111457142Y-111628242D02*
X111605102Y-111689530D01*
X111738258Y-111778502D01*
X111851498Y-111891742D01*
X111940470Y-112024898D01*
X112001758Y-112172858D01*
X112033000Y-112329925D01*
X112033000Y-112490075D01*
X112001758Y-112647142D01*
X111940470Y-112795102D01*
X111851498Y-112928258D01*
X111738258Y-113041498D01*
X111605102Y-113130470D01*
X111457142Y-113191758D01*
X111300075Y-113223000D01*
X111139925Y-113223000D01*
X110982858Y-113191758D01*
X110834898Y-113130470D01*
X110701742Y-113041498D01*
X110588502Y-112928258D01*
X110499530Y-112795102D01*
X110438242Y-112647142D01*
X110407000Y-112490075D01*
X110407000Y-112329925D01*
X110438242Y-112172858D01*
X110499530Y-112024898D01*
X110588502Y-111891742D01*
X110701742Y-111778502D01*
X110834898Y-111689530D01*
X110982858Y-111628242D01*
X111139925Y-111597000D01*
X111300075Y-111597000D01*
X111457142Y-111628242D01*
X111457142Y-111628242D01*
G37*
G36*
X151177142Y-111628242D02*
X151325102Y-111689530D01*
X151458258Y-111778502D01*
X151571498Y-111891742D01*
X151660470Y-112024898D01*
X151721758Y-112172858D01*
X151753000Y-112329925D01*
X151753000Y-112490075D01*
X151721758Y-112647142D01*
X151660470Y-112795102D01*
X151571498Y-112928258D01*
X151458258Y-113041498D01*
X151325102Y-113130470D01*
X151177142Y-113191758D01*
X151020075Y-113223000D01*
X150859925Y-113223000D01*
X150702858Y-113191758D01*
X150554898Y-113130470D01*
X150421742Y-113041498D01*
X150308502Y-112928258D01*
X150219530Y-112795102D01*
X150158242Y-112647142D01*
X150127000Y-112490075D01*
X150127000Y-112329925D01*
X150158242Y-112172858D01*
X150219530Y-112024898D01*
X150308502Y-111891742D01*
X150421742Y-111778502D01*
X150554898Y-111689530D01*
X150702858Y-111628242D01*
X150859925Y-111597000D01*
X151020075Y-111597000D01*
X151177142Y-111628242D01*
X151177142Y-111628242D01*
G37*
G36*
X157177142Y-111628242D02*
X157325102Y-111689530D01*
X157458258Y-111778502D01*
X157571498Y-111891742D01*
X157660470Y-112024898D01*
X157721758Y-112172858D01*
X157753000Y-112329925D01*
X157753000Y-112490075D01*
X157721758Y-112647142D01*
X157660470Y-112795102D01*
X157571498Y-112928258D01*
X157458258Y-113041498D01*
X157325102Y-113130470D01*
X157177142Y-113191758D01*
X157020075Y-113223000D01*
X156859925Y-113223000D01*
X156702858Y-113191758D01*
X156554898Y-113130470D01*
X156421742Y-113041498D01*
X156308502Y-112928258D01*
X156219530Y-112795102D01*
X156158242Y-112647142D01*
X156127000Y-112490075D01*
X156127000Y-112329925D01*
X156158242Y-112172858D01*
X156219530Y-112024898D01*
X156308502Y-111891742D01*
X156421742Y-111778502D01*
X156554898Y-111689530D01*
X156702858Y-111628242D01*
X156859925Y-111597000D01*
X157020075Y-111597000D01*
X157177142Y-111628242D01*
X157177142Y-111628242D01*
G37*
G36*
X128317142Y-111628242D02*
X128465102Y-111689530D01*
X128598258Y-111778502D01*
X128711498Y-111891742D01*
X128800470Y-112024898D01*
X128861758Y-112172858D01*
X128893000Y-112329925D01*
X128893000Y-112490075D01*
X128861758Y-112647142D01*
X128800470Y-112795102D01*
X128711498Y-112928258D01*
X128598258Y-113041498D01*
X128465102Y-113130470D01*
X128317142Y-113191758D01*
X128160075Y-113223000D01*
X127999925Y-113223000D01*
X127842858Y-113191758D01*
X127694898Y-113130470D01*
X127561742Y-113041498D01*
X127448502Y-112928258D01*
X127359530Y-112795102D01*
X127298242Y-112647142D01*
X127267000Y-112490075D01*
X127267000Y-112329925D01*
X127298242Y-112172858D01*
X127359530Y-112024898D01*
X127448502Y-111891742D01*
X127561742Y-111778502D01*
X127694898Y-111689530D01*
X127842858Y-111628242D01*
X127999925Y-111597000D01*
X128160075Y-111597000D01*
X128317142Y-111628242D01*
X128317142Y-111628242D01*
G37*
G36*
X130317142Y-111628242D02*
X130465102Y-111689530D01*
X130598258Y-111778502D01*
X130711498Y-111891742D01*
X130800470Y-112024898D01*
X130861758Y-112172858D01*
X130893000Y-112329925D01*
X130893000Y-112490075D01*
X130861758Y-112647142D01*
X130800470Y-112795102D01*
X130711498Y-112928258D01*
X130598258Y-113041498D01*
X130465102Y-113130470D01*
X130317142Y-113191758D01*
X130160075Y-113223000D01*
X129999925Y-113223000D01*
X129842858Y-113191758D01*
X129694898Y-113130470D01*
X129561742Y-113041498D01*
X129448502Y-112928258D01*
X129359530Y-112795102D01*
X129298242Y-112647142D01*
X129267000Y-112490075D01*
X129267000Y-112329925D01*
X129298242Y-112172858D01*
X129359530Y-112024898D01*
X129448502Y-111891742D01*
X129561742Y-111778502D01*
X129694898Y-111689530D01*
X129842858Y-111628242D01*
X129999925Y-111597000D01*
X130160075Y-111597000D01*
X130317142Y-111628242D01*
X130317142Y-111628242D01*
G37*
G36*
X132317142Y-111628242D02*
X132465102Y-111689530D01*
X132598258Y-111778502D01*
X132711498Y-111891742D01*
X132800470Y-112024898D01*
X132861758Y-112172858D01*
X132893000Y-112329925D01*
X132893000Y-112490075D01*
X132861758Y-112647142D01*
X132800470Y-112795102D01*
X132711498Y-112928258D01*
X132598258Y-113041498D01*
X132465102Y-113130470D01*
X132317142Y-113191758D01*
X132160075Y-113223000D01*
X131999925Y-113223000D01*
X131842858Y-113191758D01*
X131694898Y-113130470D01*
X131561742Y-113041498D01*
X131448502Y-112928258D01*
X131359530Y-112795102D01*
X131298242Y-112647142D01*
X131267000Y-112490075D01*
X131267000Y-112329925D01*
X131298242Y-112172858D01*
X131359530Y-112024898D01*
X131448502Y-111891742D01*
X131561742Y-111778502D01*
X131694898Y-111689530D01*
X131842858Y-111628242D01*
X131999925Y-111597000D01*
X132160075Y-111597000D01*
X132317142Y-111628242D01*
X132317142Y-111628242D01*
G37*
G36*
X134317142Y-111628242D02*
X134465102Y-111689530D01*
X134598258Y-111778502D01*
X134711498Y-111891742D01*
X134800470Y-112024898D01*
X134861758Y-112172858D01*
X134893000Y-112329925D01*
X134893000Y-112490075D01*
X134861758Y-112647142D01*
X134800470Y-112795102D01*
X134711498Y-112928258D01*
X134598258Y-113041498D01*
X134465102Y-113130470D01*
X134317142Y-113191758D01*
X134160075Y-113223000D01*
X133999925Y-113223000D01*
X133842858Y-113191758D01*
X133694898Y-113130470D01*
X133561742Y-113041498D01*
X133448502Y-112928258D01*
X133359530Y-112795102D01*
X133298242Y-112647142D01*
X133267000Y-112490075D01*
X133267000Y-112329925D01*
X133298242Y-112172858D01*
X133359530Y-112024898D01*
X133448502Y-111891742D01*
X133561742Y-111778502D01*
X133694898Y-111689530D01*
X133842858Y-111628242D01*
X133999925Y-111597000D01*
X134160075Y-111597000D01*
X134317142Y-111628242D01*
X134317142Y-111628242D01*
G37*
G36*
X136317142Y-111628242D02*
X136465102Y-111689530D01*
X136598258Y-111778502D01*
X136711498Y-111891742D01*
X136800470Y-112024898D01*
X136861758Y-112172858D01*
X136893000Y-112329925D01*
X136893000Y-112490075D01*
X136861758Y-112647142D01*
X136800470Y-112795102D01*
X136711498Y-112928258D01*
X136598258Y-113041498D01*
X136465102Y-113130470D01*
X136317142Y-113191758D01*
X136160075Y-113223000D01*
X135999925Y-113223000D01*
X135842858Y-113191758D01*
X135694898Y-113130470D01*
X135561742Y-113041498D01*
X135448502Y-112928258D01*
X135359530Y-112795102D01*
X135298242Y-112647142D01*
X135267000Y-112490075D01*
X135267000Y-112329925D01*
X135298242Y-112172858D01*
X135359530Y-112024898D01*
X135448502Y-111891742D01*
X135561742Y-111778502D01*
X135694898Y-111689530D01*
X135842858Y-111628242D01*
X135999925Y-111597000D01*
X136160075Y-111597000D01*
X136317142Y-111628242D01*
X136317142Y-111628242D01*
G37*
G36*
X153177142Y-111628242D02*
X153325102Y-111689530D01*
X153458258Y-111778502D01*
X153571498Y-111891742D01*
X153660470Y-112024898D01*
X153721758Y-112172858D01*
X153753000Y-112329925D01*
X153753000Y-112490075D01*
X153721758Y-112647142D01*
X153660470Y-112795102D01*
X153571498Y-112928258D01*
X153458258Y-113041498D01*
X153325102Y-113130470D01*
X153177142Y-113191758D01*
X153020075Y-113223000D01*
X152859925Y-113223000D01*
X152702858Y-113191758D01*
X152554898Y-113130470D01*
X152421742Y-113041498D01*
X152308502Y-112928258D01*
X152219530Y-112795102D01*
X152158242Y-112647142D01*
X152127000Y-112490075D01*
X152127000Y-112329925D01*
X152158242Y-112172858D01*
X152219530Y-112024898D01*
X152308502Y-111891742D01*
X152421742Y-111778502D01*
X152554898Y-111689530D01*
X152702858Y-111628242D01*
X152859925Y-111597000D01*
X153020075Y-111597000D01*
X153177142Y-111628242D01*
X153177142Y-111628242D01*
G37*
G36*
X109457142Y-111628242D02*
X109605102Y-111689530D01*
X109738258Y-111778502D01*
X109851498Y-111891742D01*
X109940470Y-112024898D01*
X110001758Y-112172858D01*
X110033000Y-112329925D01*
X110033000Y-112490075D01*
X110001758Y-112647142D01*
X109940470Y-112795102D01*
X109851498Y-112928258D01*
X109738258Y-113041498D01*
X109605102Y-113130470D01*
X109457142Y-113191758D01*
X109300075Y-113223000D01*
X109139925Y-113223000D01*
X108982858Y-113191758D01*
X108834898Y-113130470D01*
X108701742Y-113041498D01*
X108588502Y-112928258D01*
X108499530Y-112795102D01*
X108438242Y-112647142D01*
X108407000Y-112490075D01*
X108407000Y-112329925D01*
X108438242Y-112172858D01*
X108499530Y-112024898D01*
X108588502Y-111891742D01*
X108701742Y-111778502D01*
X108834898Y-111689530D01*
X108982858Y-111628242D01*
X109139925Y-111597000D01*
X109300075Y-111597000D01*
X109457142Y-111628242D01*
X109457142Y-111628242D01*
G37*
G36*
X107457142Y-111628242D02*
X107605102Y-111689530D01*
X107738258Y-111778502D01*
X107851498Y-111891742D01*
X107940470Y-112024898D01*
X108001758Y-112172858D01*
X108033000Y-112329925D01*
X108033000Y-112490075D01*
X108001758Y-112647142D01*
X107940470Y-112795102D01*
X107851498Y-112928258D01*
X107738258Y-113041498D01*
X107605102Y-113130470D01*
X107457142Y-113191758D01*
X107300075Y-113223000D01*
X107139925Y-113223000D01*
X106982858Y-113191758D01*
X106834898Y-113130470D01*
X106701742Y-113041498D01*
X106588502Y-112928258D01*
X106499530Y-112795102D01*
X106438242Y-112647142D01*
X106407000Y-112490075D01*
X106407000Y-112329925D01*
X106438242Y-112172858D01*
X106499530Y-112024898D01*
X106588502Y-111891742D01*
X106701742Y-111778502D01*
X106834898Y-111689530D01*
X106982858Y-111628242D01*
X107139925Y-111597000D01*
X107300075Y-111597000D01*
X107457142Y-111628242D01*
X107457142Y-111628242D01*
G37*
G36*
X105457142Y-111628242D02*
X105605102Y-111689530D01*
X105738258Y-111778502D01*
X105851498Y-111891742D01*
X105940470Y-112024898D01*
X106001758Y-112172858D01*
X106033000Y-112329925D01*
X106033000Y-112490075D01*
X106001758Y-112647142D01*
X105940470Y-112795102D01*
X105851498Y-112928258D01*
X105738258Y-113041498D01*
X105605102Y-113130470D01*
X105457142Y-113191758D01*
X105300075Y-113223000D01*
X105139925Y-113223000D01*
X104982858Y-113191758D01*
X104834898Y-113130470D01*
X104701742Y-113041498D01*
X104588502Y-112928258D01*
X104499530Y-112795102D01*
X104438242Y-112647142D01*
X104407000Y-112490075D01*
X104407000Y-112329925D01*
X104438242Y-112172858D01*
X104499530Y-112024898D01*
X104588502Y-111891742D01*
X104701742Y-111778502D01*
X104834898Y-111689530D01*
X104982858Y-111628242D01*
X105139925Y-111597000D01*
X105300075Y-111597000D01*
X105457142Y-111628242D01*
X105457142Y-111628242D01*
G37*
G36*
X159177142Y-111628242D02*
X159325102Y-111689530D01*
X159458258Y-111778502D01*
X159571498Y-111891742D01*
X159660470Y-112024898D01*
X159721758Y-112172858D01*
X159753000Y-112329925D01*
X159753000Y-112490075D01*
X159721758Y-112647142D01*
X159660470Y-112795102D01*
X159571498Y-112928258D01*
X159458258Y-113041498D01*
X159325102Y-113130470D01*
X159177142Y-113191758D01*
X159020075Y-113223000D01*
X158859925Y-113223000D01*
X158702858Y-113191758D01*
X158554898Y-113130470D01*
X158421742Y-113041498D01*
X158308502Y-112928258D01*
X158219530Y-112795102D01*
X158158242Y-112647142D01*
X158127000Y-112490075D01*
X158127000Y-112329925D01*
X158158242Y-112172858D01*
X158219530Y-112024898D01*
X158308502Y-111891742D01*
X158421742Y-111778502D01*
X158554898Y-111689530D01*
X158702858Y-111628242D01*
X158859925Y-111597000D01*
X159020075Y-111597000D01*
X159177142Y-111628242D01*
X159177142Y-111628242D01*
G37*
G36*
X90597142Y-111628242D02*
X90745102Y-111689530D01*
X90878258Y-111778502D01*
X90991498Y-111891742D01*
X91080470Y-112024898D01*
X91141758Y-112172858D01*
X91173000Y-112329925D01*
X91173000Y-112490075D01*
X91141758Y-112647142D01*
X91080470Y-112795102D01*
X90991498Y-112928258D01*
X90878258Y-113041498D01*
X90745102Y-113130470D01*
X90597142Y-113191758D01*
X90440075Y-113223000D01*
X90279925Y-113223000D01*
X90122858Y-113191758D01*
X89974898Y-113130470D01*
X89841742Y-113041498D01*
X89728502Y-112928258D01*
X89639530Y-112795102D01*
X89578242Y-112647142D01*
X89547000Y-112490075D01*
X89547000Y-112329925D01*
X89578242Y-112172858D01*
X89639530Y-112024898D01*
X89728502Y-111891742D01*
X89841742Y-111778502D01*
X89974898Y-111689530D01*
X90122858Y-111628242D01*
X90279925Y-111597000D01*
X90440075Y-111597000D01*
X90597142Y-111628242D01*
X90597142Y-111628242D01*
G37*
G36*
X88597142Y-111628242D02*
X88745102Y-111689530D01*
X88878258Y-111778502D01*
X88991498Y-111891742D01*
X89080470Y-112024898D01*
X89141758Y-112172858D01*
X89173000Y-112329925D01*
X89173000Y-112490075D01*
X89141758Y-112647142D01*
X89080470Y-112795102D01*
X88991498Y-112928258D01*
X88878258Y-113041498D01*
X88745102Y-113130470D01*
X88597142Y-113191758D01*
X88440075Y-113223000D01*
X88279925Y-113223000D01*
X88122858Y-113191758D01*
X87974898Y-113130470D01*
X87841742Y-113041498D01*
X87728502Y-112928258D01*
X87639530Y-112795102D01*
X87578242Y-112647142D01*
X87547000Y-112490075D01*
X87547000Y-112329925D01*
X87578242Y-112172858D01*
X87639530Y-112024898D01*
X87728502Y-111891742D01*
X87841742Y-111778502D01*
X87974898Y-111689530D01*
X88122858Y-111628242D01*
X88279925Y-111597000D01*
X88440075Y-111597000D01*
X88597142Y-111628242D01*
X88597142Y-111628242D01*
G37*
G36*
X86597142Y-111628242D02*
X86745102Y-111689530D01*
X86878258Y-111778502D01*
X86991498Y-111891742D01*
X87080470Y-112024898D01*
X87141758Y-112172858D01*
X87173000Y-112329925D01*
X87173000Y-112490075D01*
X87141758Y-112647142D01*
X87080470Y-112795102D01*
X86991498Y-112928258D01*
X86878258Y-113041498D01*
X86745102Y-113130470D01*
X86597142Y-113191758D01*
X86440075Y-113223000D01*
X86279925Y-113223000D01*
X86122858Y-113191758D01*
X85974898Y-113130470D01*
X85841742Y-113041498D01*
X85728502Y-112928258D01*
X85639530Y-112795102D01*
X85578242Y-112647142D01*
X85547000Y-112490075D01*
X85547000Y-112329925D01*
X85578242Y-112172858D01*
X85639530Y-112024898D01*
X85728502Y-111891742D01*
X85841742Y-111778502D01*
X85974898Y-111689530D01*
X86122858Y-111628242D01*
X86279925Y-111597000D01*
X86440075Y-111597000D01*
X86597142Y-111628242D01*
X86597142Y-111628242D01*
G37*
G36*
X84597142Y-111628242D02*
X84745102Y-111689530D01*
X84878258Y-111778502D01*
X84991498Y-111891742D01*
X85080470Y-112024898D01*
X85141758Y-112172858D01*
X85173000Y-112329925D01*
X85173000Y-112490075D01*
X85141758Y-112647142D01*
X85080470Y-112795102D01*
X84991498Y-112928258D01*
X84878258Y-113041498D01*
X84745102Y-113130470D01*
X84597142Y-113191758D01*
X84440075Y-113223000D01*
X84279925Y-113223000D01*
X84122858Y-113191758D01*
X83974898Y-113130470D01*
X83841742Y-113041498D01*
X83728502Y-112928258D01*
X83639530Y-112795102D01*
X83578242Y-112647142D01*
X83547000Y-112490075D01*
X83547000Y-112329925D01*
X83578242Y-112172858D01*
X83639530Y-112024898D01*
X83728502Y-111891742D01*
X83841742Y-111778502D01*
X83974898Y-111689530D01*
X84122858Y-111628242D01*
X84279925Y-111597000D01*
X84440075Y-111597000D01*
X84597142Y-111628242D01*
X84597142Y-111628242D01*
G37*
G36*
X82597142Y-111628242D02*
X82745102Y-111689530D01*
X82878258Y-111778502D01*
X82991498Y-111891742D01*
X83080470Y-112024898D01*
X83141758Y-112172858D01*
X83173000Y-112329925D01*
X83173000Y-112490075D01*
X83141758Y-112647142D01*
X83080470Y-112795102D01*
X82991498Y-112928258D01*
X82878258Y-113041498D01*
X82745102Y-113130470D01*
X82597142Y-113191758D01*
X82440075Y-113223000D01*
X82279925Y-113223000D01*
X82122858Y-113191758D01*
X81974898Y-113130470D01*
X81841742Y-113041498D01*
X81728502Y-112928258D01*
X81639530Y-112795102D01*
X81578242Y-112647142D01*
X81547000Y-112490075D01*
X81547000Y-112329925D01*
X81578242Y-112172858D01*
X81639530Y-112024898D01*
X81728502Y-111891742D01*
X81841742Y-111778502D01*
X81974898Y-111689530D01*
X82122858Y-111628242D01*
X82279925Y-111597000D01*
X82440075Y-111597000D01*
X82597142Y-111628242D01*
X82597142Y-111628242D01*
G37*
G36*
X155177142Y-111628242D02*
X155325102Y-111689530D01*
X155458258Y-111778502D01*
X155571498Y-111891742D01*
X155660470Y-112024898D01*
X155721758Y-112172858D01*
X155753000Y-112329925D01*
X155753000Y-112490075D01*
X155721758Y-112647142D01*
X155660470Y-112795102D01*
X155571498Y-112928258D01*
X155458258Y-113041498D01*
X155325102Y-113130470D01*
X155177142Y-113191758D01*
X155020075Y-113223000D01*
X154859925Y-113223000D01*
X154702858Y-113191758D01*
X154554898Y-113130470D01*
X154421742Y-113041498D01*
X154308502Y-112928258D01*
X154219530Y-112795102D01*
X154158242Y-112647142D01*
X154127000Y-112490075D01*
X154127000Y-112329925D01*
X154158242Y-112172858D01*
X154219530Y-112024898D01*
X154308502Y-111891742D01*
X154421742Y-111778502D01*
X154554898Y-111689530D01*
X154702858Y-111628242D01*
X154859925Y-111597000D01*
X155020075Y-111597000D01*
X155177142Y-111628242D01*
X155177142Y-111628242D01*
G37*
G36*
X113457142Y-111628242D02*
X113605102Y-111689530D01*
X113738258Y-111778502D01*
X113851498Y-111891742D01*
X113940470Y-112024898D01*
X114001758Y-112172858D01*
X114033000Y-112329925D01*
X114033000Y-112490075D01*
X114001758Y-112647142D01*
X113940470Y-112795102D01*
X113851498Y-112928258D01*
X113738258Y-113041498D01*
X113605102Y-113130470D01*
X113457142Y-113191758D01*
X113300075Y-113223000D01*
X113139925Y-113223000D01*
X112982858Y-113191758D01*
X112834898Y-113130470D01*
X112701742Y-113041498D01*
X112588502Y-112928258D01*
X112499530Y-112795102D01*
X112438242Y-112647142D01*
X112407000Y-112490075D01*
X112407000Y-112329925D01*
X112438242Y-112172858D01*
X112499530Y-112024898D01*
X112588502Y-111891742D01*
X112701742Y-111778502D01*
X112834898Y-111689530D01*
X112982858Y-111628242D01*
X113139925Y-111597000D01*
X113300075Y-111597000D01*
X113457142Y-111628242D01*
X113457142Y-111628242D01*
G37*
G36*
X82011000Y-106561000D02*
X79709000Y-106561000D01*
X79709000Y-104259000D01*
X82011000Y-104259000D01*
X82011000Y-106561000D01*
X82011000Y-106561000D01*
G37*
G36*
X104871000Y-106561000D02*
X102569000Y-106561000D01*
X102569000Y-104259000D01*
X104871000Y-104259000D01*
X104871000Y-106561000D01*
X104871000Y-106561000D01*
G37*
G36*
X161591000Y-106561000D02*
X159289000Y-106561000D01*
X159289000Y-104259000D01*
X161591000Y-104259000D01*
X161591000Y-106561000D01*
X161591000Y-106561000D01*
G37*
G36*
X93011000Y-106561000D02*
X90709000Y-106561000D01*
X90709000Y-104259000D01*
X93011000Y-104259000D01*
X93011000Y-106561000D01*
X93011000Y-106561000D01*
G37*
G36*
X150591000Y-106561000D02*
X148289000Y-106561000D01*
X148289000Y-104259000D01*
X150591000Y-104259000D01*
X150591000Y-106561000D01*
X150591000Y-106561000D01*
G37*
G36*
X115871000Y-106561000D02*
X113569000Y-106561000D01*
X113569000Y-104259000D01*
X115871000Y-104259000D01*
X115871000Y-106561000D01*
X115871000Y-106561000D01*
G37*
G36*
X127731000Y-106561000D02*
X125429000Y-106561000D01*
X125429000Y-104259000D01*
X127731000Y-104259000D01*
X127731000Y-106561000D01*
X127731000Y-106561000D01*
G37*
G36*
X138731000Y-106561000D02*
X136429000Y-106561000D01*
X136429000Y-104259000D01*
X138731000Y-104259000D01*
X138731000Y-106561000D01*
X138731000Y-106561000D01*
G37*
G36*
X109457142Y-97128242D02*
X109605102Y-97189530D01*
X109738258Y-97278502D01*
X109851498Y-97391742D01*
X109940470Y-97524898D01*
X110001758Y-97672858D01*
X110033000Y-97829925D01*
X110033000Y-97990075D01*
X110001758Y-98147142D01*
X109940470Y-98295102D01*
X109851498Y-98428258D01*
X109738258Y-98541498D01*
X109605102Y-98630470D01*
X109457142Y-98691758D01*
X109300075Y-98723000D01*
X109139925Y-98723000D01*
X108982858Y-98691758D01*
X108834898Y-98630470D01*
X108701742Y-98541498D01*
X108588502Y-98428258D01*
X108499530Y-98295102D01*
X108438242Y-98147142D01*
X108407000Y-97990075D01*
X108407000Y-97829925D01*
X108438242Y-97672858D01*
X108499530Y-97524898D01*
X108588502Y-97391742D01*
X108701742Y-97278502D01*
X108834898Y-97189530D01*
X108982858Y-97128242D01*
X109139925Y-97097000D01*
X109300075Y-97097000D01*
X109457142Y-97128242D01*
X109457142Y-97128242D01*
G37*
G36*
X111957142Y-97128242D02*
X112105102Y-97189530D01*
X112238258Y-97278502D01*
X112351498Y-97391742D01*
X112440470Y-97524898D01*
X112501758Y-97672858D01*
X112533000Y-97829925D01*
X112533000Y-97990075D01*
X112501758Y-98147142D01*
X112440470Y-98295102D01*
X112351498Y-98428258D01*
X112238258Y-98541498D01*
X112105102Y-98630470D01*
X111957142Y-98691758D01*
X111800075Y-98723000D01*
X111639925Y-98723000D01*
X111482858Y-98691758D01*
X111334898Y-98630470D01*
X111201742Y-98541498D01*
X111088502Y-98428258D01*
X110999530Y-98295102D01*
X110938242Y-98147142D01*
X110907000Y-97990075D01*
X110907000Y-97829925D01*
X110938242Y-97672858D01*
X110999530Y-97524898D01*
X111088502Y-97391742D01*
X111201742Y-97278502D01*
X111334898Y-97189530D01*
X111482858Y-97128242D01*
X111639925Y-97097000D01*
X111800075Y-97097000D01*
X111957142Y-97128242D01*
X111957142Y-97128242D01*
G37*
G36*
X106957142Y-97128242D02*
X107105102Y-97189530D01*
X107238258Y-97278502D01*
X107351498Y-97391742D01*
X107440470Y-97524898D01*
X107501758Y-97672858D01*
X107533000Y-97829925D01*
X107533000Y-97990075D01*
X107501758Y-98147142D01*
X107440470Y-98295102D01*
X107351498Y-98428258D01*
X107238258Y-98541498D01*
X107105102Y-98630470D01*
X106957142Y-98691758D01*
X106800075Y-98723000D01*
X106639925Y-98723000D01*
X106482858Y-98691758D01*
X106334898Y-98630470D01*
X106201742Y-98541498D01*
X106088502Y-98428258D01*
X105999530Y-98295102D01*
X105938242Y-98147142D01*
X105907000Y-97990075D01*
X105907000Y-97829925D01*
X105938242Y-97672858D01*
X105999530Y-97524898D01*
X106088502Y-97391742D01*
X106201742Y-97278502D01*
X106334898Y-97189530D01*
X106482858Y-97128242D01*
X106639925Y-97097000D01*
X106800075Y-97097000D01*
X106957142Y-97128242D01*
X106957142Y-97128242D01*
G37*
G36*
X155177142Y-97128242D02*
X155325102Y-97189530D01*
X155458258Y-97278502D01*
X155571498Y-97391742D01*
X155660470Y-97524898D01*
X155721758Y-97672858D01*
X155753000Y-97829925D01*
X155753000Y-97990075D01*
X155721758Y-98147142D01*
X155660470Y-98295102D01*
X155571498Y-98428258D01*
X155458258Y-98541498D01*
X155325102Y-98630470D01*
X155177142Y-98691758D01*
X155020075Y-98723000D01*
X154859925Y-98723000D01*
X154702858Y-98691758D01*
X154554898Y-98630470D01*
X154421742Y-98541498D01*
X154308502Y-98428258D01*
X154219530Y-98295102D01*
X154158242Y-98147142D01*
X154127000Y-97990075D01*
X154127000Y-97829925D01*
X154158242Y-97672858D01*
X154219530Y-97524898D01*
X154308502Y-97391742D01*
X154421742Y-97278502D01*
X154554898Y-97189530D01*
X154702858Y-97128242D01*
X154859925Y-97097000D01*
X155020075Y-97097000D01*
X155177142Y-97128242D01*
X155177142Y-97128242D01*
G37*
G36*
X157677142Y-97128242D02*
X157825102Y-97189530D01*
X157958258Y-97278502D01*
X158071498Y-97391742D01*
X158160470Y-97524898D01*
X158221758Y-97672858D01*
X158253000Y-97829925D01*
X158253000Y-97990075D01*
X158221758Y-98147142D01*
X158160470Y-98295102D01*
X158071498Y-98428258D01*
X157958258Y-98541498D01*
X157825102Y-98630470D01*
X157677142Y-98691758D01*
X157520075Y-98723000D01*
X157359925Y-98723000D01*
X157202858Y-98691758D01*
X157054898Y-98630470D01*
X156921742Y-98541498D01*
X156808502Y-98428258D01*
X156719530Y-98295102D01*
X156658242Y-98147142D01*
X156627000Y-97990075D01*
X156627000Y-97829925D01*
X156658242Y-97672858D01*
X156719530Y-97524898D01*
X156808502Y-97391742D01*
X156921742Y-97278502D01*
X157054898Y-97189530D01*
X157202858Y-97128242D01*
X157359925Y-97097000D01*
X157520075Y-97097000D01*
X157677142Y-97128242D01*
X157677142Y-97128242D01*
G37*
G36*
X84097142Y-97128242D02*
X84245102Y-97189530D01*
X84378258Y-97278502D01*
X84491498Y-97391742D01*
X84580470Y-97524898D01*
X84641758Y-97672858D01*
X84673000Y-97829925D01*
X84673000Y-97990075D01*
X84641758Y-98147142D01*
X84580470Y-98295102D01*
X84491498Y-98428258D01*
X84378258Y-98541498D01*
X84245102Y-98630470D01*
X84097142Y-98691758D01*
X83940075Y-98723000D01*
X83779925Y-98723000D01*
X83622858Y-98691758D01*
X83474898Y-98630470D01*
X83341742Y-98541498D01*
X83228502Y-98428258D01*
X83139530Y-98295102D01*
X83078242Y-98147142D01*
X83047000Y-97990075D01*
X83047000Y-97829925D01*
X83078242Y-97672858D01*
X83139530Y-97524898D01*
X83228502Y-97391742D01*
X83341742Y-97278502D01*
X83474898Y-97189530D01*
X83622858Y-97128242D01*
X83779925Y-97097000D01*
X83940075Y-97097000D01*
X84097142Y-97128242D01*
X84097142Y-97128242D01*
G37*
G36*
X89097142Y-97128242D02*
X89245102Y-97189530D01*
X89378258Y-97278502D01*
X89491498Y-97391742D01*
X89580470Y-97524898D01*
X89641758Y-97672858D01*
X89673000Y-97829925D01*
X89673000Y-97990075D01*
X89641758Y-98147142D01*
X89580470Y-98295102D01*
X89491498Y-98428258D01*
X89378258Y-98541498D01*
X89245102Y-98630470D01*
X89097142Y-98691758D01*
X88940075Y-98723000D01*
X88779925Y-98723000D01*
X88622858Y-98691758D01*
X88474898Y-98630470D01*
X88341742Y-98541498D01*
X88228502Y-98428258D01*
X88139530Y-98295102D01*
X88078242Y-98147142D01*
X88047000Y-97990075D01*
X88047000Y-97829925D01*
X88078242Y-97672858D01*
X88139530Y-97524898D01*
X88228502Y-97391742D01*
X88341742Y-97278502D01*
X88474898Y-97189530D01*
X88622858Y-97128242D01*
X88779925Y-97097000D01*
X88940075Y-97097000D01*
X89097142Y-97128242D01*
X89097142Y-97128242D01*
G37*
G36*
X86597142Y-97128242D02*
X86745102Y-97189530D01*
X86878258Y-97278502D01*
X86991498Y-97391742D01*
X87080470Y-97524898D01*
X87141758Y-97672858D01*
X87173000Y-97829925D01*
X87173000Y-97990075D01*
X87141758Y-98147142D01*
X87080470Y-98295102D01*
X86991498Y-98428258D01*
X86878258Y-98541498D01*
X86745102Y-98630470D01*
X86597142Y-98691758D01*
X86440075Y-98723000D01*
X86279925Y-98723000D01*
X86122858Y-98691758D01*
X85974898Y-98630470D01*
X85841742Y-98541498D01*
X85728502Y-98428258D01*
X85639530Y-98295102D01*
X85578242Y-98147142D01*
X85547000Y-97990075D01*
X85547000Y-97829925D01*
X85578242Y-97672858D01*
X85639530Y-97524898D01*
X85728502Y-97391742D01*
X85841742Y-97278502D01*
X85974898Y-97189530D01*
X86122858Y-97128242D01*
X86279925Y-97097000D01*
X86440075Y-97097000D01*
X86597142Y-97128242D01*
X86597142Y-97128242D01*
G37*
G36*
X129817142Y-97128242D02*
X129965102Y-97189530D01*
X130098258Y-97278502D01*
X130211498Y-97391742D01*
X130300470Y-97524898D01*
X130361758Y-97672858D01*
X130393000Y-97829925D01*
X130393000Y-97990075D01*
X130361758Y-98147142D01*
X130300470Y-98295102D01*
X130211498Y-98428258D01*
X130098258Y-98541498D01*
X129965102Y-98630470D01*
X129817142Y-98691758D01*
X129660075Y-98723000D01*
X129499925Y-98723000D01*
X129342858Y-98691758D01*
X129194898Y-98630470D01*
X129061742Y-98541498D01*
X128948502Y-98428258D01*
X128859530Y-98295102D01*
X128798242Y-98147142D01*
X128767000Y-97990075D01*
X128767000Y-97829925D01*
X128798242Y-97672858D01*
X128859530Y-97524898D01*
X128948502Y-97391742D01*
X129061742Y-97278502D01*
X129194898Y-97189530D01*
X129342858Y-97128242D01*
X129499925Y-97097000D01*
X129660075Y-97097000D01*
X129817142Y-97128242D01*
X129817142Y-97128242D01*
G37*
G36*
X134817142Y-97128242D02*
X134965102Y-97189530D01*
X135098258Y-97278502D01*
X135211498Y-97391742D01*
X135300470Y-97524898D01*
X135361758Y-97672858D01*
X135393000Y-97829925D01*
X135393000Y-97990075D01*
X135361758Y-98147142D01*
X135300470Y-98295102D01*
X135211498Y-98428258D01*
X135098258Y-98541498D01*
X134965102Y-98630470D01*
X134817142Y-98691758D01*
X134660075Y-98723000D01*
X134499925Y-98723000D01*
X134342858Y-98691758D01*
X134194898Y-98630470D01*
X134061742Y-98541498D01*
X133948502Y-98428258D01*
X133859530Y-98295102D01*
X133798242Y-98147142D01*
X133767000Y-97990075D01*
X133767000Y-97829925D01*
X133798242Y-97672858D01*
X133859530Y-97524898D01*
X133948502Y-97391742D01*
X134061742Y-97278502D01*
X134194898Y-97189530D01*
X134342858Y-97128242D01*
X134499925Y-97097000D01*
X134660075Y-97097000D01*
X134817142Y-97128242D01*
X134817142Y-97128242D01*
G37*
G36*
X132317142Y-97128242D02*
X132465102Y-97189530D01*
X132598258Y-97278502D01*
X132711498Y-97391742D01*
X132800470Y-97524898D01*
X132861758Y-97672858D01*
X132893000Y-97829925D01*
X132893000Y-97990075D01*
X132861758Y-98147142D01*
X132800470Y-98295102D01*
X132711498Y-98428258D01*
X132598258Y-98541498D01*
X132465102Y-98630470D01*
X132317142Y-98691758D01*
X132160075Y-98723000D01*
X131999925Y-98723000D01*
X131842858Y-98691758D01*
X131694898Y-98630470D01*
X131561742Y-98541498D01*
X131448502Y-98428258D01*
X131359530Y-98295102D01*
X131298242Y-98147142D01*
X131267000Y-97990075D01*
X131267000Y-97829925D01*
X131298242Y-97672858D01*
X131359530Y-97524898D01*
X131448502Y-97391742D01*
X131561742Y-97278502D01*
X131694898Y-97189530D01*
X131842858Y-97128242D01*
X131999925Y-97097000D01*
X132160075Y-97097000D01*
X132317142Y-97128242D01*
X132317142Y-97128242D01*
G37*
G36*
X152677142Y-97128242D02*
X152825102Y-97189530D01*
X152958258Y-97278502D01*
X153071498Y-97391742D01*
X153160470Y-97524898D01*
X153221758Y-97672858D01*
X153253000Y-97829925D01*
X153253000Y-97990075D01*
X153221758Y-98147142D01*
X153160470Y-98295102D01*
X153071498Y-98428258D01*
X152958258Y-98541498D01*
X152825102Y-98630470D01*
X152677142Y-98691758D01*
X152520075Y-98723000D01*
X152359925Y-98723000D01*
X152202858Y-98691758D01*
X152054898Y-98630470D01*
X151921742Y-98541498D01*
X151808502Y-98428258D01*
X151719530Y-98295102D01*
X151658242Y-98147142D01*
X151627000Y-97990075D01*
X151627000Y-97829925D01*
X151658242Y-97672858D01*
X151719530Y-97524898D01*
X151808502Y-97391742D01*
X151921742Y-97278502D01*
X152054898Y-97189530D01*
X152202858Y-97128242D01*
X152359925Y-97097000D01*
X152520075Y-97097000D01*
X152677142Y-97128242D01*
X152677142Y-97128242D01*
G37*
G36*
X77580443Y-88005519D02*
X77646627Y-88012037D01*
X77759853Y-88046384D01*
X77816467Y-88063557D01*
X77955087Y-88137652D01*
X77972991Y-88147222D01*
X78008729Y-88176552D01*
X78110186Y-88259814D01*
X78193448Y-88361271D01*
X78222778Y-88397009D01*
X78222779Y-88397011D01*
X78306443Y-88553533D01*
X78306443Y-88553534D01*
X78357963Y-88723373D01*
X78375359Y-88900000D01*
X78357963Y-89076627D01*
X78323616Y-89189853D01*
X78306443Y-89246467D01*
X78232348Y-89385087D01*
X78222778Y-89402991D01*
X78193448Y-89438729D01*
X78110186Y-89540186D01*
X78008729Y-89623448D01*
X77972991Y-89652778D01*
X77972989Y-89652779D01*
X77816467Y-89736443D01*
X77759853Y-89753616D01*
X77646627Y-89787963D01*
X77580443Y-89794481D01*
X77514260Y-89801000D01*
X77425740Y-89801000D01*
X77359557Y-89794481D01*
X77293373Y-89787963D01*
X77180147Y-89753616D01*
X77123533Y-89736443D01*
X76967011Y-89652779D01*
X76967009Y-89652778D01*
X76931271Y-89623448D01*
X76829814Y-89540186D01*
X76746552Y-89438729D01*
X76717222Y-89402991D01*
X76707652Y-89385087D01*
X76633557Y-89246467D01*
X76616384Y-89189853D01*
X76582037Y-89076627D01*
X76564641Y-88900000D01*
X76582037Y-88723373D01*
X76633557Y-88553534D01*
X76633557Y-88553533D01*
X76717221Y-88397011D01*
X76717222Y-88397009D01*
X76746552Y-88361271D01*
X76829814Y-88259814D01*
X76931271Y-88176552D01*
X76967009Y-88147222D01*
X76984913Y-88137652D01*
X77123533Y-88063557D01*
X77180147Y-88046384D01*
X77293373Y-88012037D01*
X77359557Y-88005519D01*
X77425740Y-87999000D01*
X77514260Y-87999000D01*
X77580443Y-88005519D01*
X77580443Y-88005519D01*
G37*
G36*
X144890442Y-85465518D02*
X144956627Y-85472037D01*
X145069853Y-85506384D01*
X145126467Y-85523557D01*
X145265087Y-85597652D01*
X145282991Y-85607222D01*
X145318729Y-85636552D01*
X145420186Y-85719814D01*
X145503448Y-85821271D01*
X145532778Y-85857009D01*
X145532779Y-85857011D01*
X145616443Y-86013533D01*
X145616443Y-86013534D01*
X145667963Y-86183373D01*
X145685359Y-86360000D01*
X145667963Y-86536627D01*
X145633616Y-86649853D01*
X145616443Y-86706467D01*
X145542348Y-86845087D01*
X145532778Y-86862991D01*
X145503448Y-86898729D01*
X145420186Y-87000186D01*
X145318729Y-87083448D01*
X145282991Y-87112778D01*
X145282989Y-87112779D01*
X145126467Y-87196443D01*
X145069853Y-87213616D01*
X144956627Y-87247963D01*
X144890442Y-87254482D01*
X144824260Y-87261000D01*
X144735740Y-87261000D01*
X144669558Y-87254482D01*
X144603373Y-87247963D01*
X144490147Y-87213616D01*
X144433533Y-87196443D01*
X144277011Y-87112779D01*
X144277009Y-87112778D01*
X144241271Y-87083448D01*
X144139814Y-87000186D01*
X144056552Y-86898729D01*
X144027222Y-86862991D01*
X144017652Y-86845087D01*
X143943557Y-86706467D01*
X143926384Y-86649853D01*
X143892037Y-86536627D01*
X143874641Y-86360000D01*
X143892037Y-86183373D01*
X143943557Y-86013534D01*
X143943557Y-86013533D01*
X144027221Y-85857011D01*
X144027222Y-85857009D01*
X144056552Y-85821271D01*
X144139814Y-85719814D01*
X144241271Y-85636552D01*
X144277009Y-85607222D01*
X144294913Y-85597652D01*
X144433533Y-85523557D01*
X144490147Y-85506384D01*
X144603373Y-85472037D01*
X144669558Y-85465518D01*
X144735740Y-85459000D01*
X144824260Y-85459000D01*
X144890442Y-85465518D01*
X144890442Y-85465518D01*
G37*
G36*
X157590442Y-85465518D02*
X157656627Y-85472037D01*
X157769853Y-85506384D01*
X157826467Y-85523557D01*
X157965087Y-85597652D01*
X157982991Y-85607222D01*
X158018729Y-85636552D01*
X158120186Y-85719814D01*
X158203448Y-85821271D01*
X158232778Y-85857009D01*
X158232779Y-85857011D01*
X158316443Y-86013533D01*
X158316443Y-86013534D01*
X158367963Y-86183373D01*
X158385359Y-86360000D01*
X158367963Y-86536627D01*
X158333616Y-86649853D01*
X158316443Y-86706467D01*
X158242348Y-86845087D01*
X158232778Y-86862991D01*
X158203448Y-86898729D01*
X158120186Y-87000186D01*
X158018729Y-87083448D01*
X157982991Y-87112778D01*
X157982989Y-87112779D01*
X157826467Y-87196443D01*
X157769853Y-87213616D01*
X157656627Y-87247963D01*
X157590442Y-87254482D01*
X157524260Y-87261000D01*
X157435740Y-87261000D01*
X157369558Y-87254482D01*
X157303373Y-87247963D01*
X157190147Y-87213616D01*
X157133533Y-87196443D01*
X156977011Y-87112779D01*
X156977009Y-87112778D01*
X156941271Y-87083448D01*
X156839814Y-87000186D01*
X156756552Y-86898729D01*
X156727222Y-86862991D01*
X156717652Y-86845087D01*
X156643557Y-86706467D01*
X156626384Y-86649853D01*
X156592037Y-86536627D01*
X156574641Y-86360000D01*
X156592037Y-86183373D01*
X156643557Y-86013534D01*
X156643557Y-86013533D01*
X156727221Y-85857011D01*
X156727222Y-85857009D01*
X156756552Y-85821271D01*
X156839814Y-85719814D01*
X156941271Y-85636552D01*
X156977009Y-85607222D01*
X156994913Y-85597652D01*
X157133533Y-85523557D01*
X157190147Y-85506384D01*
X157303373Y-85472037D01*
X157369558Y-85465518D01*
X157435740Y-85459000D01*
X157524260Y-85459000D01*
X157590442Y-85465518D01*
X157590442Y-85465518D01*
G37*
G36*
X77580442Y-85465518D02*
X77646627Y-85472037D01*
X77759853Y-85506384D01*
X77816467Y-85523557D01*
X77955087Y-85597652D01*
X77972991Y-85607222D01*
X78008729Y-85636552D01*
X78110186Y-85719814D01*
X78193448Y-85821271D01*
X78222778Y-85857009D01*
X78222779Y-85857011D01*
X78306443Y-86013533D01*
X78306443Y-86013534D01*
X78357963Y-86183373D01*
X78375359Y-86360000D01*
X78357963Y-86536627D01*
X78323616Y-86649853D01*
X78306443Y-86706467D01*
X78232348Y-86845087D01*
X78222778Y-86862991D01*
X78193448Y-86898729D01*
X78110186Y-87000186D01*
X78008729Y-87083448D01*
X77972991Y-87112778D01*
X77972989Y-87112779D01*
X77816467Y-87196443D01*
X77759853Y-87213616D01*
X77646627Y-87247963D01*
X77580442Y-87254482D01*
X77514260Y-87261000D01*
X77425740Y-87261000D01*
X77359558Y-87254482D01*
X77293373Y-87247963D01*
X77180147Y-87213616D01*
X77123533Y-87196443D01*
X76967011Y-87112779D01*
X76967009Y-87112778D01*
X76931271Y-87083448D01*
X76829814Y-87000186D01*
X76746552Y-86898729D01*
X76717222Y-86862991D01*
X76707652Y-86845087D01*
X76633557Y-86706467D01*
X76616384Y-86649853D01*
X76582037Y-86536627D01*
X76564641Y-86360000D01*
X76582037Y-86183373D01*
X76633557Y-86013534D01*
X76633557Y-86013533D01*
X76717221Y-85857011D01*
X76717222Y-85857009D01*
X76746552Y-85821271D01*
X76829814Y-85719814D01*
X76931271Y-85636552D01*
X76967009Y-85607222D01*
X76984913Y-85597652D01*
X77123533Y-85523557D01*
X77180147Y-85506384D01*
X77293373Y-85472037D01*
X77359558Y-85465518D01*
X77425740Y-85459000D01*
X77514260Y-85459000D01*
X77580442Y-85465518D01*
X77580442Y-85465518D01*
G37*
G36*
X157590443Y-82925519D02*
X157656627Y-82932037D01*
X157769853Y-82966384D01*
X157826467Y-82983557D01*
X157965087Y-83057652D01*
X157982991Y-83067222D01*
X158018729Y-83096552D01*
X158120186Y-83179814D01*
X158203448Y-83281271D01*
X158232778Y-83317009D01*
X158232779Y-83317011D01*
X158316443Y-83473533D01*
X158316443Y-83473534D01*
X158367963Y-83643373D01*
X158385359Y-83820000D01*
X158367963Y-83996627D01*
X158333616Y-84109853D01*
X158316443Y-84166467D01*
X158242348Y-84305087D01*
X158232778Y-84322991D01*
X158203448Y-84358729D01*
X158120186Y-84460186D01*
X158018729Y-84543448D01*
X157982991Y-84572778D01*
X157982989Y-84572779D01*
X157826467Y-84656443D01*
X157778478Y-84671000D01*
X157656627Y-84707963D01*
X157590443Y-84714481D01*
X157524260Y-84721000D01*
X157435740Y-84721000D01*
X157369557Y-84714481D01*
X157303373Y-84707963D01*
X157181522Y-84671000D01*
X157133533Y-84656443D01*
X156977011Y-84572779D01*
X156977009Y-84572778D01*
X156941271Y-84543448D01*
X156839814Y-84460186D01*
X156756552Y-84358729D01*
X156727222Y-84322991D01*
X156717652Y-84305087D01*
X156643557Y-84166467D01*
X156626384Y-84109853D01*
X156592037Y-83996627D01*
X156574641Y-83820000D01*
X156592037Y-83643373D01*
X156643557Y-83473534D01*
X156643557Y-83473533D01*
X156727221Y-83317011D01*
X156727222Y-83317009D01*
X156756552Y-83281271D01*
X156839814Y-83179814D01*
X156941271Y-83096552D01*
X156977009Y-83067222D01*
X156994913Y-83057652D01*
X157133533Y-82983557D01*
X157190147Y-82966384D01*
X157303373Y-82932037D01*
X157369557Y-82925519D01*
X157435740Y-82919000D01*
X157524260Y-82919000D01*
X157590443Y-82925519D01*
X157590443Y-82925519D01*
G37*
G36*
X77580443Y-82925519D02*
X77646627Y-82932037D01*
X77759853Y-82966384D01*
X77816467Y-82983557D01*
X77955087Y-83057652D01*
X77972991Y-83067222D01*
X78008729Y-83096552D01*
X78110186Y-83179814D01*
X78193448Y-83281271D01*
X78222778Y-83317009D01*
X78222779Y-83317011D01*
X78306443Y-83473533D01*
X78306443Y-83473534D01*
X78357963Y-83643373D01*
X78375359Y-83820000D01*
X78357963Y-83996627D01*
X78323616Y-84109853D01*
X78306443Y-84166467D01*
X78232348Y-84305087D01*
X78222778Y-84322991D01*
X78193448Y-84358729D01*
X78110186Y-84460186D01*
X78008729Y-84543448D01*
X77972991Y-84572778D01*
X77972989Y-84572779D01*
X77816467Y-84656443D01*
X77768478Y-84671000D01*
X77646627Y-84707963D01*
X77580443Y-84714481D01*
X77514260Y-84721000D01*
X77425740Y-84721000D01*
X77359557Y-84714481D01*
X77293373Y-84707963D01*
X77171522Y-84671000D01*
X77123533Y-84656443D01*
X76967011Y-84572779D01*
X76967009Y-84572778D01*
X76931271Y-84543448D01*
X76829814Y-84460186D01*
X76746552Y-84358729D01*
X76717222Y-84322991D01*
X76707652Y-84305087D01*
X76633557Y-84166467D01*
X76616384Y-84109853D01*
X76582037Y-83996627D01*
X76564641Y-83820000D01*
X76582037Y-83643373D01*
X76633557Y-83473534D01*
X76633557Y-83473533D01*
X76717221Y-83317011D01*
X76717222Y-83317009D01*
X76746552Y-83281271D01*
X76829814Y-83179814D01*
X76931271Y-83096552D01*
X76967009Y-83067222D01*
X76984913Y-83057652D01*
X77123533Y-82983557D01*
X77180147Y-82966384D01*
X77293373Y-82932037D01*
X77359557Y-82925519D01*
X77425740Y-82919000D01*
X77514260Y-82919000D01*
X77580443Y-82925519D01*
X77580443Y-82925519D01*
G37*
G36*
X144890443Y-82925519D02*
X144956627Y-82932037D01*
X145069853Y-82966384D01*
X145126467Y-82983557D01*
X145265087Y-83057652D01*
X145282991Y-83067222D01*
X145318729Y-83096552D01*
X145420186Y-83179814D01*
X145503448Y-83281271D01*
X145532778Y-83317009D01*
X145532779Y-83317011D01*
X145616443Y-83473533D01*
X145616443Y-83473534D01*
X145667963Y-83643373D01*
X145685359Y-83820000D01*
X145667963Y-83996627D01*
X145633616Y-84109853D01*
X145616443Y-84166467D01*
X145542348Y-84305087D01*
X145532778Y-84322991D01*
X145503448Y-84358729D01*
X145420186Y-84460186D01*
X145318729Y-84543448D01*
X145282991Y-84572778D01*
X145282989Y-84572779D01*
X145126467Y-84656443D01*
X145078478Y-84671000D01*
X144956627Y-84707963D01*
X144890443Y-84714481D01*
X144824260Y-84721000D01*
X144735740Y-84721000D01*
X144669557Y-84714481D01*
X144603373Y-84707963D01*
X144481522Y-84671000D01*
X144433533Y-84656443D01*
X144277011Y-84572779D01*
X144277009Y-84572778D01*
X144241271Y-84543448D01*
X144139814Y-84460186D01*
X144056552Y-84358729D01*
X144027222Y-84322991D01*
X144017652Y-84305087D01*
X143943557Y-84166467D01*
X143926384Y-84109853D01*
X143892037Y-83996627D01*
X143874641Y-83820000D01*
X143892037Y-83643373D01*
X143943557Y-83473534D01*
X143943557Y-83473533D01*
X144027221Y-83317011D01*
X144027222Y-83317009D01*
X144056552Y-83281271D01*
X144139814Y-83179814D01*
X144241271Y-83096552D01*
X144277009Y-83067222D01*
X144294913Y-83057652D01*
X144433533Y-82983557D01*
X144490147Y-82966384D01*
X144603373Y-82932037D01*
X144669557Y-82925519D01*
X144735740Y-82919000D01*
X144824260Y-82919000D01*
X144890443Y-82925519D01*
X144890443Y-82925519D01*
G37*
G36*
X96101000Y-84671000D02*
X94399000Y-84671000D01*
X94399000Y-82969000D01*
X96101000Y-82969000D01*
X96101000Y-84671000D01*
X96101000Y-84671000D01*
G37*
G36*
X144890442Y-80385518D02*
X144956627Y-80392037D01*
X145069853Y-80426384D01*
X145126467Y-80443557D01*
X145235249Y-80501703D01*
X145282991Y-80527222D01*
X145318729Y-80556552D01*
X145420186Y-80639814D01*
X145503448Y-80741271D01*
X145532778Y-80777009D01*
X145532779Y-80777011D01*
X145616443Y-80933533D01*
X145616443Y-80933534D01*
X145667963Y-81103373D01*
X145685359Y-81280000D01*
X145667963Y-81456627D01*
X145634109Y-81568228D01*
X145616443Y-81626467D01*
X145564791Y-81723100D01*
X145532778Y-81782991D01*
X145503448Y-81818729D01*
X145420186Y-81920186D01*
X145318729Y-82003448D01*
X145282991Y-82032778D01*
X145282989Y-82032779D01*
X145126467Y-82116443D01*
X145069853Y-82133616D01*
X144956627Y-82167963D01*
X144890443Y-82174481D01*
X144824260Y-82181000D01*
X144735740Y-82181000D01*
X144669557Y-82174481D01*
X144603373Y-82167963D01*
X144490147Y-82133616D01*
X144433533Y-82116443D01*
X144277011Y-82032779D01*
X144277009Y-82032778D01*
X144241271Y-82003448D01*
X144139814Y-81920186D01*
X144056552Y-81818729D01*
X144027222Y-81782991D01*
X143995209Y-81723100D01*
X143943557Y-81626467D01*
X143925891Y-81568228D01*
X143892037Y-81456627D01*
X143874641Y-81280000D01*
X143892037Y-81103373D01*
X143943557Y-80933534D01*
X143943557Y-80933533D01*
X144027221Y-80777011D01*
X144027222Y-80777009D01*
X144056552Y-80741271D01*
X144139814Y-80639814D01*
X144241271Y-80556552D01*
X144277009Y-80527222D01*
X144324751Y-80501703D01*
X144433533Y-80443557D01*
X144490147Y-80426384D01*
X144603373Y-80392037D01*
X144669558Y-80385518D01*
X144735740Y-80379000D01*
X144824260Y-80379000D01*
X144890442Y-80385518D01*
X144890442Y-80385518D01*
G37*
G36*
X132190442Y-80385518D02*
X132256627Y-80392037D01*
X132369853Y-80426384D01*
X132426467Y-80443557D01*
X132535249Y-80501703D01*
X132582991Y-80527222D01*
X132618729Y-80556552D01*
X132720186Y-80639814D01*
X132803448Y-80741271D01*
X132832778Y-80777009D01*
X132832779Y-80777011D01*
X132916443Y-80933533D01*
X132916443Y-80933534D01*
X132967963Y-81103373D01*
X132985359Y-81280000D01*
X132967963Y-81456627D01*
X132934109Y-81568228D01*
X132916443Y-81626467D01*
X132864791Y-81723100D01*
X132832778Y-81782991D01*
X132803448Y-81818729D01*
X132720186Y-81920186D01*
X132618729Y-82003448D01*
X132582991Y-82032778D01*
X132582989Y-82032779D01*
X132426467Y-82116443D01*
X132369853Y-82133616D01*
X132256627Y-82167963D01*
X132190443Y-82174481D01*
X132124260Y-82181000D01*
X132035740Y-82181000D01*
X131969557Y-82174481D01*
X131903373Y-82167963D01*
X131790147Y-82133616D01*
X131733533Y-82116443D01*
X131577011Y-82032779D01*
X131577009Y-82032778D01*
X131541271Y-82003448D01*
X131439814Y-81920186D01*
X131356552Y-81818729D01*
X131327222Y-81782991D01*
X131295209Y-81723100D01*
X131243557Y-81626467D01*
X131225891Y-81568228D01*
X131192037Y-81456627D01*
X131174641Y-81280000D01*
X131192037Y-81103373D01*
X131243557Y-80933534D01*
X131243557Y-80933533D01*
X131327221Y-80777011D01*
X131327222Y-80777009D01*
X131356552Y-80741271D01*
X131439814Y-80639814D01*
X131541271Y-80556552D01*
X131577009Y-80527222D01*
X131624751Y-80501703D01*
X131733533Y-80443557D01*
X131790147Y-80426384D01*
X131903373Y-80392037D01*
X131969558Y-80385518D01*
X132035740Y-80379000D01*
X132124260Y-80379000D01*
X132190442Y-80385518D01*
X132190442Y-80385518D01*
G37*
G36*
X110121000Y-82181000D02*
X108319000Y-82181000D01*
X108319000Y-80379000D01*
X110121000Y-80379000D01*
X110121000Y-82181000D01*
X110121000Y-82181000D01*
G37*
G36*
X129650442Y-80385518D02*
X129716627Y-80392037D01*
X129829853Y-80426384D01*
X129886467Y-80443557D01*
X129995249Y-80501703D01*
X130042991Y-80527222D01*
X130078729Y-80556552D01*
X130180186Y-80639814D01*
X130263448Y-80741271D01*
X130292778Y-80777009D01*
X130292779Y-80777011D01*
X130376443Y-80933533D01*
X130376443Y-80933534D01*
X130427963Y-81103373D01*
X130445359Y-81280000D01*
X130427963Y-81456627D01*
X130394109Y-81568228D01*
X130376443Y-81626467D01*
X130324791Y-81723100D01*
X130292778Y-81782991D01*
X130263448Y-81818729D01*
X130180186Y-81920186D01*
X130078729Y-82003448D01*
X130042991Y-82032778D01*
X130042989Y-82032779D01*
X129886467Y-82116443D01*
X129829853Y-82133616D01*
X129716627Y-82167963D01*
X129650443Y-82174481D01*
X129584260Y-82181000D01*
X129495740Y-82181000D01*
X129429557Y-82174481D01*
X129363373Y-82167963D01*
X129250147Y-82133616D01*
X129193533Y-82116443D01*
X129037011Y-82032779D01*
X129037009Y-82032778D01*
X129001271Y-82003448D01*
X128899814Y-81920186D01*
X128816552Y-81818729D01*
X128787222Y-81782991D01*
X128755209Y-81723100D01*
X128703557Y-81626467D01*
X128685891Y-81568228D01*
X128652037Y-81456627D01*
X128634641Y-81280000D01*
X128652037Y-81103373D01*
X128703557Y-80933534D01*
X128703557Y-80933533D01*
X128787221Y-80777011D01*
X128787222Y-80777009D01*
X128816552Y-80741271D01*
X128899814Y-80639814D01*
X129001271Y-80556552D01*
X129037009Y-80527222D01*
X129084751Y-80501703D01*
X129193533Y-80443557D01*
X129250147Y-80426384D01*
X129363373Y-80392037D01*
X129429558Y-80385518D01*
X129495740Y-80379000D01*
X129584260Y-80379000D01*
X129650442Y-80385518D01*
X129650442Y-80385518D01*
G37*
G36*
X127110442Y-80385518D02*
X127176627Y-80392037D01*
X127289853Y-80426384D01*
X127346467Y-80443557D01*
X127455249Y-80501703D01*
X127502991Y-80527222D01*
X127538729Y-80556552D01*
X127640186Y-80639814D01*
X127723448Y-80741271D01*
X127752778Y-80777009D01*
X127752779Y-80777011D01*
X127836443Y-80933533D01*
X127836443Y-80933534D01*
X127887963Y-81103373D01*
X127905359Y-81280000D01*
X127887963Y-81456627D01*
X127854109Y-81568228D01*
X127836443Y-81626467D01*
X127784791Y-81723100D01*
X127752778Y-81782991D01*
X127723448Y-81818729D01*
X127640186Y-81920186D01*
X127538729Y-82003448D01*
X127502991Y-82032778D01*
X127502989Y-82032779D01*
X127346467Y-82116443D01*
X127289853Y-82133616D01*
X127176627Y-82167963D01*
X127110443Y-82174481D01*
X127044260Y-82181000D01*
X126955740Y-82181000D01*
X126889557Y-82174481D01*
X126823373Y-82167963D01*
X126710147Y-82133616D01*
X126653533Y-82116443D01*
X126497011Y-82032779D01*
X126497009Y-82032778D01*
X126461271Y-82003448D01*
X126359814Y-81920186D01*
X126276552Y-81818729D01*
X126247222Y-81782991D01*
X126215209Y-81723100D01*
X126163557Y-81626467D01*
X126145891Y-81568228D01*
X126112037Y-81456627D01*
X126094641Y-81280000D01*
X126112037Y-81103373D01*
X126163557Y-80933534D01*
X126163557Y-80933533D01*
X126247221Y-80777011D01*
X126247222Y-80777009D01*
X126276552Y-80741271D01*
X126359814Y-80639814D01*
X126461271Y-80556552D01*
X126497009Y-80527222D01*
X126544751Y-80501703D01*
X126653533Y-80443557D01*
X126710147Y-80426384D01*
X126823373Y-80392037D01*
X126889558Y-80385518D01*
X126955740Y-80379000D01*
X127044260Y-80379000D01*
X127110442Y-80385518D01*
X127110442Y-80385518D01*
G37*
G36*
X124570442Y-80385518D02*
X124636627Y-80392037D01*
X124749853Y-80426384D01*
X124806467Y-80443557D01*
X124915249Y-80501703D01*
X124962991Y-80527222D01*
X124998729Y-80556552D01*
X125100186Y-80639814D01*
X125183448Y-80741271D01*
X125212778Y-80777009D01*
X125212779Y-80777011D01*
X125296443Y-80933533D01*
X125296443Y-80933534D01*
X125347963Y-81103373D01*
X125365359Y-81280000D01*
X125347963Y-81456627D01*
X125314109Y-81568228D01*
X125296443Y-81626467D01*
X125244791Y-81723100D01*
X125212778Y-81782991D01*
X125183448Y-81818729D01*
X125100186Y-81920186D01*
X124998729Y-82003448D01*
X124962991Y-82032778D01*
X124962989Y-82032779D01*
X124806467Y-82116443D01*
X124749853Y-82133616D01*
X124636627Y-82167963D01*
X124570443Y-82174481D01*
X124504260Y-82181000D01*
X124415740Y-82181000D01*
X124349557Y-82174481D01*
X124283373Y-82167963D01*
X124170147Y-82133616D01*
X124113533Y-82116443D01*
X123957011Y-82032779D01*
X123957009Y-82032778D01*
X123921271Y-82003448D01*
X123819814Y-81920186D01*
X123736552Y-81818729D01*
X123707222Y-81782991D01*
X123675209Y-81723100D01*
X123623557Y-81626467D01*
X123605891Y-81568228D01*
X123572037Y-81456627D01*
X123554641Y-81280000D01*
X123572037Y-81103373D01*
X123623557Y-80933534D01*
X123623557Y-80933533D01*
X123707221Y-80777011D01*
X123707222Y-80777009D01*
X123736552Y-80741271D01*
X123819814Y-80639814D01*
X123921271Y-80556552D01*
X123957009Y-80527222D01*
X124004751Y-80501703D01*
X124113533Y-80443557D01*
X124170147Y-80426384D01*
X124283373Y-80392037D01*
X124349558Y-80385518D01*
X124415740Y-80379000D01*
X124504260Y-80379000D01*
X124570442Y-80385518D01*
X124570442Y-80385518D01*
G37*
G36*
X122030442Y-80385518D02*
X122096627Y-80392037D01*
X122209853Y-80426384D01*
X122266467Y-80443557D01*
X122375249Y-80501703D01*
X122422991Y-80527222D01*
X122458729Y-80556552D01*
X122560186Y-80639814D01*
X122643448Y-80741271D01*
X122672778Y-80777009D01*
X122672779Y-80777011D01*
X122756443Y-80933533D01*
X122756443Y-80933534D01*
X122807963Y-81103373D01*
X122825359Y-81280000D01*
X122807963Y-81456627D01*
X122774109Y-81568228D01*
X122756443Y-81626467D01*
X122704791Y-81723100D01*
X122672778Y-81782991D01*
X122643448Y-81818729D01*
X122560186Y-81920186D01*
X122458729Y-82003448D01*
X122422991Y-82032778D01*
X122422989Y-82032779D01*
X122266467Y-82116443D01*
X122209853Y-82133616D01*
X122096627Y-82167963D01*
X122030443Y-82174481D01*
X121964260Y-82181000D01*
X121875740Y-82181000D01*
X121809557Y-82174481D01*
X121743373Y-82167963D01*
X121630147Y-82133616D01*
X121573533Y-82116443D01*
X121417011Y-82032779D01*
X121417009Y-82032778D01*
X121381271Y-82003448D01*
X121279814Y-81920186D01*
X121196552Y-81818729D01*
X121167222Y-81782991D01*
X121135209Y-81723100D01*
X121083557Y-81626467D01*
X121065891Y-81568228D01*
X121032037Y-81456627D01*
X121014641Y-81280000D01*
X121032037Y-81103373D01*
X121083557Y-80933534D01*
X121083557Y-80933533D01*
X121167221Y-80777011D01*
X121167222Y-80777009D01*
X121196552Y-80741271D01*
X121279814Y-80639814D01*
X121381271Y-80556552D01*
X121417009Y-80527222D01*
X121464751Y-80501703D01*
X121573533Y-80443557D01*
X121630147Y-80426384D01*
X121743373Y-80392037D01*
X121809558Y-80385518D01*
X121875740Y-80379000D01*
X121964260Y-80379000D01*
X122030442Y-80385518D01*
X122030442Y-80385518D01*
G37*
G36*
X157590442Y-80385518D02*
X157656627Y-80392037D01*
X157769853Y-80426384D01*
X157826467Y-80443557D01*
X157935249Y-80501703D01*
X157982991Y-80527222D01*
X158018729Y-80556552D01*
X158120186Y-80639814D01*
X158203448Y-80741271D01*
X158232778Y-80777009D01*
X158232779Y-80777011D01*
X158316443Y-80933533D01*
X158316443Y-80933534D01*
X158367963Y-81103373D01*
X158385359Y-81280000D01*
X158367963Y-81456627D01*
X158334109Y-81568228D01*
X158316443Y-81626467D01*
X158264791Y-81723100D01*
X158232778Y-81782991D01*
X158203448Y-81818729D01*
X158120186Y-81920186D01*
X158018729Y-82003448D01*
X157982991Y-82032778D01*
X157982989Y-82032779D01*
X157826467Y-82116443D01*
X157769853Y-82133616D01*
X157656627Y-82167963D01*
X157590443Y-82174481D01*
X157524260Y-82181000D01*
X157435740Y-82181000D01*
X157369557Y-82174481D01*
X157303373Y-82167963D01*
X157190147Y-82133616D01*
X157133533Y-82116443D01*
X156977011Y-82032779D01*
X156977009Y-82032778D01*
X156941271Y-82003448D01*
X156839814Y-81920186D01*
X156756552Y-81818729D01*
X156727222Y-81782991D01*
X156695209Y-81723100D01*
X156643557Y-81626467D01*
X156625891Y-81568228D01*
X156592037Y-81456627D01*
X156574641Y-81280000D01*
X156592037Y-81103373D01*
X156643557Y-80933534D01*
X156643557Y-80933533D01*
X156727221Y-80777011D01*
X156727222Y-80777009D01*
X156756552Y-80741271D01*
X156839814Y-80639814D01*
X156941271Y-80556552D01*
X156977009Y-80527222D01*
X157024751Y-80501703D01*
X157133533Y-80443557D01*
X157190147Y-80426384D01*
X157303373Y-80392037D01*
X157369558Y-80385518D01*
X157435740Y-80379000D01*
X157524260Y-80379000D01*
X157590442Y-80385518D01*
X157590442Y-80385518D01*
G37*
G36*
X119490442Y-80385518D02*
X119556627Y-80392037D01*
X119669853Y-80426384D01*
X119726467Y-80443557D01*
X119835249Y-80501703D01*
X119882991Y-80527222D01*
X119918729Y-80556552D01*
X120020186Y-80639814D01*
X120103448Y-80741271D01*
X120132778Y-80777009D01*
X120132779Y-80777011D01*
X120216443Y-80933533D01*
X120216443Y-80933534D01*
X120267963Y-81103373D01*
X120285359Y-81280000D01*
X120267963Y-81456627D01*
X120234109Y-81568228D01*
X120216443Y-81626467D01*
X120164791Y-81723100D01*
X120132778Y-81782991D01*
X120103448Y-81818729D01*
X120020186Y-81920186D01*
X119918729Y-82003448D01*
X119882991Y-82032778D01*
X119882989Y-82032779D01*
X119726467Y-82116443D01*
X119669853Y-82133616D01*
X119556627Y-82167963D01*
X119490443Y-82174481D01*
X119424260Y-82181000D01*
X119335740Y-82181000D01*
X119269557Y-82174481D01*
X119203373Y-82167963D01*
X119090147Y-82133616D01*
X119033533Y-82116443D01*
X118877011Y-82032779D01*
X118877009Y-82032778D01*
X118841271Y-82003448D01*
X118739814Y-81920186D01*
X118656552Y-81818729D01*
X118627222Y-81782991D01*
X118595209Y-81723100D01*
X118543557Y-81626467D01*
X118525891Y-81568228D01*
X118492037Y-81456627D01*
X118474641Y-81280000D01*
X118492037Y-81103373D01*
X118543557Y-80933534D01*
X118543557Y-80933533D01*
X118627221Y-80777011D01*
X118627222Y-80777009D01*
X118656552Y-80741271D01*
X118739814Y-80639814D01*
X118841271Y-80556552D01*
X118877009Y-80527222D01*
X118924751Y-80501703D01*
X119033533Y-80443557D01*
X119090147Y-80426384D01*
X119203373Y-80392037D01*
X119269558Y-80385518D01*
X119335740Y-80379000D01*
X119424260Y-80379000D01*
X119490442Y-80385518D01*
X119490442Y-80385518D01*
G37*
G36*
X116950442Y-80385518D02*
X117016627Y-80392037D01*
X117129853Y-80426384D01*
X117186467Y-80443557D01*
X117295249Y-80501703D01*
X117342991Y-80527222D01*
X117378729Y-80556552D01*
X117480186Y-80639814D01*
X117563448Y-80741271D01*
X117592778Y-80777009D01*
X117592779Y-80777011D01*
X117676443Y-80933533D01*
X117676443Y-80933534D01*
X117727963Y-81103373D01*
X117745359Y-81280000D01*
X117727963Y-81456627D01*
X117694109Y-81568228D01*
X117676443Y-81626467D01*
X117624791Y-81723100D01*
X117592778Y-81782991D01*
X117563448Y-81818729D01*
X117480186Y-81920186D01*
X117378729Y-82003448D01*
X117342991Y-82032778D01*
X117342989Y-82032779D01*
X117186467Y-82116443D01*
X117129853Y-82133616D01*
X117016627Y-82167963D01*
X116950443Y-82174481D01*
X116884260Y-82181000D01*
X116795740Y-82181000D01*
X116729557Y-82174481D01*
X116663373Y-82167963D01*
X116550147Y-82133616D01*
X116493533Y-82116443D01*
X116337011Y-82032779D01*
X116337009Y-82032778D01*
X116301271Y-82003448D01*
X116199814Y-81920186D01*
X116116552Y-81818729D01*
X116087222Y-81782991D01*
X116055209Y-81723100D01*
X116003557Y-81626467D01*
X115985891Y-81568228D01*
X115952037Y-81456627D01*
X115934641Y-81280000D01*
X115952037Y-81103373D01*
X116003557Y-80933534D01*
X116003557Y-80933533D01*
X116087221Y-80777011D01*
X116087222Y-80777009D01*
X116116552Y-80741271D01*
X116199814Y-80639814D01*
X116301271Y-80556552D01*
X116337009Y-80527222D01*
X116384751Y-80501703D01*
X116493533Y-80443557D01*
X116550147Y-80426384D01*
X116663373Y-80392037D01*
X116729558Y-80385518D01*
X116795740Y-80379000D01*
X116884260Y-80379000D01*
X116950442Y-80385518D01*
X116950442Y-80385518D01*
G37*
G36*
X78371000Y-82181000D02*
X76569000Y-82181000D01*
X76569000Y-80379000D01*
X78371000Y-80379000D01*
X78371000Y-82181000D01*
X78371000Y-82181000D01*
G37*
G36*
X114410442Y-80385518D02*
X114476627Y-80392037D01*
X114589853Y-80426384D01*
X114646467Y-80443557D01*
X114755249Y-80501703D01*
X114802991Y-80527222D01*
X114838729Y-80556552D01*
X114940186Y-80639814D01*
X115023448Y-80741271D01*
X115052778Y-80777009D01*
X115052779Y-80777011D01*
X115136443Y-80933533D01*
X115136443Y-80933534D01*
X115187963Y-81103373D01*
X115205359Y-81280000D01*
X115187963Y-81456627D01*
X115154109Y-81568228D01*
X115136443Y-81626467D01*
X115084791Y-81723100D01*
X115052778Y-81782991D01*
X115023448Y-81818729D01*
X114940186Y-81920186D01*
X114838729Y-82003448D01*
X114802991Y-82032778D01*
X114802989Y-82032779D01*
X114646467Y-82116443D01*
X114589853Y-82133616D01*
X114476627Y-82167963D01*
X114410443Y-82174481D01*
X114344260Y-82181000D01*
X114255740Y-82181000D01*
X114189557Y-82174481D01*
X114123373Y-82167963D01*
X114010147Y-82133616D01*
X113953533Y-82116443D01*
X113797011Y-82032779D01*
X113797009Y-82032778D01*
X113761271Y-82003448D01*
X113659814Y-81920186D01*
X113576552Y-81818729D01*
X113547222Y-81782991D01*
X113515209Y-81723100D01*
X113463557Y-81626467D01*
X113445891Y-81568228D01*
X113412037Y-81456627D01*
X113394641Y-81280000D01*
X113412037Y-81103373D01*
X113463557Y-80933534D01*
X113463557Y-80933533D01*
X113547221Y-80777011D01*
X113547222Y-80777009D01*
X113576552Y-80741271D01*
X113659814Y-80639814D01*
X113761271Y-80556552D01*
X113797009Y-80527222D01*
X113844751Y-80501703D01*
X113953533Y-80443557D01*
X114010147Y-80426384D01*
X114123373Y-80392037D01*
X114189558Y-80385518D01*
X114255740Y-80379000D01*
X114344260Y-80379000D01*
X114410442Y-80385518D01*
X114410442Y-80385518D01*
G37*
G36*
X111870442Y-80385518D02*
X111936627Y-80392037D01*
X112049853Y-80426384D01*
X112106467Y-80443557D01*
X112215249Y-80501703D01*
X112262991Y-80527222D01*
X112298729Y-80556552D01*
X112400186Y-80639814D01*
X112483448Y-80741271D01*
X112512778Y-80777009D01*
X112512779Y-80777011D01*
X112596443Y-80933533D01*
X112596443Y-80933534D01*
X112647963Y-81103373D01*
X112665359Y-81280000D01*
X112647963Y-81456627D01*
X112614109Y-81568228D01*
X112596443Y-81626467D01*
X112544791Y-81723100D01*
X112512778Y-81782991D01*
X112483448Y-81818729D01*
X112400186Y-81920186D01*
X112298729Y-82003448D01*
X112262991Y-82032778D01*
X112262989Y-82032779D01*
X112106467Y-82116443D01*
X112049853Y-82133616D01*
X111936627Y-82167963D01*
X111870443Y-82174481D01*
X111804260Y-82181000D01*
X111715740Y-82181000D01*
X111649557Y-82174481D01*
X111583373Y-82167963D01*
X111470147Y-82133616D01*
X111413533Y-82116443D01*
X111257011Y-82032779D01*
X111257009Y-82032778D01*
X111221271Y-82003448D01*
X111119814Y-81920186D01*
X111036552Y-81818729D01*
X111007222Y-81782991D01*
X110975209Y-81723100D01*
X110923557Y-81626467D01*
X110905891Y-81568228D01*
X110872037Y-81456627D01*
X110854641Y-81280000D01*
X110872037Y-81103373D01*
X110923557Y-80933534D01*
X110923557Y-80933533D01*
X111007221Y-80777011D01*
X111007222Y-80777009D01*
X111036552Y-80741271D01*
X111119814Y-80639814D01*
X111221271Y-80556552D01*
X111257009Y-80527222D01*
X111304751Y-80501703D01*
X111413533Y-80443557D01*
X111470147Y-80426384D01*
X111583373Y-80392037D01*
X111649558Y-80385518D01*
X111715740Y-80379000D01*
X111804260Y-80379000D01*
X111870442Y-80385518D01*
X111870442Y-80385518D01*
G37*
G36*
X95498228Y-80501703D02*
X95653100Y-80565853D01*
X95792481Y-80658985D01*
X95911015Y-80777519D01*
X96004147Y-80916900D01*
X96068297Y-81071772D01*
X96101000Y-81236184D01*
X96101000Y-81403816D01*
X96068297Y-81568228D01*
X96004147Y-81723100D01*
X95911015Y-81862481D01*
X95792481Y-81981015D01*
X95653100Y-82074147D01*
X95498228Y-82138297D01*
X95333816Y-82171000D01*
X95166184Y-82171000D01*
X95001772Y-82138297D01*
X94846900Y-82074147D01*
X94707519Y-81981015D01*
X94588985Y-81862481D01*
X94495853Y-81723100D01*
X94431703Y-81568228D01*
X94399000Y-81403816D01*
X94399000Y-81236184D01*
X94431703Y-81071772D01*
X94495853Y-80916900D01*
X94588985Y-80777519D01*
X94707519Y-80658985D01*
X94846900Y-80565853D01*
X95001772Y-80501703D01*
X95166184Y-80469000D01*
X95333816Y-80469000D01*
X95498228Y-80501703D01*
X95498228Y-80501703D01*
G37*
G36*
X157590443Y-77845519D02*
X157656627Y-77852037D01*
X157769853Y-77886384D01*
X157826467Y-77903557D01*
X157965087Y-77977652D01*
X157982991Y-77987222D01*
X158018729Y-78016552D01*
X158120186Y-78099814D01*
X158203448Y-78201271D01*
X158232778Y-78237009D01*
X158232779Y-78237011D01*
X158316443Y-78393533D01*
X158316443Y-78393534D01*
X158367963Y-78563373D01*
X158385359Y-78740000D01*
X158367963Y-78916627D01*
X158333616Y-79029853D01*
X158316443Y-79086467D01*
X158242348Y-79225087D01*
X158232778Y-79242991D01*
X158203448Y-79278729D01*
X158120186Y-79380186D01*
X158018729Y-79463448D01*
X157982991Y-79492778D01*
X157982989Y-79492779D01*
X157826467Y-79576443D01*
X157769853Y-79593616D01*
X157656627Y-79627963D01*
X157590442Y-79634482D01*
X157524260Y-79641000D01*
X157435740Y-79641000D01*
X157369558Y-79634482D01*
X157303373Y-79627963D01*
X157190147Y-79593616D01*
X157133533Y-79576443D01*
X156977011Y-79492779D01*
X156977009Y-79492778D01*
X156941271Y-79463448D01*
X156839814Y-79380186D01*
X156756552Y-79278729D01*
X156727222Y-79242991D01*
X156717652Y-79225087D01*
X156643557Y-79086467D01*
X156626384Y-79029853D01*
X156592037Y-78916627D01*
X156574641Y-78740000D01*
X156592037Y-78563373D01*
X156643557Y-78393534D01*
X156643557Y-78393533D01*
X156727221Y-78237011D01*
X156727222Y-78237009D01*
X156756552Y-78201271D01*
X156839814Y-78099814D01*
X156941271Y-78016552D01*
X156977009Y-77987222D01*
X156994913Y-77977652D01*
X157133533Y-77903557D01*
X157190147Y-77886384D01*
X157303373Y-77852037D01*
X157369557Y-77845519D01*
X157435740Y-77839000D01*
X157524260Y-77839000D01*
X157590443Y-77845519D01*
X157590443Y-77845519D01*
G37*
G36*
X144890443Y-77845519D02*
X144956627Y-77852037D01*
X145069853Y-77886384D01*
X145126467Y-77903557D01*
X145265087Y-77977652D01*
X145282991Y-77987222D01*
X145318729Y-78016552D01*
X145420186Y-78099814D01*
X145503448Y-78201271D01*
X145532778Y-78237009D01*
X145532779Y-78237011D01*
X145616443Y-78393533D01*
X145616443Y-78393534D01*
X145667963Y-78563373D01*
X145685359Y-78740000D01*
X145667963Y-78916627D01*
X145633616Y-79029853D01*
X145616443Y-79086467D01*
X145542348Y-79225087D01*
X145532778Y-79242991D01*
X145503448Y-79278729D01*
X145420186Y-79380186D01*
X145318729Y-79463448D01*
X145282991Y-79492778D01*
X145282989Y-79492779D01*
X145126467Y-79576443D01*
X145069853Y-79593616D01*
X144956627Y-79627963D01*
X144890442Y-79634482D01*
X144824260Y-79641000D01*
X144735740Y-79641000D01*
X144669558Y-79634482D01*
X144603373Y-79627963D01*
X144490147Y-79593616D01*
X144433533Y-79576443D01*
X144277011Y-79492779D01*
X144277009Y-79492778D01*
X144241271Y-79463448D01*
X144139814Y-79380186D01*
X144056552Y-79278729D01*
X144027222Y-79242991D01*
X144017652Y-79225087D01*
X143943557Y-79086467D01*
X143926384Y-79029853D01*
X143892037Y-78916627D01*
X143874641Y-78740000D01*
X143892037Y-78563373D01*
X143943557Y-78393534D01*
X143943557Y-78393533D01*
X144027221Y-78237011D01*
X144027222Y-78237009D01*
X144056552Y-78201271D01*
X144139814Y-78099814D01*
X144241271Y-78016552D01*
X144277009Y-77987222D01*
X144294913Y-77977652D01*
X144433533Y-77903557D01*
X144490147Y-77886384D01*
X144603373Y-77852037D01*
X144669557Y-77845519D01*
X144735740Y-77839000D01*
X144824260Y-77839000D01*
X144890443Y-77845519D01*
X144890443Y-77845519D01*
G37*
G36*
X157590442Y-75305518D02*
X157656627Y-75312037D01*
X157769853Y-75346384D01*
X157826467Y-75363557D01*
X157965087Y-75437652D01*
X157982991Y-75447222D01*
X158018729Y-75476552D01*
X158120186Y-75559814D01*
X158203448Y-75661271D01*
X158232778Y-75697009D01*
X158232779Y-75697011D01*
X158316443Y-75853533D01*
X158316443Y-75853534D01*
X158367963Y-76023373D01*
X158385359Y-76200000D01*
X158367963Y-76376627D01*
X158333616Y-76489853D01*
X158316443Y-76546467D01*
X158242348Y-76685087D01*
X158232778Y-76702991D01*
X158203448Y-76738729D01*
X158120186Y-76840186D01*
X158018729Y-76923448D01*
X157982991Y-76952778D01*
X157982989Y-76952779D01*
X157826467Y-77036443D01*
X157769853Y-77053616D01*
X157656627Y-77087963D01*
X157590442Y-77094482D01*
X157524260Y-77101000D01*
X157435740Y-77101000D01*
X157369558Y-77094482D01*
X157303373Y-77087963D01*
X157190147Y-77053616D01*
X157133533Y-77036443D01*
X156977011Y-76952779D01*
X156977009Y-76952778D01*
X156941271Y-76923448D01*
X156839814Y-76840186D01*
X156756552Y-76738729D01*
X156727222Y-76702991D01*
X156717652Y-76685087D01*
X156643557Y-76546467D01*
X156626384Y-76489853D01*
X156592037Y-76376627D01*
X156574641Y-76200000D01*
X156592037Y-76023373D01*
X156643557Y-75853534D01*
X156643557Y-75853533D01*
X156727221Y-75697011D01*
X156727222Y-75697009D01*
X156756552Y-75661271D01*
X156839814Y-75559814D01*
X156941271Y-75476552D01*
X156977009Y-75447222D01*
X156994913Y-75437652D01*
X157133533Y-75363557D01*
X157190147Y-75346384D01*
X157303373Y-75312037D01*
X157369558Y-75305518D01*
X157435740Y-75299000D01*
X157524260Y-75299000D01*
X157590442Y-75305518D01*
X157590442Y-75305518D01*
G37*
G36*
X144890442Y-75305518D02*
X144956627Y-75312037D01*
X145069853Y-75346384D01*
X145126467Y-75363557D01*
X145265087Y-75437652D01*
X145282991Y-75447222D01*
X145318729Y-75476552D01*
X145420186Y-75559814D01*
X145503448Y-75661271D01*
X145532778Y-75697009D01*
X145532779Y-75697011D01*
X145616443Y-75853533D01*
X145616443Y-75853534D01*
X145667963Y-76023373D01*
X145685359Y-76200000D01*
X145667963Y-76376627D01*
X145633616Y-76489853D01*
X145616443Y-76546467D01*
X145542348Y-76685087D01*
X145532778Y-76702991D01*
X145503448Y-76738729D01*
X145420186Y-76840186D01*
X145318729Y-76923448D01*
X145282991Y-76952778D01*
X145282989Y-76952779D01*
X145126467Y-77036443D01*
X145069853Y-77053616D01*
X144956627Y-77087963D01*
X144890442Y-77094482D01*
X144824260Y-77101000D01*
X144735740Y-77101000D01*
X144669558Y-77094482D01*
X144603373Y-77087963D01*
X144490147Y-77053616D01*
X144433533Y-77036443D01*
X144277011Y-76952779D01*
X144277009Y-76952778D01*
X144241271Y-76923448D01*
X144139814Y-76840186D01*
X144056552Y-76738729D01*
X144027222Y-76702991D01*
X144017652Y-76685087D01*
X143943557Y-76546467D01*
X143926384Y-76489853D01*
X143892037Y-76376627D01*
X143874641Y-76200000D01*
X143892037Y-76023373D01*
X143943557Y-75853534D01*
X143943557Y-75853533D01*
X144027221Y-75697011D01*
X144027222Y-75697009D01*
X144056552Y-75661271D01*
X144139814Y-75559814D01*
X144241271Y-75476552D01*
X144277009Y-75447222D01*
X144294913Y-75437652D01*
X144433533Y-75363557D01*
X144490147Y-75346384D01*
X144603373Y-75312037D01*
X144669558Y-75305518D01*
X144735740Y-75299000D01*
X144824260Y-75299000D01*
X144890442Y-75305518D01*
X144890442Y-75305518D01*
G37*
G36*
X158381000Y-74561000D02*
X156579000Y-74561000D01*
X156579000Y-72759000D01*
X158381000Y-72759000D01*
X158381000Y-74561000D01*
X158381000Y-74561000D01*
G37*
G36*
X145681000Y-74561000D02*
X143879000Y-74561000D01*
X143879000Y-72759000D01*
X145681000Y-72759000D01*
X145681000Y-74561000D01*
X145681000Y-74561000D01*
G37*
G36*
X91688228Y-71571703D02*
X91843100Y-71635853D01*
X91982481Y-71728985D01*
X92101015Y-71847519D01*
X92194147Y-71986900D01*
X92258297Y-72141772D01*
X92291000Y-72306184D01*
X92291000Y-72473816D01*
X92258297Y-72638228D01*
X92194147Y-72793100D01*
X92101015Y-72932481D01*
X91982481Y-73051015D01*
X91843100Y-73144147D01*
X91688228Y-73208297D01*
X91523816Y-73241000D01*
X91356184Y-73241000D01*
X91191772Y-73208297D01*
X91036900Y-73144147D01*
X90897519Y-73051015D01*
X90778985Y-72932481D01*
X90685853Y-72793100D01*
X90621703Y-72638228D01*
X90589000Y-72473816D01*
X90589000Y-72306184D01*
X90621703Y-72141772D01*
X90685853Y-71986900D01*
X90778985Y-71847519D01*
X90897519Y-71728985D01*
X91036900Y-71635853D01*
X91191772Y-71571703D01*
X91356184Y-71539000D01*
X91523816Y-71539000D01*
X91688228Y-71571703D01*
X91688228Y-71571703D01*
G37*
G36*
X99308228Y-71571703D02*
X99463100Y-71635853D01*
X99602481Y-71728985D01*
X99721015Y-71847519D01*
X99814147Y-71986900D01*
X99878297Y-72141772D01*
X99911000Y-72306184D01*
X99911000Y-72473816D01*
X99878297Y-72638228D01*
X99814147Y-72793100D01*
X99721015Y-72932481D01*
X99602481Y-73051015D01*
X99463100Y-73144147D01*
X99308228Y-73208297D01*
X99143816Y-73241000D01*
X98976184Y-73241000D01*
X98811772Y-73208297D01*
X98656900Y-73144147D01*
X98517519Y-73051015D01*
X98398985Y-72932481D01*
X98305853Y-72793100D01*
X98241703Y-72638228D01*
X98209000Y-72473816D01*
X98209000Y-72306184D01*
X98241703Y-72141772D01*
X98305853Y-71986900D01*
X98398985Y-71847519D01*
X98517519Y-71728985D01*
X98656900Y-71635853D01*
X98811772Y-71571703D01*
X98976184Y-71539000D01*
X99143816Y-71539000D01*
X99308228Y-71571703D01*
X99308228Y-71571703D01*
G37*
G36*
X81991120Y-72265740D02*
X80619120Y-72265740D01*
X80619120Y-70893740D01*
X81991120Y-70893740D01*
X81991120Y-72265740D01*
X81991120Y-72265740D01*
G37*
G36*
X112008228Y-69031703D02*
X112163100Y-69095853D01*
X112302481Y-69188985D01*
X112421015Y-69307519D01*
X112514147Y-69446900D01*
X112578297Y-69601772D01*
X112611000Y-69766184D01*
X112611000Y-69933816D01*
X112578297Y-70098228D01*
X112514147Y-70253100D01*
X112421015Y-70392481D01*
X112302481Y-70511015D01*
X112163100Y-70604147D01*
X112008228Y-70668297D01*
X111843816Y-70701000D01*
X111676184Y-70701000D01*
X111511772Y-70668297D01*
X111356900Y-70604147D01*
X111217519Y-70511015D01*
X111098985Y-70392481D01*
X111005853Y-70253100D01*
X110941703Y-70098228D01*
X110909000Y-69933816D01*
X110909000Y-69766184D01*
X110941703Y-69601772D01*
X111005853Y-69446900D01*
X111098985Y-69307519D01*
X111217519Y-69188985D01*
X111356900Y-69095853D01*
X111511772Y-69031703D01*
X111676184Y-68999000D01*
X111843816Y-68999000D01*
X112008228Y-69031703D01*
X112008228Y-69031703D01*
G37*
G36*
X81505098Y-68918582D02*
X81629940Y-68970293D01*
X81742303Y-69045372D01*
X81837848Y-69140917D01*
X81912927Y-69253280D01*
X81964638Y-69378122D01*
X81991000Y-69510653D01*
X81991000Y-69645787D01*
X81964638Y-69778318D01*
X81912927Y-69903160D01*
X81837848Y-70015523D01*
X81742303Y-70111068D01*
X81629940Y-70186147D01*
X81505098Y-70237858D01*
X81372567Y-70264220D01*
X81237433Y-70264220D01*
X81104902Y-70237858D01*
X80980060Y-70186147D01*
X80867697Y-70111068D01*
X80772152Y-70015523D01*
X80697073Y-69903160D01*
X80645362Y-69778318D01*
X80619000Y-69645787D01*
X80619000Y-69510653D01*
X80645362Y-69378122D01*
X80697073Y-69253280D01*
X80772152Y-69140917D01*
X80867697Y-69045372D01*
X80980060Y-68970293D01*
X81104902Y-68918582D01*
X81237433Y-68892220D01*
X81372567Y-68892220D01*
X81505098Y-68918582D01*
X81505098Y-68918582D01*
G37*
G36*
X81505098Y-66922142D02*
X81629940Y-66973853D01*
X81742303Y-67048932D01*
X81837848Y-67144477D01*
X81912927Y-67256840D01*
X81964638Y-67381682D01*
X81991000Y-67514213D01*
X81991000Y-67649347D01*
X81964638Y-67781878D01*
X81912927Y-67906720D01*
X81837848Y-68019083D01*
X81742303Y-68114628D01*
X81629940Y-68189707D01*
X81505098Y-68241418D01*
X81372567Y-68267780D01*
X81237433Y-68267780D01*
X81104902Y-68241418D01*
X80980060Y-68189707D01*
X80867697Y-68114628D01*
X80772152Y-68019083D01*
X80697073Y-67906720D01*
X80645362Y-67781878D01*
X80619000Y-67649347D01*
X80619000Y-67514213D01*
X80645362Y-67381682D01*
X80697073Y-67256840D01*
X80772152Y-67144477D01*
X80867697Y-67048932D01*
X80980060Y-66973853D01*
X81104902Y-66922142D01*
X81237433Y-66895780D01*
X81372567Y-66895780D01*
X81505098Y-66922142D01*
X81505098Y-66922142D01*
G37*
G36*
X112008228Y-66531703D02*
X112163100Y-66595853D01*
X112302481Y-66688985D01*
X112421015Y-66807519D01*
X112514147Y-66946900D01*
X112578297Y-67101772D01*
X112611000Y-67266184D01*
X112611000Y-67433816D01*
X112578297Y-67598228D01*
X112514147Y-67753100D01*
X112421015Y-67892481D01*
X112302481Y-68011015D01*
X112163100Y-68104147D01*
X112008228Y-68168297D01*
X111843816Y-68201000D01*
X111676184Y-68201000D01*
X111511772Y-68168297D01*
X111356900Y-68104147D01*
X111217519Y-68011015D01*
X111098985Y-67892481D01*
X111005853Y-67753100D01*
X110941703Y-67598228D01*
X110909000Y-67433816D01*
X110909000Y-67266184D01*
X110941703Y-67101772D01*
X111005853Y-66946900D01*
X111098985Y-66807519D01*
X111217519Y-66688985D01*
X111356900Y-66595853D01*
X111511772Y-66531703D01*
X111676184Y-66499000D01*
X111843816Y-66499000D01*
X112008228Y-66531703D01*
X112008228Y-66531703D01*
G37*
G36*
X81505098Y-64920622D02*
X81629940Y-64972333D01*
X81742303Y-65047412D01*
X81837848Y-65142957D01*
X81837850Y-65142960D01*
X81837851Y-65142961D01*
X81912925Y-65255317D01*
X81912927Y-65255320D01*
X81964638Y-65380162D01*
X81991000Y-65512693D01*
X81991000Y-65647827D01*
X81964638Y-65780358D01*
X81912927Y-65905200D01*
X81837848Y-66017563D01*
X81742303Y-66113108D01*
X81629940Y-66188187D01*
X81505098Y-66239898D01*
X81372567Y-66266260D01*
X81237433Y-66266260D01*
X81104902Y-66239898D01*
X80980060Y-66188187D01*
X80867697Y-66113108D01*
X80772152Y-66017563D01*
X80697073Y-65905200D01*
X80645362Y-65780358D01*
X80619000Y-65647827D01*
X80619000Y-65512693D01*
X80645362Y-65380162D01*
X80697073Y-65255320D01*
X80697075Y-65255317D01*
X80772149Y-65142961D01*
X80772150Y-65142960D01*
X80772152Y-65142957D01*
X80867697Y-65047412D01*
X80980060Y-64972333D01*
X81104902Y-64920622D01*
X81237433Y-64894260D01*
X81372567Y-64894260D01*
X81505098Y-64920622D01*
X81505098Y-64920622D01*
G37*
G36*
X91606821Y-63931313D02*
X91606824Y-63931314D01*
X91606825Y-63931314D01*
X91767239Y-63979975D01*
X91767241Y-63979976D01*
X91767244Y-63979977D01*
X91915078Y-64058995D01*
X92044659Y-64165341D01*
X92151005Y-64294922D01*
X92230023Y-64442756D01*
X92278687Y-64603179D01*
X92295117Y-64770000D01*
X92278687Y-64936821D01*
X92278686Y-64936824D01*
X92278686Y-64936825D01*
X92245140Y-65047412D01*
X92230023Y-65097244D01*
X92151005Y-65245078D01*
X92044659Y-65374659D01*
X91915078Y-65481005D01*
X91767244Y-65560023D01*
X91767241Y-65560024D01*
X91767239Y-65560025D01*
X91606825Y-65608686D01*
X91606824Y-65608686D01*
X91606821Y-65608687D01*
X91481804Y-65621000D01*
X91398196Y-65621000D01*
X91273179Y-65608687D01*
X91273176Y-65608686D01*
X91273175Y-65608686D01*
X91112761Y-65560025D01*
X91112759Y-65560024D01*
X91112756Y-65560023D01*
X90964922Y-65481005D01*
X90835341Y-65374659D01*
X90728995Y-65245078D01*
X90649977Y-65097244D01*
X90634861Y-65047412D01*
X90601314Y-64936825D01*
X90601314Y-64936824D01*
X90601313Y-64936821D01*
X90584883Y-64770000D01*
X90601313Y-64603179D01*
X90649977Y-64442756D01*
X90728995Y-64294922D01*
X90835341Y-64165341D01*
X90964922Y-64058995D01*
X91112756Y-63979977D01*
X91112759Y-63979976D01*
X91112761Y-63979975D01*
X91273175Y-63931314D01*
X91273176Y-63931314D01*
X91273179Y-63931313D01*
X91398196Y-63919000D01*
X91481804Y-63919000D01*
X91606821Y-63931313D01*
X91606821Y-63931313D01*
G37*
G36*
X99226821Y-63931313D02*
X99226824Y-63931314D01*
X99226825Y-63931314D01*
X99387239Y-63979975D01*
X99387241Y-63979976D01*
X99387244Y-63979977D01*
X99535078Y-64058995D01*
X99664659Y-64165341D01*
X99771005Y-64294922D01*
X99850023Y-64442756D01*
X99898687Y-64603179D01*
X99915117Y-64770000D01*
X99898687Y-64936821D01*
X99898686Y-64936824D01*
X99898686Y-64936825D01*
X99865140Y-65047412D01*
X99850023Y-65097244D01*
X99771005Y-65245078D01*
X99664659Y-65374659D01*
X99535078Y-65481005D01*
X99387244Y-65560023D01*
X99387241Y-65560024D01*
X99387239Y-65560025D01*
X99226825Y-65608686D01*
X99226824Y-65608686D01*
X99226821Y-65608687D01*
X99101804Y-65621000D01*
X99018196Y-65621000D01*
X98893179Y-65608687D01*
X98893176Y-65608686D01*
X98893175Y-65608686D01*
X98732761Y-65560025D01*
X98732759Y-65560024D01*
X98732756Y-65560023D01*
X98584922Y-65481005D01*
X98455341Y-65374659D01*
X98348995Y-65245078D01*
X98269977Y-65097244D01*
X98254861Y-65047412D01*
X98221314Y-64936825D01*
X98221314Y-64936824D01*
X98221313Y-64936821D01*
X98204883Y-64770000D01*
X98221313Y-64603179D01*
X98269977Y-64442756D01*
X98348995Y-64294922D01*
X98455341Y-64165341D01*
X98584922Y-64058995D01*
X98732756Y-63979977D01*
X98732759Y-63979976D01*
X98732761Y-63979975D01*
X98893175Y-63931314D01*
X98893176Y-63931314D01*
X98893179Y-63931313D01*
X99018196Y-63919000D01*
X99101804Y-63919000D01*
X99226821Y-63931313D01*
X99226821Y-63931313D01*
G37*
G36*
X157757396Y-62585546D02*
X157930466Y-62657234D01*
X158086230Y-62761312D01*
X158218688Y-62893770D01*
X158322766Y-63049534D01*
X158394454Y-63222604D01*
X158431000Y-63406333D01*
X158431000Y-63593667D01*
X158394454Y-63777396D01*
X158322766Y-63950466D01*
X158218688Y-64106230D01*
X158086230Y-64238688D01*
X157930466Y-64342766D01*
X157757396Y-64414454D01*
X157573667Y-64451000D01*
X157386333Y-64451000D01*
X157202604Y-64414454D01*
X157029534Y-64342766D01*
X156873770Y-64238688D01*
X156741312Y-64106230D01*
X156637234Y-63950466D01*
X156565546Y-63777396D01*
X156529000Y-63593667D01*
X156529000Y-63406333D01*
X156565546Y-63222604D01*
X156637234Y-63049534D01*
X156741312Y-62893770D01*
X156873770Y-62761312D01*
X157029534Y-62657234D01*
X157202604Y-62585546D01*
X157386333Y-62549000D01*
X157573667Y-62549000D01*
X157757396Y-62585546D01*
X157757396Y-62585546D01*
G37*
G36*
X160971000Y-64451000D02*
X159069000Y-64451000D01*
X159069000Y-62549000D01*
X160971000Y-62549000D01*
X160971000Y-64451000D01*
X160971000Y-64451000D01*
G37*
G36*
X152648228Y-62681703D02*
X152803100Y-62745853D01*
X152942481Y-62838985D01*
X153061015Y-62957519D01*
X153154147Y-63096900D01*
X153218297Y-63251772D01*
X153251000Y-63416184D01*
X153251000Y-63583816D01*
X153218297Y-63748228D01*
X153154147Y-63903100D01*
X153061015Y-64042481D01*
X152942481Y-64161015D01*
X152803100Y-64254147D01*
X152648228Y-64318297D01*
X152483816Y-64351000D01*
X152316184Y-64351000D01*
X152151772Y-64318297D01*
X151996900Y-64254147D01*
X151857519Y-64161015D01*
X151738985Y-64042481D01*
X151645853Y-63903100D01*
X151581703Y-63748228D01*
X151549000Y-63583816D01*
X151549000Y-63416184D01*
X151581703Y-63251772D01*
X151645853Y-63096900D01*
X151738985Y-62957519D01*
X151857519Y-62838985D01*
X151996900Y-62745853D01*
X152151772Y-62681703D01*
X152316184Y-62649000D01*
X152483816Y-62649000D01*
X152648228Y-62681703D01*
X152648228Y-62681703D01*
G37*
G36*
X144946821Y-62661313D02*
X144946824Y-62661314D01*
X144946825Y-62661314D01*
X145107239Y-62709975D01*
X145107241Y-62709976D01*
X145107244Y-62709977D01*
X145255078Y-62788995D01*
X145384659Y-62895341D01*
X145491005Y-63024922D01*
X145570023Y-63172756D01*
X145570024Y-63172759D01*
X145570025Y-63172761D01*
X145618686Y-63333175D01*
X145618687Y-63333179D01*
X145635117Y-63500000D01*
X145618687Y-63666821D01*
X145618686Y-63666824D01*
X145618686Y-63666825D01*
X145585145Y-63777396D01*
X145570023Y-63827244D01*
X145491005Y-63975078D01*
X145384659Y-64104659D01*
X145255078Y-64211005D01*
X145107244Y-64290023D01*
X145107241Y-64290024D01*
X145107239Y-64290025D01*
X144946825Y-64338686D01*
X144946824Y-64338686D01*
X144946821Y-64338687D01*
X144821804Y-64351000D01*
X144738196Y-64351000D01*
X144613179Y-64338687D01*
X144613176Y-64338686D01*
X144613175Y-64338686D01*
X144452761Y-64290025D01*
X144452759Y-64290024D01*
X144452756Y-64290023D01*
X144304922Y-64211005D01*
X144175341Y-64104659D01*
X144068995Y-63975078D01*
X143989977Y-63827244D01*
X143974856Y-63777396D01*
X143941314Y-63666825D01*
X143941314Y-63666824D01*
X143941313Y-63666821D01*
X143924883Y-63500000D01*
X143941313Y-63333179D01*
X143941314Y-63333175D01*
X143989975Y-63172761D01*
X143989976Y-63172759D01*
X143989977Y-63172756D01*
X144068995Y-63024922D01*
X144175341Y-62895341D01*
X144304922Y-62788995D01*
X144452756Y-62709977D01*
X144452759Y-62709976D01*
X144452761Y-62709975D01*
X144613175Y-62661314D01*
X144613176Y-62661314D01*
X144613179Y-62661313D01*
X144738196Y-62649000D01*
X144821804Y-62649000D01*
X144946821Y-62661313D01*
X144946821Y-62661313D01*
G37*
G36*
X89991565Y-55559389D02*
X90182834Y-55638615D01*
X90354976Y-55753637D01*
X90501363Y-55900024D01*
X90616385Y-56072166D01*
X90695611Y-56263435D01*
X90736000Y-56466484D01*
X90736000Y-56673516D01*
X90695611Y-56876565D01*
X90616385Y-57067834D01*
X90501363Y-57239976D01*
X90354976Y-57386363D01*
X90182834Y-57501385D01*
X89991565Y-57580611D01*
X89788516Y-57621000D01*
X89581484Y-57621000D01*
X89378435Y-57580611D01*
X89187166Y-57501385D01*
X89015024Y-57386363D01*
X88868637Y-57239976D01*
X88753615Y-57067834D01*
X88674389Y-56876565D01*
X88634000Y-56673516D01*
X88634000Y-56466484D01*
X88674389Y-56263435D01*
X88753615Y-56072166D01*
X88868637Y-55900024D01*
X89015024Y-55753637D01*
X89187166Y-55638615D01*
X89378435Y-55559389D01*
X89581484Y-55519000D01*
X89788516Y-55519000D01*
X89991565Y-55559389D01*
X89991565Y-55559389D01*
G37*
G36*
X83491565Y-55559389D02*
X83682834Y-55638615D01*
X83854976Y-55753637D01*
X84001363Y-55900024D01*
X84116385Y-56072166D01*
X84195611Y-56263435D01*
X84236000Y-56466484D01*
X84236000Y-56673516D01*
X84195611Y-56876565D01*
X84116385Y-57067834D01*
X84001363Y-57239976D01*
X83854976Y-57386363D01*
X83682834Y-57501385D01*
X83491565Y-57580611D01*
X83288516Y-57621000D01*
X83081484Y-57621000D01*
X82878435Y-57580611D01*
X82687166Y-57501385D01*
X82515024Y-57386363D01*
X82368637Y-57239976D01*
X82253615Y-57067834D01*
X82174389Y-56876565D01*
X82134000Y-56673516D01*
X82134000Y-56466484D01*
X82174389Y-56263435D01*
X82253615Y-56072166D01*
X82368637Y-55900024D01*
X82515024Y-55753637D01*
X82687166Y-55638615D01*
X82878435Y-55559389D01*
X83081484Y-55519000D01*
X83288516Y-55519000D01*
X83491565Y-55559389D01*
X83491565Y-55559389D01*
G37*
G36*
X160971000Y-56831000D02*
X159069000Y-56831000D01*
X159069000Y-54929000D01*
X160971000Y-54929000D01*
X160971000Y-56831000D01*
X160971000Y-56831000D01*
G37*
G36*
X157757396Y-54965546D02*
X157930466Y-55037234D01*
X158086230Y-55141312D01*
X158218688Y-55273770D01*
X158322766Y-55429534D01*
X158394454Y-55602604D01*
X158431000Y-55786333D01*
X158431000Y-55973667D01*
X158394454Y-56157396D01*
X158322766Y-56330466D01*
X158218688Y-56486230D01*
X158086230Y-56618688D01*
X157930466Y-56722766D01*
X157757396Y-56794454D01*
X157573667Y-56831000D01*
X157386333Y-56831000D01*
X157202604Y-56794454D01*
X157029534Y-56722766D01*
X156873770Y-56618688D01*
X156741312Y-56486230D01*
X156637234Y-56330466D01*
X156565546Y-56157396D01*
X156529000Y-55973667D01*
X156529000Y-55786333D01*
X156565546Y-55602604D01*
X156637234Y-55429534D01*
X156741312Y-55273770D01*
X156873770Y-55141312D01*
X157029534Y-55037234D01*
X157202604Y-54965546D01*
X157386333Y-54929000D01*
X157573667Y-54929000D01*
X157757396Y-54965546D01*
X157757396Y-54965546D01*
G37*
G36*
X116950443Y-54985519D02*
X117016627Y-54992037D01*
X117129853Y-55026384D01*
X117186467Y-55043557D01*
X117273311Y-55089977D01*
X117342991Y-55127222D01*
X117378729Y-55156552D01*
X117480186Y-55239814D01*
X117560369Y-55337519D01*
X117592778Y-55377009D01*
X117592779Y-55377011D01*
X117676443Y-55533533D01*
X117684286Y-55559389D01*
X117727963Y-55703373D01*
X117745359Y-55880000D01*
X117727963Y-56056627D01*
X117723249Y-56072166D01*
X117676443Y-56226467D01*
X117620853Y-56330467D01*
X117592778Y-56382991D01*
X117563448Y-56418729D01*
X117480186Y-56520186D01*
X117378729Y-56603448D01*
X117342991Y-56632778D01*
X117342989Y-56632779D01*
X117186467Y-56716443D01*
X117165622Y-56722766D01*
X117016627Y-56767963D01*
X116950443Y-56774481D01*
X116884260Y-56781000D01*
X116795740Y-56781000D01*
X116729557Y-56774481D01*
X116663373Y-56767963D01*
X116514378Y-56722766D01*
X116493533Y-56716443D01*
X116337011Y-56632779D01*
X116337009Y-56632778D01*
X116301271Y-56603448D01*
X116199814Y-56520186D01*
X116116552Y-56418729D01*
X116087222Y-56382991D01*
X116059147Y-56330467D01*
X116003557Y-56226467D01*
X115956751Y-56072166D01*
X115952037Y-56056627D01*
X115934641Y-55880000D01*
X115952037Y-55703373D01*
X115995714Y-55559389D01*
X116003557Y-55533533D01*
X116087221Y-55377011D01*
X116087222Y-55377009D01*
X116119631Y-55337519D01*
X116199814Y-55239814D01*
X116301271Y-55156552D01*
X116337009Y-55127222D01*
X116406689Y-55089977D01*
X116493533Y-55043557D01*
X116550147Y-55026384D01*
X116663373Y-54992037D01*
X116729557Y-54985519D01*
X116795740Y-54979000D01*
X116884260Y-54979000D01*
X116950443Y-54985519D01*
X116950443Y-54985519D01*
G37*
G36*
X132190443Y-54985519D02*
X132256627Y-54992037D01*
X132369853Y-55026384D01*
X132426467Y-55043557D01*
X132513311Y-55089977D01*
X132582991Y-55127222D01*
X132618729Y-55156552D01*
X132720186Y-55239814D01*
X132800369Y-55337519D01*
X132832778Y-55377009D01*
X132832779Y-55377011D01*
X132916443Y-55533533D01*
X132924286Y-55559389D01*
X132967963Y-55703373D01*
X132985359Y-55880000D01*
X132967963Y-56056627D01*
X132963249Y-56072166D01*
X132916443Y-56226467D01*
X132860853Y-56330467D01*
X132832778Y-56382991D01*
X132803448Y-56418729D01*
X132720186Y-56520186D01*
X132618729Y-56603448D01*
X132582991Y-56632778D01*
X132582989Y-56632779D01*
X132426467Y-56716443D01*
X132405622Y-56722766D01*
X132256627Y-56767963D01*
X132190443Y-56774481D01*
X132124260Y-56781000D01*
X132035740Y-56781000D01*
X131969557Y-56774481D01*
X131903373Y-56767963D01*
X131754378Y-56722766D01*
X131733533Y-56716443D01*
X131577011Y-56632779D01*
X131577009Y-56632778D01*
X131541271Y-56603448D01*
X131439814Y-56520186D01*
X131356552Y-56418729D01*
X131327222Y-56382991D01*
X131299147Y-56330467D01*
X131243557Y-56226467D01*
X131196751Y-56072166D01*
X131192037Y-56056627D01*
X131174641Y-55880000D01*
X131192037Y-55703373D01*
X131235714Y-55559389D01*
X131243557Y-55533533D01*
X131327221Y-55377011D01*
X131327222Y-55377009D01*
X131359631Y-55337519D01*
X131439814Y-55239814D01*
X131541271Y-55156552D01*
X131577009Y-55127222D01*
X131646689Y-55089977D01*
X131733533Y-55043557D01*
X131790147Y-55026384D01*
X131903373Y-54992037D01*
X131969557Y-54985519D01*
X132035740Y-54979000D01*
X132124260Y-54979000D01*
X132190443Y-54985519D01*
X132190443Y-54985519D01*
G37*
G36*
X127110443Y-54985519D02*
X127176627Y-54992037D01*
X127289853Y-55026384D01*
X127346467Y-55043557D01*
X127433311Y-55089977D01*
X127502991Y-55127222D01*
X127538729Y-55156552D01*
X127640186Y-55239814D01*
X127720369Y-55337519D01*
X127752778Y-55377009D01*
X127752779Y-55377011D01*
X127836443Y-55533533D01*
X127844286Y-55559389D01*
X127887963Y-55703373D01*
X127905359Y-55880000D01*
X127887963Y-56056627D01*
X127883249Y-56072166D01*
X127836443Y-56226467D01*
X127780853Y-56330467D01*
X127752778Y-56382991D01*
X127723448Y-56418729D01*
X127640186Y-56520186D01*
X127538729Y-56603448D01*
X127502991Y-56632778D01*
X127502989Y-56632779D01*
X127346467Y-56716443D01*
X127325622Y-56722766D01*
X127176627Y-56767963D01*
X127110443Y-56774481D01*
X127044260Y-56781000D01*
X126955740Y-56781000D01*
X126889557Y-56774481D01*
X126823373Y-56767963D01*
X126674378Y-56722766D01*
X126653533Y-56716443D01*
X126497011Y-56632779D01*
X126497009Y-56632778D01*
X126461271Y-56603448D01*
X126359814Y-56520186D01*
X126276552Y-56418729D01*
X126247222Y-56382991D01*
X126219147Y-56330467D01*
X126163557Y-56226467D01*
X126116751Y-56072166D01*
X126112037Y-56056627D01*
X126094641Y-55880000D01*
X126112037Y-55703373D01*
X126155714Y-55559389D01*
X126163557Y-55533533D01*
X126247221Y-55377011D01*
X126247222Y-55377009D01*
X126279631Y-55337519D01*
X126359814Y-55239814D01*
X126461271Y-55156552D01*
X126497009Y-55127222D01*
X126566689Y-55089977D01*
X126653533Y-55043557D01*
X126710147Y-55026384D01*
X126823373Y-54992037D01*
X126889557Y-54985519D01*
X126955740Y-54979000D01*
X127044260Y-54979000D01*
X127110443Y-54985519D01*
X127110443Y-54985519D01*
G37*
G36*
X124570443Y-54985519D02*
X124636627Y-54992037D01*
X124749853Y-55026384D01*
X124806467Y-55043557D01*
X124893311Y-55089977D01*
X124962991Y-55127222D01*
X124998729Y-55156552D01*
X125100186Y-55239814D01*
X125180369Y-55337519D01*
X125212778Y-55377009D01*
X125212779Y-55377011D01*
X125296443Y-55533533D01*
X125304286Y-55559389D01*
X125347963Y-55703373D01*
X125365359Y-55880000D01*
X125347963Y-56056627D01*
X125343249Y-56072166D01*
X125296443Y-56226467D01*
X125240853Y-56330467D01*
X125212778Y-56382991D01*
X125183448Y-56418729D01*
X125100186Y-56520186D01*
X124998729Y-56603448D01*
X124962991Y-56632778D01*
X124962989Y-56632779D01*
X124806467Y-56716443D01*
X124785622Y-56722766D01*
X124636627Y-56767963D01*
X124570443Y-56774481D01*
X124504260Y-56781000D01*
X124415740Y-56781000D01*
X124349557Y-56774481D01*
X124283373Y-56767963D01*
X124134378Y-56722766D01*
X124113533Y-56716443D01*
X123957011Y-56632779D01*
X123957009Y-56632778D01*
X123921271Y-56603448D01*
X123819814Y-56520186D01*
X123736552Y-56418729D01*
X123707222Y-56382991D01*
X123679147Y-56330467D01*
X123623557Y-56226467D01*
X123576751Y-56072166D01*
X123572037Y-56056627D01*
X123554641Y-55880000D01*
X123572037Y-55703373D01*
X123615714Y-55559389D01*
X123623557Y-55533533D01*
X123707221Y-55377011D01*
X123707222Y-55377009D01*
X123739631Y-55337519D01*
X123819814Y-55239814D01*
X123921271Y-55156552D01*
X123957009Y-55127222D01*
X124026689Y-55089977D01*
X124113533Y-55043557D01*
X124170147Y-55026384D01*
X124283373Y-54992037D01*
X124349557Y-54985519D01*
X124415740Y-54979000D01*
X124504260Y-54979000D01*
X124570443Y-54985519D01*
X124570443Y-54985519D01*
G37*
G36*
X122030443Y-54985519D02*
X122096627Y-54992037D01*
X122209853Y-55026384D01*
X122266467Y-55043557D01*
X122353311Y-55089977D01*
X122422991Y-55127222D01*
X122458729Y-55156552D01*
X122560186Y-55239814D01*
X122640369Y-55337519D01*
X122672778Y-55377009D01*
X122672779Y-55377011D01*
X122756443Y-55533533D01*
X122764286Y-55559389D01*
X122807963Y-55703373D01*
X122825359Y-55880000D01*
X122807963Y-56056627D01*
X122803249Y-56072166D01*
X122756443Y-56226467D01*
X122700853Y-56330467D01*
X122672778Y-56382991D01*
X122643448Y-56418729D01*
X122560186Y-56520186D01*
X122458729Y-56603448D01*
X122422991Y-56632778D01*
X122422989Y-56632779D01*
X122266467Y-56716443D01*
X122245622Y-56722766D01*
X122096627Y-56767963D01*
X122030443Y-56774481D01*
X121964260Y-56781000D01*
X121875740Y-56781000D01*
X121809557Y-56774481D01*
X121743373Y-56767963D01*
X121594378Y-56722766D01*
X121573533Y-56716443D01*
X121417011Y-56632779D01*
X121417009Y-56632778D01*
X121381271Y-56603448D01*
X121279814Y-56520186D01*
X121196552Y-56418729D01*
X121167222Y-56382991D01*
X121139147Y-56330467D01*
X121083557Y-56226467D01*
X121036751Y-56072166D01*
X121032037Y-56056627D01*
X121014641Y-55880000D01*
X121032037Y-55703373D01*
X121075714Y-55559389D01*
X121083557Y-55533533D01*
X121167221Y-55377011D01*
X121167222Y-55377009D01*
X121199631Y-55337519D01*
X121279814Y-55239814D01*
X121381271Y-55156552D01*
X121417009Y-55127222D01*
X121486689Y-55089977D01*
X121573533Y-55043557D01*
X121630147Y-55026384D01*
X121743373Y-54992037D01*
X121809557Y-54985519D01*
X121875740Y-54979000D01*
X121964260Y-54979000D01*
X122030443Y-54985519D01*
X122030443Y-54985519D01*
G37*
G36*
X119490443Y-54985519D02*
X119556627Y-54992037D01*
X119669853Y-55026384D01*
X119726467Y-55043557D01*
X119813311Y-55089977D01*
X119882991Y-55127222D01*
X119918729Y-55156552D01*
X120020186Y-55239814D01*
X120100369Y-55337519D01*
X120132778Y-55377009D01*
X120132779Y-55377011D01*
X120216443Y-55533533D01*
X120224286Y-55559389D01*
X120267963Y-55703373D01*
X120285359Y-55880000D01*
X120267963Y-56056627D01*
X120263249Y-56072166D01*
X120216443Y-56226467D01*
X120160853Y-56330467D01*
X120132778Y-56382991D01*
X120103448Y-56418729D01*
X120020186Y-56520186D01*
X119918729Y-56603448D01*
X119882991Y-56632778D01*
X119882989Y-56632779D01*
X119726467Y-56716443D01*
X119705622Y-56722766D01*
X119556627Y-56767963D01*
X119490443Y-56774481D01*
X119424260Y-56781000D01*
X119335740Y-56781000D01*
X119269557Y-56774481D01*
X119203373Y-56767963D01*
X119054378Y-56722766D01*
X119033533Y-56716443D01*
X118877011Y-56632779D01*
X118877009Y-56632778D01*
X118841271Y-56603448D01*
X118739814Y-56520186D01*
X118656552Y-56418729D01*
X118627222Y-56382991D01*
X118599147Y-56330467D01*
X118543557Y-56226467D01*
X118496751Y-56072166D01*
X118492037Y-56056627D01*
X118474641Y-55880000D01*
X118492037Y-55703373D01*
X118535714Y-55559389D01*
X118543557Y-55533533D01*
X118627221Y-55377011D01*
X118627222Y-55377009D01*
X118659631Y-55337519D01*
X118739814Y-55239814D01*
X118841271Y-55156552D01*
X118877009Y-55127222D01*
X118946689Y-55089977D01*
X119033533Y-55043557D01*
X119090147Y-55026384D01*
X119203373Y-54992037D01*
X119269557Y-54985519D01*
X119335740Y-54979000D01*
X119424260Y-54979000D01*
X119490443Y-54985519D01*
X119490443Y-54985519D01*
G37*
G36*
X114410443Y-54985519D02*
X114476627Y-54992037D01*
X114589853Y-55026384D01*
X114646467Y-55043557D01*
X114733311Y-55089977D01*
X114802991Y-55127222D01*
X114838729Y-55156552D01*
X114940186Y-55239814D01*
X115020369Y-55337519D01*
X115052778Y-55377009D01*
X115052779Y-55377011D01*
X115136443Y-55533533D01*
X115144286Y-55559389D01*
X115187963Y-55703373D01*
X115205359Y-55880000D01*
X115187963Y-56056627D01*
X115183249Y-56072166D01*
X115136443Y-56226467D01*
X115080853Y-56330467D01*
X115052778Y-56382991D01*
X115023448Y-56418729D01*
X114940186Y-56520186D01*
X114838729Y-56603448D01*
X114802991Y-56632778D01*
X114802989Y-56632779D01*
X114646467Y-56716443D01*
X114625622Y-56722766D01*
X114476627Y-56767963D01*
X114410443Y-56774481D01*
X114344260Y-56781000D01*
X114255740Y-56781000D01*
X114189557Y-56774481D01*
X114123373Y-56767963D01*
X113974378Y-56722766D01*
X113953533Y-56716443D01*
X113797011Y-56632779D01*
X113797009Y-56632778D01*
X113761271Y-56603448D01*
X113659814Y-56520186D01*
X113576552Y-56418729D01*
X113547222Y-56382991D01*
X113519147Y-56330467D01*
X113463557Y-56226467D01*
X113416751Y-56072166D01*
X113412037Y-56056627D01*
X113394641Y-55880000D01*
X113412037Y-55703373D01*
X113455714Y-55559389D01*
X113463557Y-55533533D01*
X113547221Y-55377011D01*
X113547222Y-55377009D01*
X113579631Y-55337519D01*
X113659814Y-55239814D01*
X113761271Y-55156552D01*
X113797009Y-55127222D01*
X113866689Y-55089977D01*
X113953533Y-55043557D01*
X114010147Y-55026384D01*
X114123373Y-54992037D01*
X114189557Y-54985519D01*
X114255740Y-54979000D01*
X114344260Y-54979000D01*
X114410443Y-54985519D01*
X114410443Y-54985519D01*
G37*
G36*
X111870443Y-54985519D02*
X111936627Y-54992037D01*
X112049853Y-55026384D01*
X112106467Y-55043557D01*
X112193311Y-55089977D01*
X112262991Y-55127222D01*
X112298729Y-55156552D01*
X112400186Y-55239814D01*
X112480369Y-55337519D01*
X112512778Y-55377009D01*
X112512779Y-55377011D01*
X112596443Y-55533533D01*
X112604286Y-55559389D01*
X112647963Y-55703373D01*
X112665359Y-55880000D01*
X112647963Y-56056627D01*
X112643249Y-56072166D01*
X112596443Y-56226467D01*
X112540853Y-56330467D01*
X112512778Y-56382991D01*
X112483448Y-56418729D01*
X112400186Y-56520186D01*
X112298729Y-56603448D01*
X112262991Y-56632778D01*
X112262989Y-56632779D01*
X112106467Y-56716443D01*
X112085622Y-56722766D01*
X111936627Y-56767963D01*
X111870443Y-56774481D01*
X111804260Y-56781000D01*
X111715740Y-56781000D01*
X111649557Y-56774481D01*
X111583373Y-56767963D01*
X111434378Y-56722766D01*
X111413533Y-56716443D01*
X111257011Y-56632779D01*
X111257009Y-56632778D01*
X111221271Y-56603448D01*
X111119814Y-56520186D01*
X111036552Y-56418729D01*
X111007222Y-56382991D01*
X110979147Y-56330467D01*
X110923557Y-56226467D01*
X110876751Y-56072166D01*
X110872037Y-56056627D01*
X110854641Y-55880000D01*
X110872037Y-55703373D01*
X110915714Y-55559389D01*
X110923557Y-55533533D01*
X111007221Y-55377011D01*
X111007222Y-55377009D01*
X111039631Y-55337519D01*
X111119814Y-55239814D01*
X111221271Y-55156552D01*
X111257009Y-55127222D01*
X111326689Y-55089977D01*
X111413533Y-55043557D01*
X111470147Y-55026384D01*
X111583373Y-54992037D01*
X111649557Y-54985519D01*
X111715740Y-54979000D01*
X111804260Y-54979000D01*
X111870443Y-54985519D01*
X111870443Y-54985519D01*
G37*
G36*
X110121000Y-56781000D02*
X108319000Y-56781000D01*
X108319000Y-54979000D01*
X110121000Y-54979000D01*
X110121000Y-56781000D01*
X110121000Y-56781000D01*
G37*
G36*
X129650443Y-54985519D02*
X129716627Y-54992037D01*
X129829853Y-55026384D01*
X129886467Y-55043557D01*
X129973311Y-55089977D01*
X130042991Y-55127222D01*
X130078729Y-55156552D01*
X130180186Y-55239814D01*
X130260369Y-55337519D01*
X130292778Y-55377009D01*
X130292779Y-55377011D01*
X130376443Y-55533533D01*
X130384286Y-55559389D01*
X130427963Y-55703373D01*
X130445359Y-55880000D01*
X130427963Y-56056627D01*
X130423249Y-56072166D01*
X130376443Y-56226467D01*
X130320853Y-56330467D01*
X130292778Y-56382991D01*
X130263448Y-56418729D01*
X130180186Y-56520186D01*
X130078729Y-56603448D01*
X130042991Y-56632778D01*
X130042989Y-56632779D01*
X129886467Y-56716443D01*
X129865622Y-56722766D01*
X129716627Y-56767963D01*
X129650443Y-56774481D01*
X129584260Y-56781000D01*
X129495740Y-56781000D01*
X129429557Y-56774481D01*
X129363373Y-56767963D01*
X129214378Y-56722766D01*
X129193533Y-56716443D01*
X129037011Y-56632779D01*
X129037009Y-56632778D01*
X129001271Y-56603448D01*
X128899814Y-56520186D01*
X128816552Y-56418729D01*
X128787222Y-56382991D01*
X128759147Y-56330467D01*
X128703557Y-56226467D01*
X128656751Y-56072166D01*
X128652037Y-56056627D01*
X128634641Y-55880000D01*
X128652037Y-55703373D01*
X128695714Y-55559389D01*
X128703557Y-55533533D01*
X128787221Y-55377011D01*
X128787222Y-55377009D01*
X128819631Y-55337519D01*
X128899814Y-55239814D01*
X129001271Y-55156552D01*
X129037009Y-55127222D01*
X129106689Y-55089977D01*
X129193533Y-55043557D01*
X129250147Y-55026384D01*
X129363373Y-54992037D01*
X129429557Y-54985519D01*
X129495740Y-54979000D01*
X129584260Y-54979000D01*
X129650443Y-54985519D01*
X129650443Y-54985519D01*
G37*
G36*
X144946821Y-55041313D02*
X144946824Y-55041314D01*
X144946825Y-55041314D01*
X145107239Y-55089975D01*
X145107241Y-55089976D01*
X145107244Y-55089977D01*
X145255078Y-55168995D01*
X145384659Y-55275341D01*
X145491005Y-55404922D01*
X145570023Y-55552756D01*
X145570024Y-55552759D01*
X145570025Y-55552761D01*
X145615713Y-55703375D01*
X145618687Y-55713179D01*
X145635117Y-55880000D01*
X145618687Y-56046821D01*
X145618686Y-56046824D01*
X145618686Y-56046825D01*
X145585145Y-56157396D01*
X145570023Y-56207244D01*
X145491005Y-56355078D01*
X145384659Y-56484659D01*
X145255078Y-56591005D01*
X145107244Y-56670023D01*
X145107241Y-56670024D01*
X145107239Y-56670025D01*
X144946825Y-56718686D01*
X144946824Y-56718686D01*
X144946821Y-56718687D01*
X144821804Y-56731000D01*
X144738196Y-56731000D01*
X144613179Y-56718687D01*
X144613176Y-56718686D01*
X144613175Y-56718686D01*
X144452761Y-56670025D01*
X144452759Y-56670024D01*
X144452756Y-56670023D01*
X144304922Y-56591005D01*
X144175341Y-56484659D01*
X144068995Y-56355078D01*
X143989977Y-56207244D01*
X143974856Y-56157396D01*
X143941314Y-56046825D01*
X143941314Y-56046824D01*
X143941313Y-56046821D01*
X143924883Y-55880000D01*
X143941313Y-55713179D01*
X143944287Y-55703375D01*
X143989975Y-55552761D01*
X143989976Y-55552759D01*
X143989977Y-55552756D01*
X144068995Y-55404922D01*
X144175341Y-55275341D01*
X144304922Y-55168995D01*
X144452756Y-55089977D01*
X144452759Y-55089976D01*
X144452761Y-55089975D01*
X144613175Y-55041314D01*
X144613176Y-55041314D01*
X144613179Y-55041313D01*
X144738196Y-55029000D01*
X144821804Y-55029000D01*
X144946821Y-55041313D01*
X144946821Y-55041313D01*
G37*
G36*
X152648228Y-55061703D02*
X152803100Y-55125853D01*
X152942481Y-55218985D01*
X153061015Y-55337519D01*
X153154147Y-55476900D01*
X153218297Y-55631772D01*
X153251000Y-55796184D01*
X153251000Y-55963816D01*
X153218297Y-56128228D01*
X153154147Y-56283100D01*
X153061015Y-56422481D01*
X152942481Y-56541015D01*
X152803100Y-56634147D01*
X152648228Y-56698297D01*
X152483816Y-56731000D01*
X152316184Y-56731000D01*
X152151772Y-56698297D01*
X151996900Y-56634147D01*
X151857519Y-56541015D01*
X151738985Y-56422481D01*
X151645853Y-56283100D01*
X151581703Y-56128228D01*
X151549000Y-55963816D01*
X151549000Y-55796184D01*
X151581703Y-55631772D01*
X151645853Y-55476900D01*
X151738985Y-55337519D01*
X151857519Y-55218985D01*
X151996900Y-55125853D01*
X152151772Y-55061703D01*
X152316184Y-55029000D01*
X152483816Y-55029000D01*
X152648228Y-55061703D01*
X152648228Y-55061703D01*
G37*
G36*
X89991565Y-51059389D02*
X90182834Y-51138615D01*
X90354976Y-51253637D01*
X90501363Y-51400024D01*
X90616385Y-51572166D01*
X90695611Y-51763435D01*
X90736000Y-51966484D01*
X90736000Y-52173516D01*
X90695611Y-52376565D01*
X90616385Y-52567834D01*
X90501363Y-52739976D01*
X90354976Y-52886363D01*
X90182834Y-53001385D01*
X89991565Y-53080611D01*
X89788516Y-53121000D01*
X89581484Y-53121000D01*
X89378435Y-53080611D01*
X89187166Y-53001385D01*
X89015024Y-52886363D01*
X88868637Y-52739976D01*
X88753615Y-52567834D01*
X88674389Y-52376565D01*
X88634000Y-52173516D01*
X88634000Y-51966484D01*
X88674389Y-51763435D01*
X88753615Y-51572166D01*
X88868637Y-51400024D01*
X89015024Y-51253637D01*
X89187166Y-51138615D01*
X89378435Y-51059389D01*
X89581484Y-51019000D01*
X89788516Y-51019000D01*
X89991565Y-51059389D01*
X89991565Y-51059389D01*
G37*
G36*
X83491565Y-51059389D02*
X83682834Y-51138615D01*
X83854976Y-51253637D01*
X84001363Y-51400024D01*
X84116385Y-51572166D01*
X84195611Y-51763435D01*
X84236000Y-51966484D01*
X84236000Y-52173516D01*
X84195611Y-52376565D01*
X84116385Y-52567834D01*
X84001363Y-52739976D01*
X83854976Y-52886363D01*
X83682834Y-53001385D01*
X83491565Y-53080611D01*
X83288516Y-53121000D01*
X83081484Y-53121000D01*
X82878435Y-53080611D01*
X82687166Y-53001385D01*
X82515024Y-52886363D01*
X82368637Y-52739976D01*
X82253615Y-52567834D01*
X82174389Y-52376565D01*
X82134000Y-52173516D01*
X82134000Y-51966484D01*
X82174389Y-51763435D01*
X82253615Y-51572166D01*
X82368637Y-51400024D01*
X82515024Y-51253637D01*
X82687166Y-51138615D01*
X82878435Y-51059389D01*
X83081484Y-51019000D01*
X83288516Y-51019000D01*
X83491565Y-51059389D01*
X83491565Y-51059389D01*
G37*
G36*
X165475256Y-49191298D02*
X165581579Y-49212447D01*
X165882042Y-49336903D01*
X166148852Y-49515180D01*
X166152454Y-49517587D01*
X166382413Y-49747546D01*
X166563098Y-50017960D01*
X166687553Y-50318422D01*
X166751000Y-50637389D01*
X166751000Y-50962611D01*
X166687553Y-51281578D01*
X166563098Y-51582040D01*
X166382413Y-51852454D01*
X166152454Y-52082413D01*
X166152451Y-52082415D01*
X165882042Y-52263097D01*
X165581579Y-52387553D01*
X165475256Y-52408702D01*
X165262611Y-52451000D01*
X164937389Y-52451000D01*
X164724744Y-52408702D01*
X164618421Y-52387553D01*
X164317958Y-52263097D01*
X164047549Y-52082415D01*
X164047546Y-52082413D01*
X163817587Y-51852454D01*
X163636902Y-51582040D01*
X163512447Y-51281578D01*
X163449000Y-50962611D01*
X163449000Y-50637389D01*
X163512447Y-50318422D01*
X163636902Y-50017960D01*
X163817587Y-49747546D01*
X164047546Y-49517587D01*
X164051148Y-49515180D01*
X164317958Y-49336903D01*
X164618421Y-49212447D01*
X164724744Y-49191298D01*
X164937389Y-49149000D01*
X165262611Y-49149000D01*
X165475256Y-49191298D01*
X165475256Y-49191298D01*
G37*
G36*
X76575256Y-49191298D02*
X76681579Y-49212447D01*
X76982042Y-49336903D01*
X77248852Y-49515180D01*
X77252454Y-49517587D01*
X77482413Y-49747546D01*
X77663098Y-50017960D01*
X77787553Y-50318422D01*
X77851000Y-50637389D01*
X77851000Y-50962611D01*
X77787553Y-51281578D01*
X77663098Y-51582040D01*
X77482413Y-51852454D01*
X77252454Y-52082413D01*
X77252451Y-52082415D01*
X76982042Y-52263097D01*
X76681579Y-52387553D01*
X76575256Y-52408702D01*
X76362611Y-52451000D01*
X76037389Y-52451000D01*
X75824744Y-52408702D01*
X75718421Y-52387553D01*
X75417958Y-52263097D01*
X75147549Y-52082415D01*
X75147546Y-52082413D01*
X74917587Y-51852454D01*
X74736902Y-51582040D01*
X74612447Y-51281578D01*
X74549000Y-50962611D01*
X74549000Y-50637389D01*
X74612447Y-50318422D01*
X74736902Y-50017960D01*
X74917587Y-49747546D01*
X75147546Y-49517587D01*
X75151148Y-49515180D01*
X75417958Y-49336903D01*
X75718421Y-49212447D01*
X75824744Y-49191298D01*
X76037389Y-49149000D01*
X76362611Y-49149000D01*
X76575256Y-49191298D01*
X76575256Y-49191298D01*
G37*
M02*
